<?xml version="1.0" encoding="UTF-8"?>
<svg width="1566px" height="557px" viewBox="0 0 1566 557" version="1.1" xmlns="http://www.w3.org/2000/svg" xmlns:xlink="http://www.w3.org/1999/xlink">
    <!-- Generator: Sketch 53.2 (72643) - https://sketchapp.com -->
    <title>Artboard</title>
    <desc>Created with Sketch.</desc>
    <defs>
        <path d="M177.20118,194 L109.0979,194 L109.0979,185.48709 L121.18074,184.38865 C129.14443,183.56482 130.51748,180.54411 127.77138,173.40425 C123.37762,160.77219 114.04088,133.86041 110.74556,125.07289 L52.80285,125.07289 C47.03604,143.47176 41.54384,158.3007 37.42469,173.95347 C35.22781,180.54411 36.05164,183.29021 43.74072,184.11404 L57.19661,185.48709 L57.19661,194 L0.07773,194 L0.07773,185.48709 C16.27972,184.66326 18.75121,181.64255 24.24341,167.63744 C42.91689,119.03147 61.59037,63.83486 79.16541,13.58123 L100.03577,13.58123 C114.5901,56.42039 141.22727,131.93814 154.95777,170.10893 C159.62614,183.29021 162.37224,184.11404 177.20118,185.48709 L177.20118,194 Z M107.45024,115.18693 C101.68343,96.51345 88.22754,57.24422 82.18612,40.2184 L81.36229,40.2184 C73.67321,62.46181 64.33647,89.6482 56.37278,115.18693 L107.45024,115.18693 Z" id="path-1"></path>
        <path d="M253.81839,78.93841 L221.1398,78.93841 L221.1398,156.92765 C221.1398,176.42496 229.3781,182.46638 238.16562,182.46638 C244.48165,182.46638 248.32619,181.91716 254.64222,179.17106 L256.8391,186.31092 C248.05158,191.80312 237.89101,197.29532 224.98434,197.29532 C215.6476,197.29532 195.87568,193.72539 195.87568,167.63744 L195.87568,78.93841 L177.47681,78.93841 L177.47681,67.40479 L196.97412,67.40479 L213.17611,35.00081 L221.1398,35.00081 L221.1398,67.40479 L253.81839,67.40479 L253.81839,78.93841 Z" id="path-2"></path>
        <path d="M280.99568,170.65815 L280.99568,27.31173 C280.99568,17.42577 279.62263,16.05272 273.03199,15.22889 L263.14603,14.40506 L263.14603,6.99059 L304.33753,0.67456 L306.2598,2.04761 L306.2598,170.65815 C306.2598,183.56482 307.35824,184.11404 325.4825,185.48709 L325.4825,194 L261.77298,194 L261.77298,185.48709 C280.17185,184.11404 280.99568,183.56482 280.99568,170.65815 Z" id="path-3"></path>
        <path d="M443.0201,99.53416 L443.0201,159.94836 C443.0201,176.15035 447.13925,180.54411 451.80762,181.64255 C454.27911,182.46638 458.39826,182.46638 461.96819,181.64255 L463.06663,189.88085 C456.7506,194 445.49159,197.29532 435.60563,197.29532 C426.5435,197.29532 421.87513,192.35234 418.57981,181.91716 C410.34151,187.40936 396.3364,197.29532 380.40902,197.29532 C355.69412,197.29532 342.78745,179.99489 342.78745,160.77219 C342.78745,148.41474 348.55426,134.95885 366.95313,129.19204 C387.27427,122.87601 412.26378,116.28537 418.85442,109.42012 L418.85442,100.6326 C418.85442,80.31146 408.41924,73.99543 396.06179,73.99543 C385.62661,73.99543 376.56448,79.48763 370.79767,98.71033 C369.42462,103.10409 367.50235,106.1248 362.01015,106.1248 C356.51795,106.1248 347.45582,102.28026 347.45582,93.76735 C347.45582,79.48763 368.60079,64.10947 398.25867,64.10947 C437.5279,64.10947 443.0201,84.43061 443.0201,99.53416 Z M418.85442,157.47687 L418.85442,120.67913 C413.08761,124.24906 399.63172,129.19204 389.47115,133.03658 C375.46604,138.52878 369.97384,144.84481 369.97384,156.92765 C369.97384,172.0312 377.93753,183.0156 393.5903,183.0156 C403.47626,183.0156 418.85442,177.79801 418.85442,157.47687 Z M562.20084,103.92792 L553.96254,103.92792 C552.04027,88.00054 543.80197,73.72082 525.67771,73.72082 C513.04565,73.72082 503.15969,80.86068 503.15969,94.04196 C503.15969,107.49785 519.63629,114.3631 530.62069,117.93303 C558.08169,127.54438 570.71375,135.50807 570.71375,158.3007 C570.71375,180.54411 553.13871,197.29532 522.38239,197.29532 C507.00423,197.29532 491.62607,193.72539 481.74011,185.21248 L479.26862,151.16084 L487.50692,151.16084 C492.72451,173.12964 503.15969,187.68397 524.03005,187.68397 C536.93672,187.68397 547.64651,179.99489 547.64651,167.08822 C547.64651,153.35772 535.01445,147.04169 519.08707,141.00027 C496.84366,133.31119 481.4655,125.3475 481.4655,102.00565 C481.4655,77.56536 500.41359,64.10947 528.42381,64.10947 C540.23204,64.10947 553.41332,66.85557 562.20084,72.07316 L562.20084,103.92792 Z" id="path-4"></path>
    </defs>
    <g id="Artboard" stroke="none" stroke-width="1" fill="none" fill-rule="evenodd">
        <g id="atlasV2_2" transform="translate(70.000000, 136.000000)">
            <g id="Planet" transform="translate(20.000000, 0.000000)">
                <g id="Clip-277" transform="translate(3.000000, 0.000000)" stroke="#185B9D" stroke-width="5">
                    <path d="M10.5529513,180.446562 C6.92398281,173.826848 7.68836676,175.37788 4.41561605,162.672779 C3.37464909,158.810724 2.54961753,154.893683 1.9443553,150.939857 C1.01368928,144.013346 0.448893765,137.04258 0.252320917,130.05659 C0.163266476,121.551891 1.56587393,109.240115 2.87200573,103.904269 C4.04455587,99.1398567 5.49169054,92.7353582 7.14661891,88.1119484 C9.16518625,82.4347278 12.111404,74.8947851 15.0724642,69.6405731 C18.0335244,64.386361 22.1151862,57.7666476 25.5437822,52.9428653 C28.5781954,48.8756004 31.8283956,44.9738738 35.2804011,41.2544699 C39.362063,36.7646418 49.3806877,27.3916619 59.0282521,21.3285387 C69.0783777,14.7396184 79.9955137,9.57951705 91.4663324,5.99633238 C102.358521,2.57216312 113.659809,0.620394835 125.069542,0.192951289 C128.230974,0.0742120344 131.563095,2.89426934 134.9249,8.99449857 C131.563095,2.89426934 128.245817,0.0890544413 125.069542,0.192951289 C131.397086,-0.0337817197 137.732739,0.179473125 144.030716,0.831174785 C163.666441,2.94750091 182.560426,9.51623203 199.274155,20.0372493 C231.850182,40.5091737 253.664452,74.3790561 258.829312,112.505444 C259.373534,117.329226 258.069876,124.597058 254.918338,134.30894 L118.598252,258.487937 L79.4068768,234.450659 L15.0724642,184.1349 L10.5529513,180.446562 Z" id="Path"></path>
                </g>
                <path d="M127.612535,0.0520444794 C130.832774,-0.0739909328 134.172006,2.74327122 137.548424,8.8374541 C134.172006,2.74327122 130.855085,-0.0591632373 127.664594,0.0446306316 C192.366866,-1.51969125 233.875703,38.3147199 251.290557,76.0662257 C272.337388,121.691045 272.337388,147.580201 156.840113,234.047908 C92.0980695,266.38608 45.5075817,189.646374 15.0157062,189.646374 C-29.6065508,107.062417 30.3137033,5.39742873 127.612535,0.0520444794 Z" id="Fill-276" fill="#185B9D"></path>
                <path d="M156.849659,2.07413339 C156.389045,2.00741334 155.779845,2.02224002 155.31923,2 C156.145939,2.3362564 156.927148,2.77458898 157.644591,3.30474764 L157.711454,3.30474764 C159.301317,5.00981557 161.760404,4.78741541 163.595432,5.93648293 L162.614769,6.90763032 L163.573144,7.76757762 L161.975852,8.1827246 C162.131867,8.56080488 162.347315,9.07232526 162.50333,9.45781888 C163.430141,9.70888986 164.295096,10.1480112 165.044139,10.7477398 C163.695419,10.9021008 162.336534,10.9492003 160.980331,10.8885933 C161.329506,11.1406468 161.79755,11.474247 162.139296,11.7337139 C161.284931,11.7337139 160.133394,11.7781939 159.2716,11.7337139 L160.534575,12.2971277 C156.53763,12.2081676 152.6967,10.8589399 148.684896,10.8737666 C150.586788,11.4445937 152.399529,12.1859276 154.279133,12.8605414 L152.607549,12.4528078 C154.561445,14.8250762 160.467711,18.1165986 160.519716,18.1388387 C159.606314,17.840245 158.712979,17.4836773 157.845181,17.0713179 L159.033863,17.9831585 C158.018842,17.6663529 157.026079,17.2824819 156.062157,16.834091 C158.041912,19.1607031 160.67697,20.8395993 163.625149,21.6527613 C162.221018,21.7639614 160.824316,21.4970812 159.420185,21.5267345 L160.653443,22.4830552 C158.008625,25.2408173 158.008625,25.2408173 158.484098,26.7086584 L157.131971,26.2860981 C156.94624,25.9080178 156.701074,25.4039107 156.522771,25.0258305 L155.200362,24.6996435 C155.943289,25.8783644 157.065108,26.7457251 157.867468,27.8725526 L156.582206,28.0059927 C153.662504,25.4558041 149.405535,25.3297773 146.656707,22.4904686 C145.838956,22.5196106 145.031327,22.3026381 144.338776,21.8677481 C143.172382,22.609082 132.117635,40.8088289 134.28698,44.7082451 C136.597482,44.5080849 136.738638,44.3449915 137.838169,43.0624839 C138.997134,44.2930981 139.480037,44.8046185 140.676148,49.4305419 C139.987718,50.0292115 139.183692,50.4808224 138.313642,50.7575296 C138.64053,48.8597148 138.558808,48.2444077 137.778735,46.6801932 C136.203731,47.725474 135.728258,48.0368342 135.921419,50.7204629 C136.463755,58.1338017 120.446259,67.7711422 116.38988,65.7991941 L116.107568,67.0891151 C119.32444,71.5371184 119.32444,71.5371184 117.734577,79.4916309 C114.87431,80.7593119 112.979847,81.5377125 112.979847,81.5377125 C110.149297,78.3203234 110.149297,78.3203234 106.219216,78.0682699 C103.539173,82.8344002 101.948483,88.132928 101.561066,93.5843881 C100.993537,94.2325854 100.661187,95.0525407 100.61755,95.9121765 C101.406548,96.3027089 102.232869,96.6131568 103.084066,96.8388438 L103.366378,96.8388438 C104.273443,96.7748819 105.171868,96.6209127 106.048343,96.3792168 L107.155303,97.5060443 C107.155303,97.980498 107.155303,98.6032185 107.155303,99.0776722 C115.401788,105.49021 117.437406,88.2245441 124.673511,85.4741954 L124.829525,85.1035284 C125.045235,83.9082617 125.44363,82.7531424 126.010779,81.6785659 C129.23508,81.0187787 136.292882,79.9067779 136.300311,79.9067779 C136.463755,80.017978 148.744331,95.1041226 148.001404,95.9047631 C147.558925,96.2404766 147.077502,96.5217412 146.567556,96.7424704 C145.950927,96.7424704 145.780054,96.7869505 145.609181,96.7869505 L142.005987,96.7869505 C144.561654,100.812393 145.995502,100.93842 147.154468,101.034794 C147.429351,97.4319109 150.750232,94.5110554 149.494686,90.5671592 C150.401937,90.4817891 151.31659,90.5191945 152.213798,90.6783593 C149.138082,85.5483288 138.269066,83.8655009 141.745963,76.2001085 C154.955196,80.062458 154.591162,95.8232164 164.776685,102.339541 C163.290832,99.5595392 163.625149,99.2259389 165.631051,97.0464173 C164.576095,94.8224157 162.755925,93.0654544 161.463233,90.9823062 C163.223969,90.4337191 164.382934,88.988118 165.853929,88.0169706 C166.901455,88.4765976 168.082708,89.010358 168.751342,92.8801209 C169.732005,98.6328718 171.232717,99.0480188 177.525305,100.767913 C177.740753,100.375006 178.015636,99.8486594 178.231085,99.4483391 C180.690172,98.7811386 183.632161,101.101514 185.749501,98.2622049 L187.317076,98.2622049 C191.210011,104.000129 188.921798,113.830216 188.892081,113.889523 C187.814837,114.178643 178.164221,116.684352 170.222337,114.497417 C159.546482,111.569148 159.546482,111.569148 158.692117,118.797153 C155.720411,120.820995 138.402793,111.013148 137.110101,109.567547 C138.224491,99.8190061 138.224491,99.8190061 135.824838,99.1888723 C126.567974,96.8166038 118.91583,103.273622 110.179014,103.799969 C107.682781,103.948236 106.553533,101.034794 104.087017,101.101514 C100.71413,105.816397 91.4572654,107.239758 93.7751962,115.112724 C91.865875,117.470166 85.1423899,122.778116 84.2137317,123.000517 C83.7234002,123.845637 83.0844834,124.979878 82.5941518,125.832412 C82.5124299,126.380999 82.5050007,126.373586 82.4901421,126.373586 L82.3564154,126.373586 L80.9968598,126.299452 C57.5278105,166.828176 72.8692435,173.907914 73.5675944,174.189621 C74.1173601,179.949786 79.265841,182.922535 81.6877815,187.533631 C85.1498191,188.178592 84.2285902,194.12409 88.4484129,193.523609 C95.8776783,192.463502 99.116838,193.071395 99.1391258,193.078809 C105.372279,194.88025 110.513331,189.008886 116.701909,190.587927 C120.453688,191.536834 120.245669,195.39177 122.021263,197.793692 C125.215847,198.171773 129.584255,194.828357 131.597586,198.913106 C134.324127,204.38415 130.609494,209.358501 130.371757,214.599731 C134.368702,216.68288 146.515551,223.013871 133.744644,242.614739 C134.287661,243.4408 134.616944,244.388324 134.703019,245.372501 L135.728258,246.158315 L135.193351,247.640983 C135.90941,248.206248 136.726113,248.631331 137.600433,248.893837 C137.83074,252.333626 215.956894,171.038952 215.763733,171.387379 C212.398276,167.23591 220.303015,165.323268 221.781438,161.794519 C223.074131,161.320065 223.074131,161.320065 228.408343,154.729607 L228.772377,154.58134 L228.868958,154.58134 C229.002684,154.4479 241.899889,141.051997 236.662257,125.224518 C233.460244,124.483184 233.200219,124.416464 231.231464,119.679341 C226.209281,127.0482 226.209281,127.0482 225.696661,127.307666 C224.062223,122.96345 224.062223,122.96345 223.467882,122.014543 L221.818585,122.274009 C215.184251,114.860671 214.924226,114.586377 217.086143,111.420881 C222.041463,111.850855 225.763525,121.236142 230.547972,116.454538 C233.073922,118.448727 233.073922,118.448727 242.873123,116.936405 C242.873123,116.506432 242.954845,115.935605 242.991991,115.505631 C243.20744,115.928191 243.497181,116.484192 243.734918,116.906752 C249.113706,116.024565 247.174667,124.742651 252.538597,124.379398 C252.812334,123.34539 252.902847,122.271596 252.806051,121.206489 C253.147797,121.540089 253.608411,121.992303 253.957587,122.318489 C254.039309,133.742445 257.048161,144.81056 257.976819,156.130728 C258.058541,155.975048 263.571056,124.876091 259.507248,102.094901 C260.19954,104.103651 260.697104,106.174044 260.993101,108.277626 C259.878711,102.873302 258.207126,95.6749496 256.706415,90.389239 C252.456875,78.5946169 251.79567,76.7857623 246.624902,66.9260216 C238.333842,53.174278 235.703882,49.4157153 224.114228,37.2207729 C216.40265,30.0965542 214.545334,28.3988996 204.515826,21.3339877 C201.54412,19.458413 197.458024,16.9897711 194.36002,15.2550499 L196.930546,16.6709976 L195.734434,16.0408638 L197.071702,16.8711577 C194.389737,15.4255566 191.581475,14.2245958 188.854934,12.8531281 L188.178871,12.5640079 C185.623204,11.5483804 183.253268,10.1027794 180.653025,9.16128532 L182.057156,9.50229891 C179.08545,8.26427132 175.913154,7.68603089 173.038028,6.23301648 C173.840389,6.44800331 174.895345,6.75936354 175.682847,7.0188304 L172.577414,5.97354962 L172.443687,5.93648293 L166.968319,4.31296172 L166.165958,4.09056155 L166.04709,4.09056155 C162.993662,3.34922767 159.865941,2.85253397 156.805084,2.08896007 M156.500484,28.5397531 C156.882389,29.5762669 157.4713,30.5245759 158.231502,31.3271685 L155.898713,30.7711681 C156.128026,31.3063324 156.500764,31.7680499 156.975957,32.105569 L157.607444,32.7579429 L157.302844,32.9284497 C156.025011,32.8617296 154.271704,30.4894612 154.078543,30.2151676 C153.283612,29.1179935 152.971583,28.8437 152.48868,28.6287131 L152.510968,28.6287131 C152.988515,28.5863662 153.46903,28.6654301 153.90767,28.8585266 C154.258541,28.9440481 154.61675,28.9961748 154.977484,29.0142068 C155.913572,29.1328202 155.913572,29.1328202 155.898713,28.7695666 C156.381615,29.1995402 156.485625,28.8511133 156.485625,28.6880198 L156.485625,28.5026864 L156.485625,28.5471664 M250.309817,120.131554 L250.309817,120.205688 L250.242954,120.205688 L250.042364,119.990701 L249.864061,119.849848 C249.908338,119.565324 249.930691,119.277833 249.930925,118.9899 C250.091613,119.370962 250.218399,119.765389 250.309817,120.168621 M155.259796,25.1518572 L154.680314,24.7292969 L155.170645,25.2037506 L155.252367,25.1592706 M179.026016,8.24203131 L179.182031,8.30875136 L179.635216,8.47925815 L179.055733,8.24944465 M179.672362,8.49408483 L179.635216,8.49408483 L179.924957,8.62011159 L180.051255,8.62011159 L179.672362,8.47184481 M103.306944,96.8166038 L103.306944,96.7795371 L103.262368,96.7795371 L103.046919,96.8907372 L102.831471,96.8907372 L102.705173,97.3058842 C102.772037,97.3800176 102.965197,97.3058842 103.277227,96.7869505 M87.3711695,121.458542 L87.3711695,120.865475 L87.4083158,121.436302" id="Fill-306" fill="#FFFFFE"></path>
                <polyline id="Fill-307" fill="#FFFFFE" points="160.53 21.515 160.52 21.525 160.47 21.475 160.53 21.515"></polyline>
                <path d="M34.4396557,197 C31.4668593,192.458455 27.0261984,189.06902 23.6011811,184.884258 C23.2618569,184.492012 22.895206,184.124396 22.5039894,183.784178 L22.1777973,184.245023 C19.0196645,181.591452 10.0345543,157.077515 9.95300622,156.83966 L9.43406421,156.676135 C8.5666897,154.193523 5.93491236,143.794797 6.19438336,137.788957 L5.80888358,138.286966 C4.12602877,134.748872 4.09637495,132.786568 4,126.282718 C4.18533643,140.769578 4.19274989,141.334484 5.62354715,150.811521 C8.32204561,164.079374 8.42583401,164.599681 11.035371,172.322538 M103.481184,20.9798248 L104.333731,20.6527741 C105.023183,19.1215822 105.371615,18.3485532 117.551926,13.0042474 L117.336935,11.9413326 C114.638437,11.4879214 107.603066,13.2569684 106.276057,13.8218742 C106.710593,13.8478959 107.14629,13.8478959 107.580826,13.8218742 C105.304894,14.6543669 102.858453,14.5651712 100.515801,15.0408813 C101.701954,14.2975843 103.103097,14.2604194 104.400452,13.873905 L103.799962,13.8070082 C108.248037,11.5399522 113.392976,12.9596496 117.885531,11.079108 C116.558522,10.7817892 112.562669,11.3615609 112.169756,11.4656225 C113.652447,11.0642421 115.253754,10.9601805 116.78834,10.6702947 C112.43664,9.84523493 108.715085,13.0785771 104.415279,12.595434 C105.341961,12.2460844 106.276057,11.9264667 107.202739,11.58455 C105.089904,11.4581895 103.080857,12.2089196 100.990262,12.3278471 C101.587723,11.587842 102.402029,11.0548102 103.318088,10.8040881 L102.806559,10.9899124 L103.948231,10.8561189 L103.45153,11.093974 C105.112144,11.7109105 116.899541,9.76347226 117.018157,9.74117335 C115.535465,9.50331829 113.726582,9.36952482 113.704341,9.36952482 C116.365772,8.52959915 117.010743,8.48500133 122,8.13565171 L122,8.13565171 C120.828674,8.13565171 120.828674,8.13565171 118.515675,7.97955933 L119.101338,7.80116804 C116.407885,7.63410953 113.706709,7.63410953 111.013256,7.80116804 C111.539612,8.09848686 111.539612,8.09848686 113.370736,8.19511548 C110.857242,8.67369657 108.299792,8.88052561 105.742288,8.81205203 L106.913614,8.53703212 C106.550355,8.53703212 106.061067,8.59649589 105.697807,8.64852668 C106.458295,8.40248101 107.233248,8.20388843 108.01822,8.05388904 L108.203556,7.51871516 C108.559402,7.45925139 109.033863,7.34775684 109.382296,7.25112822 C108.89172,7.17597993 108.395837,7.14117677 107.899604,7.14706663 C108.25545,7.03557207 108.737325,6.88691266 109.100584,6.79771702 L109.159892,6.25511017 L108.566815,6.16591452 L109.063517,5.81656491 L108.522335,5.6679055 C116.795753,3.95832227 116.795753,3.95832227 117.744676,3.4974781 L117.166426,2.50146005 L118.211723,2.23387311 C117.267867,1.99275283 116.293262,1.89503574 115.320475,1.94398726 C116.59559,1.48314308 117.455551,1.252721 117.462964,1.252721 C115.980273,1.08919565 114.60137,1.5797717 113.170572,1.66896735 C113.911918,1.3790815 113.911918,1.35678259 116.098888,1 C114.719985,1.21555615 112.874034,1.48314308 111.502544,1.74329705 C109.063517,2.21900717 105.809009,2.88054154 103.384809,3.43058136 L103.384809,3.43058136 C101.902117,3.80222989 96.4013319,5.19962835 89.4697493,7.63764269 C81.5225231,10.7743563 80.5068794,11.1757367 74.6428347,14.11176 C66.2433876,18.7647996 64.2639945,19.8648792 55.8274801,25.9004513 C47.0054659,33.02867 42.1496513,36.9532785 32.7790413,48.1547651 C25.2766225,58.1892753 24.668719,59.006902 20.4578752,66.3655429 L20.4578752,66.3655429 C20.4578752,66.4175737 16.4397814,74.0512344 14.5271094,78.3920892 L14.7717535,77.8271834 C17.0625118,72.6241041 18.9529434,69.2495354 19.7535968,67.8075392 C19.3310297,68.5508362 18.9084626,69.353597 18.493309,70.1340589 C19.9691722,67.2981398 21.6361215,64.5663855 23.4825658,61.9577913 C23.1341333,62.6416246 23.097066,62.7010884 22.2667588,64.1133528 C23.0674122,63.2139634 23.7865176,62.2402442 24.5871709,61.3259889 L24.3351134,61.9726573 C25.1499249,60.8356663 26.0495308,59.7622429 27.0261984,58.761614 C26.2848527,60.1515795 25.2321417,61.3482878 24.4759691,62.7382533 C27.441352,60.1813114 29.176101,56.4350942 32.8161086,54.6214494 L32.482503,55.230953 C34.5212037,54.487656 35.3959917,52.0942394 37.5607212,51.4773029 L37.9610479,51.8489514 L37.8424326,52.4361561 C41.8160457,51.692859 44.1512848,47.2330767 48.629013,47.5675604 C49.7929258,49.5893284 46.3234278,49.931245 45.3596783,51.2840457 C45.7623481,51.2236438 46.1684308,51.188887 46.5754853,51.1799841 C46.8646102,52.7557738 47.3168311,55.1343244 54.9082113,49.0244226 C53.8851542,49.5224316 52.7731356,49.7677197 51.7500785,50.2731617 C52.1059245,49.7974516 52.1059245,49.7974516 53.8703273,48.4743828 C53.4778774,48.3813886 53.0692106,48.3813886 52.6767607,48.4743828 C58.3258152,41.0860101 58.3258152,41.0860101 58.3184017,40.9670826 C57.5177483,40.7886913 57.5177483,40.7886913 56.2129798,41.4427927 C59.5935164,37.6817096 63.1074951,43.9031059 66.8512911,42.7212636 C64.078658,45.5160605 60.1791795,46.4823467 57.0729409,48.7419697 C58.7261419,49.0392886 58.7335553,49.1136183 59.2969781,52.7929387 L59.830747,53.1274224 C61.7582459,51.4327051 64.9830998,47.7385187 65.0201671,47.7236528 L64.4715713,47.4486329 C64.338129,46.6384391 64.9979267,46.0883993 65.1461959,45.3674011 L65.1091286,45.3674011 L65.1091286,45.3674011 C68.2524345,42.877356 72.3001822,41.5914521 74.7021424,38.1053889 C77.9788905,33.3705867 77.9788905,33.3705867 79.1502167,32.7462171 C79.7951875,32.3968675 79.9879374,32.2928059 86.4450587,27.5431378 L85.8371552,27.2012211 C82.2045612,28.494558 82.2045612,28.494558 81.3520136,28.4573932 L81.1666771,27.8627555 C83.6798392,25.7889567 87.2012314,25.216618 89.2251052,22.4218211 L88.8766727,21.9981418 L89.0323553,21.4183701 L88.4541057,21.0169896 C87.471579,21.2866018 86.5081484,21.6218344 85.5702708,22.0204407 L59.8381605,31.765065 C60.4979582,30.6649854 63.4040334,28.5614547 66.510272,27.3052827 C71.5884903,25.2389169 74.4130175,20.0061057 79.5283031,17.9769047 C81.53735,17.1890098 81.53735,17.1890098 93.7992084,16.4903106 C92.6946033,17.0180515 91.441729,17.0552164 90.3445373,17.5978232 L90.2704027,18.1404301 L91.263806,18.6384391 L91.263806,19.2702416 C93.7250738,18.1329971 95.9565245,16.5497744 98.4919269,15.5537563 C98.1120378,15.7951676 97.7480271,16.0608251 97.4021486,16.3490842 L97.8766099,16.7578975 C101.019916,16.4828776 103.851857,14.5280064 107.136018,14.9962835 C104.911981,18.4303159 97.3057737,19.8128484 96.1122071,18.5715423 C95.1009585,18.7930868 94.1092582,19.0963515 93.1468242,19.4783647 C93.5026701,19.5601274 93.9623045,19.679055 94.3181504,19.7756836 L94.392285,20.4595169 C93.3364403,21.3166688 92.1963031,22.0638179 90.9895081,22.689408 C90.922787,23.0461906 90.8115851,23.5219007 90.7152102,23.8786833 C94.7184771,26.8518715 97.3502544,21.433236 100.723378,20.3554553 C100.604762,20.5784444 100.604762,20.5784444 98.6995037,22.0278736 C99.9078972,22.2657287 103.318088,21.0615875 103.466357,21.0095567 M58.7335553,43.1746748 L58.7335553,43.0929121 L58.1034114,43.2267056 C58.3041026,43.2976422 58.5255196,43.278691 58.7113149,43.1746748" id="Fill-308" fill="#FFFFFE"></path>
                <path d="M136.54047,10.7819863 L137.056919,10.0363853 L136.143777,10.9907545 C136.664723,10.302247 137.245812,9.66101434 137.880244,9.0745601 L137.700609,9.22368029 L137.940122,9.02236803 L137.940122,9.02236803 L137.760487,9.16403221 L137.955091,9.01491202 L137.955091,9.01491202 L137.738033,9.16403221 L137.940122,9.02982404 L137.940122,9.02982404 C137.191645,9.44736057 136.443168,9.90217715 135.694691,10.2600656 C136.296803,9.7997179 136.962283,9.4280793 137.67067,9.1565762 C137.259008,9.33552043 136.85483,9.52192067 136.443168,9.69340889 L136.682681,9.57411273 L135.851871,9.92454518 C136.256705,9.67736159 136.688652,9.47722793 137.139252,9.32806442 L135.911749,9.77542499 C136.503046,9.5442887 137.101828,9.3131524 137.708094,9.10438413 C136.675196,9.43990456 135.642298,9.84998509 134.586945,10.1034894 C135.148303,9.87235312 135.732115,9.70832091 136.300957,9.52937668 L135.851871,9.66358485 C136.55544,9.41008052 137.273977,9.20876827 138,9 L137.887728,9 L137.139252,9.22368029 L137.393734,9.14912019 C136.518016,9.35788846 135.657267,9.60393677 134.789034,9.82016105 C134.789034,9.82016105 136.652742,9.28332836 137.281462,9.13420817 C136.877285,9.19385625 136.465622,9.27587235 136.05396,9.34297644 L136.802437,9.17148822 C136.233594,9.20876827 135.672237,9.29824038 135.103394,9.37280048 L135.55248,9.29078437 C134.444735,9.41753653 133.344473,9.61884879 132.244212,9.76796898 C132.648285,9.66060786 133.058099,9.57597275 133.471715,9.51446466 C131.874572,9.5776989 130.282552,9.73454645 128.703916,9.98419326 L129.145518,9.9394572 C126.900087,10.2749776 124.654656,10.7819863 122.409225,11.1771548 L122.895735,11.6319714 L122.521497,11.9376678 C124.018451,12.4297644 125.156136,11.4082911 126.48094,11.1920668 L126.084247,11.3933791 L126.316275,11.3933791 L126.129156,11.5201312 C126.585727,11.5201312 131.368494,10.6999702 132.446301,10.3868178 C131.952306,10.6030421 131.458312,10.8192663 130.949347,11.0131226 L131.121497,10.8640024 C130.840849,10.8860363 130.564171,10.9436647 130.298172,11.0354906 L130.500261,10.9460185 C129.983812,11.0205786 129.489817,11.2218908 129.003307,11.318819 L129.175457,11.1846108 C128.239861,11.3933791 127.319234,11.6468834 126.391123,11.8929317 L126.585727,11.7810916 C126.391123,11.7810916 126.391123,11.7810916 123.681636,12.9591411 L123.898695,12.9591411 L124.010966,13.1455413 C124.724381,13.1048349 125.42675,12.9513101 126.091732,12.6907247 C122.993037,14.9797197 118.943777,15.3301521 115.867537,17.6713391 L116.294169,17.7831792 C116.166928,18.1261557 116.166928,18.1261557 115.403481,18.6704444 L115.193908,18.2305398 C114.445431,18.2827319 111.87067,19.2445571 111.601218,19.9901581 C112.384696,19.8377658 113.153496,19.6182402 113.899043,19.3340292 C110.815318,21.1905756 107.16275,21.8019684 104.116449,23.6808828 C101.721323,25.1720847 96.1152306,28.7435133 95.8382942,30.3912914 C96.0328982,30.4956755 96.0328982,30.4956755 97.2154917,30.2198032 C97.2154917,30.5478676 97.2154917,30.5478676 95.9281114,31.5469729 C95.5389034,31.8526693 94.8353351,32.419326 95.3368146,34 L104.318538,29.3772741 L103.869452,29.8097226 C104.168842,29.6904265 104.168842,29.6904265 105.276588,28.8478974 C106.249608,28.1022965 106.249608,28.1022965 112.012881,26.201014 L112.170061,26.3575902 L112.641601,26.2979421 C113.046852,26.1110767 113.41855,25.8591923 113.741862,25.5523412 C114.490339,24.9707724 115.44839,25.0826126 116.271715,24.7470922 C118.779112,23.7479869 121.578416,23.852371 124.010966,22.6072174 C124.078329,21.533552 124.078329,21.533552 124.983986,20.4822547 C124.452567,21.488816 124.5349,21.6230242 124.69208,21.8765285 C126.061793,21.7348643 126.099217,20.3853266 126.81027,19.6397256 C127.498869,19.2371011 130.238294,16.851178 130.253264,16.836266 L130.440383,16.7244259 L130.440383,16.7244259 L132.685814,14.5696391 C133.284595,13.4214137 135.851871,11.6692514 135.874326,11.6692514 L136.667711,10.7223382 M128.434465,11.2964509 L128.786249,11.1846108 L128.786249,11.1846108 C128.180073,11.3168478 127.582654,11.4861716 126.997389,11.6916194 L128.44195,11.2964509 M133.187293,14.3459588 L133.232202,14.3012228 L133.232202,14.3012228 L132.566057,14.7784074 L132.566057,14.9200716 C132.816922,14.7528617 133.043578,14.5521643 133.239687,14.3235908 M95.3517842,31.9794214 L95.4041775,31.7631971 L95.2993908,31.8750373 L95,32.2478378 L95.3517842,31.9794214" id="Fill-309" fill="#FFFFFE"></path>
                <path d="M128,58.4955305 L127.892313,58.6875243 L127.330799,59.2635056 C126.600063,60.2456277 126.630831,61.7298873 125.207818,62.2615624 L124.653997,62.3354061 C123.392516,62.3354061 122.138726,62.1655655 120.892629,62.1434124 C120.281574,62.1817605 119.718992,62.4761073 119.354237,62.9483094 L118.585041,63 L117.977376,62.2615624 L118.061987,61.9292654 C118.169675,61.5157404 118.538889,61.2277497 118.654268,60.8068403 C118.808107,60.2087058 118.654268,59.5810338 118.838875,58.9828993 L119.008098,58.5619899 L119.138862,58.3995336 L119.738835,57.8678585 C120.58495,56.8488146 120.508031,55.1725612 122.184878,54.7516518 C122.654088,54.6335017 122.592552,53.5258453 122.5464,53.0532452 L121.623365,52.6027983 C121.138771,51.8643607 121.200307,50.9856199 120.646486,50.3136417 C119.200397,54.3307423 118.66196,55.6746988 117.062032,57.2623397 C116.492827,57.838321 113.469887,59.5588807 112.077642,58.8278274 C111.900727,57.9860086 111.900727,57.9860086 113.477579,56.110377 C114.039092,52.8612515 115.085199,52.0194326 117.369711,51.2588418 C120.884937,50.0994948 121.215691,48.5118539 121.44645,47.101438 C121.177231,46.8799067 121.138771,46.7617567 121.377222,46.3630004 C121.615673,45.9642441 122.200262,45.6910222 122.523324,45.2774971 C122.846387,44.863972 122.523324,44.0664594 123.207909,44 L123.354056,44 L123.892493,44.2510688 C124.446314,44.0738438 124.9386,44.4209094 125.469345,44.4282938 C124.700149,45.6541003 124.784761,45.7574815 125.200126,46.2300816 C125.923171,45.7648659 126.615447,45.9273222 126.346229,46.7691411 C126.07701,47.61096 125.153975,48.0909444 125.077055,49.0213758 C125.077055,49.3905946 125.846251,52.6027983 125.846251,52.6397202 C126.869282,56.4869802 126.869282,56.4869802 126.938509,56.6125146 C127.207728,57.0481928 127.707706,57.2697241 127.976924,57.7275554 L127.976924,58.5472211" id="Fill-311" fill="#FFFFFE"></path>
                <path d="M122.657072,29.9718194 C121.941258,31.0685623 119.249797,31.8751989 118.541141,31.9601081 C116.357907,32.2502143 116,30.8633652 116,30.8492137 L116.186112,30.4671226 L117.266991,29.3703797 C118.397978,28.3443945 117.796694,28.0896671 117.567633,27.9906065 C118.376503,27.325485 118.848941,27.0141515 119.128108,27 L119.178215,27.2759547 C119.178215,28.1887278 120.302044,28.0189095 120.667109,27.9835307 C122.478119,27.7146518 122.478119,27.7146518 122.700021,27.8986216 C123.150984,28.2736369 123.057928,29.3986828 122.657072,30.0213497" id="Fill-312" fill="#FFFFFE"></path>
                <path d="M139.260188,12.6841204 L139.260188,12.5262465 L138.833856,12.0225534 L138.789969,12.1428383 L138.514107,12 L138.576803,12.4059616 L138.526646,12.7517807 C138.495298,13.3306518 138.495298,13.3306518 138.46395,13.3682408 C138.432602,13.4058298 138.401254,13.2780271 138.326019,12.7893697 L138.231975,13.0224217 L138.181818,13.3682408 L138.181818,12.8495121 L138.056426,12.9472436 L138,12.7818519 C138.043887,13.1427066 138,13.5336325 138.062696,13.8719338 L138.062696,13.9922187 L138.206897,14.1801639 C138.294671,14.525983 138.275862,14.8943555 138.363636,15.2476924 L138.539185,14.9620158 C138.789969,16.0220265 138.815047,16.0220265 139.040752,15.9919553 L139.040752,15.1725144 L139.097179,14.5710898 L139.003135,13.7140599 C139.07837,13.7140599 139.166144,13.9847009 139.329154,14.3981803 C139.492163,14.8116596 139.673981,15.3153527 139.855799,15.7739389 L139.949843,15.9919553 L139.805643,15.2401746 L140,15.6235828 L140,15.6235828 L139.862069,14.759035 L139.642633,14.4207337 L139.467085,14.0673968 L139.404389,14.1726461 L138.890282,13.2178847 L139.128527,13.2554737 L139.322884,13.4283832 L139.247649,12.9246902 L139.247649,12.736745" id="Fill-313" fill="#FFFFFE"></path>
                <path d="M149.081452,14.1179941 L148.914516,14 L148.914516,14 L148.406452,14 L149.132258,14.519174 L148.529839,14.3382498 L148.529839,14.3854474 L148.812903,14.660767 L148,14.3539823 L148.914516,15.1878073 L148.341129,14.9754179 C149.139254,15.9949387 150.085565,16.8664412 151.142742,17.5555556 L150.946774,17.4690265 C150.903226,17.7050147 151.629032,18.4365782 151.984677,18.7826942 C152.340323,19.1288102 152.710484,19.6951819 153.109677,20.0884956 C153.109677,20.0884956 154.902419,21.7168142 155.591935,21.826942 C155.591935,21.7482793 155.591935,21.7246804 155.229032,21.4178958 L155.780645,21.4886922 L156.651613,22 L156.992742,21.8584071 L156.854839,21.4886922 L157,21.4886922 L153.233065,19.0737463 L151.745161,17.9095379 L152.31129,18.1061947 L152.681452,18.1061947 C152.323358,17.6218833 151.894252,17.2046539 151.41129,16.8711898 C150.851022,16.4472915 150.324211,15.9736868 149.83629,15.4552606 L150.424194,15.927237 C150.975806,16.3992134 151.077419,16.359882 151.11371,16.3441495 C150.678226,15.4867257 149.741935,15.3294002 149.154032,14.6922321 L149.154032,14.6529007 L149.879839,14.9439528 L149.589516,14.747296 C150.054032,14.747296 150.395161,15.1091445 150.801613,15.26647 C150.380645,14.8810226 149.821774,14.7394297 149.38629,14.3775811 L149.437097,14.3775811 L149.117742,14.0707965" id="Fill-314" fill="#FFFFFE"></path>
                <path d="M120.07856,9.85127077 C121.087426,9.74179505 122.090724,9.55494471 123.08347,9.29164811 C123.017185,9.23274046 123.002455,9.22292252 121.698854,9.29164811 C121.0781,9.37532504 120.45185,9.35222703 119.835516,9.22292252 C120.982436,8.93999412 122.145466,8.78889715 123.311784,8.77129722 C124.209822,8.76888807 125.107141,8.7033441 126,8.57493839 L125.94108,8.57493839 C125.94108,8.57493839 124.269231,8.39821544 122.928805,8.42766927 C122.295417,8.42766927 122.280687,8.42766927 122.045008,8.18222073 C121.42635,8.28040014 120.800327,8.3883975 120.181669,8.5062128 C119.413348,8.49063525 118.647215,8.61953706 117.905892,8.88911251 C117.964812,8.88911251 118.001637,8.94802016 118.745499,8.99710987 C118.009002,9.22292252 117.802782,9.33091988 117.736498,9.46837106 L117.736498,9.52727871 C117.051555,9.72363753 117.051555,9.72363753 117,9.83163489 C117.301964,10.0967193 119.062193,9.98872195 120.085925,9.91017842 M122.037643,8.17240279 L122.774141,8.01531573 L122.774141,8.01531573 C121.987932,7.97852333 121.200764,8.00803603 120.417349,8.1036772 C121.779869,8.01531573 121.963993,8.1036772 122.022913,8.18222073" id="Fill-315" fill="#FFFFFE"></path>
                <path d="M121.2211,12.7832168 L122.077441,12.6013986 L121.37037,11.993007 L121.409652,11.9300699 C122.27385,11.6923077 123.185185,11.6503497 124.057239,11.4755245 C123.723849,11.5353124 123.383529,11.5587947 123.043771,11.5454545 L123.043771,11.5034965 C123.681182,11.2934293 124.335003,11.1251481 125,11 C123.675943,11.0401784 122.359851,11.1994979 121.071829,11.4755245 L121.425365,11.4195804 L121.346801,11.4195804 L122.171717,11.3426573 L119.75982,11.7762238 C119.013468,11.8951049 118.974186,11.9160839 118.974186,11.9440559 L119.225589,11.9440559 C118.911336,12.2937063 118.180696,11.8671329 118,12.3986014 L118.738496,12.6573427 L119.107744,13 L119.162738,13 L119.264871,13 C119.93366,12.941676 120.595862,12.8340811 121.244669,12.6783217" id="Fill-316" fill="#FFFFFE"></path>
                <polyline id="Fill-317" fill="#FFFFFE" points="121.808081 11.415 121.919192 11.385 121.646465 11.415 122 11.345 122 11.335 121.414141 11.435 121.424242 11.435 120.252525 11.605 120 11.665 120.121212 11.665 120.474747 11.625 121.808081 11.415"></polyline>
                <path d="M7.07826087,97.8343337 L7,98 L7.08695652,97.6902761 L9,92 C8.13043478,94.3193277 7.66086957,95.9255702 7.49565217,96.5018007 C7.37391304,96.9051621 7.24347826,97.4453782 7.07826087,97.8343337" id="Fill-318" fill="#FFFFFE"></path>
                <path d="M6.25328944,108.851439 C5.93593746,107.224698 5.84259864,106.727019 6.41507673,103.228412 L6.30307015,103.971216 C6.60175437,103.012999 6.58930919,101.943361 7,101 L7,101.155989 C6.94399671,102.158774 6.56441884,105.954503 6.25951203,109 L6.22839909,108.821727" id="Fill-319" fill="#FFFFFE"></path>
                <path d="M149.158309,11.7142857 L150,12 C149.108907,11.8970921 148.230956,11.7002499 147.380531,11.4126984 L147.970501,11.6111111 C147.388397,11.7222222 146.900688,11.3333333 146.342183,11.2857143 L146.633235,11.4206349 C146.269016,11.37828 145.911943,11.2875474 145.571288,11.1507937 C145.099312,11 144.635202,10.8412698 144.163225,10.7063492 L144.949853,11.0079365 L142.951819,10.3888889 L142.999017,10.3888889 L142.291052,10.1269841 L142.873156,10.2857143 L142,10 C142,10 147.160275,11.1428571 149.126844,11.7301587" id="Fill-320" fill="#FFFFFE"></path>
                <path d="M120.563528,10.7192982 C119.71151,10.8187135 118.859492,10.9356725 118,11 C118.658229,10.9244487 119.304514,10.7950861 119.928251,10.6140351 C119.307922,10.4385965 118.695067,10.8654971 118.074738,10.6140351 L118.074738,10.5847953 C118.667312,10.4412373 119.275118,10.3394668 119.890882,10.2807018 L118.919283,10.3859649 L119.838565,10.2280702 L120.15994,10.1461988 L119.823617,10.1461988 C120.384155,10.0935673 120.944694,10.0116959 121.505232,10 L121.505232,10.0292398 C121.983558,10.1812865 122.484305,9.88304094 123,10.0643275 C122.962631,10.0935673 122.925262,10.122807 122.312407,10.2339181 C121.699552,10.3450292 121.467862,10.4093567 121.423019,10.4561404 L121.602392,10.4912281 C121.565022,10.5321637 121.550075,10.5380117 120.660688,10.7192982 L120.660688,10.7192982" id="Fill-321" fill="#FFFFFE"></path>
                <path d="M260.413086,155.943985 C260.413086,155.943985 259.471029,159.763208 259.075365,160 L259,159.893062 L259.075365,159.931254 C259.932637,155.982177 260.017422,151.956715 260.95948,148 C261.110209,153.033736 260.818171,154.316996 260.450769,155.943985" id="Fill-322" fill="#FFFFFE"></path>
                <path d="M156.095602,9.109006 C156.738162,9.11061473 157.378002,9.21577959 158,9.42201503 L158,9.42201503 L157.342256,9.64699028 L157.204589,9.94043624 C156.318486,10.0198546 155.429124,10.0198546 154.543021,9.94043624 L154.58891,9.94043624 L155.108987,9.85240245 L155.193117,9.79371326 L154.894837,9.65677181 L154.933078,9.65677181 L154.481836,9.48070423 L154,9.30463665 C154.038241,9.30463665 154.114723,9.24594745 154.856597,9.30463665 L155.231358,9.30463665 L156.18738,9.14813213 C155.941476,9.04047893 155.682341,8.99076654 155.422562,9.00140915 L156.110899,9.06987987" id="Fill-323" fill="#FFFFFE"></path>
                <path d="M127.91195,10.6239755 C127.378557,10.7438984 126.836172,10.7975187 126.293501,10.7839755 L126.561845,10.6639755 L126.444444,10.6639755 L126,10.7339755 L126.989518,10.5239755 L126.989518,10.5239755 L126.821803,10.5239755 L130,10.2139755 C129.438155,10.4339755 128.81761,10.2939755 128.264151,10.5739755 L128.264151,10.5739755 L128.389937,10.5739755 L127.903564,10.6439755" id="Fill-324" fill="#FFFFFE"></path>
                <path d="M148.289206,11.2183099 C148.823133,11.3124318 149.346513,11.4467465 149.85336,11.6197183 L148.90835,11.4225352 L149.193483,11.5140845 L148.95723,11.5140845 C148.533605,11.4366197 148.142566,11.3450704 147.686354,11.2535211 L149.120163,11.5774648 L148.142566,11.4295775 L148.468432,11.5422535 L149.421589,11.7816901 L150,12 L146,11 L146.301426,11.0352113 L146.594705,11.0352113 L147.148676,11.0915493 L147.148676,11.0492958 C147.528197,11.0785767 147.90424,11.1351098 148.272912,11.2183099" id="Fill-325" fill="#FFFFFE"></path>
                <path d="M127.347107,9.6 L129,9.4 L129,9.4 C128.479339,9.4 127.966942,9.4 127.446281,9.4 L127.446281,9.4 L124,9.49 C124.438017,9.72 124.892562,9.49 125.330579,9.59 L125.239669,9.59 C125.926948,9.51414065 126.618507,9.51414065 127.305785,9.59" id="Fill-326" fill="#FFFFFE"></path>
                <path d="M136.968587,91.0738611 L136.444171,93.8443678 C136.390317,94.1464838 136.261115,94.4342627 136.065903,94.6869055 C135.814732,94.907158 135.467642,95.0203 135.114625,94.9969965 C134.761608,94.9736929 134.437433,94.816239 134.226148,94.5654586 L134.011224,93.8899104 L134.011224,93.6166549 C134.011224,92.910745 134.200358,92.220016 134.208954,91.514106 C134.208954,91.0055473 133.90806,90.5197598 134.028418,89.9960202 C134.159549,89.3631651 134.826906,88.9304041 135.550084,89.0092644 C137.054557,89.0775783 137.04596,90.4666268 136.977184,91.0662707" id="Fill-327" fill="#FFFFFE"></path>
                <path d="M125.938291,10.7044665 C125.574367,10.7744665 125.19462,10.7944665 124.830696,10.8344665 L124.981013,10.8344665 L124,10.9444665 C124,10.9444665 124.05538,10.8644665 124.791139,10.6744665 C125.360759,10.6144665 125.922468,10.4944665 126.492089,10.4044665 C128.675633,10.0144665 128.675633,10.0144665 129,10.1044665 L125.954114,10.7444665" id="Fill-328" fill="#FFFFFE"></path>
                <polyline id="Fill-329" fill="#FFFFFE" points="141.545 11.5 141.225 11.31 141.775 11.69 141.725 11.64 141.545 11.5"></polyline>
                <path d="M141.552,11.7086093 C141.2,11.5298013 140.848,11.3576159 140.48,11.205298 L140.728,11.3377483 L140,11 L140.592,11.3245033 L140.32,11.205298 L141.048,11.615894 L141.048,11.615894 L141.048,11.615894 L141.64,11.9006623 L141.584,11.8543046 L142,12 L142,12 L141.568,11.7549669" id="Fill-330" fill="#FFFFFE"></path>
                <path d="M103.801822,17.3510426 C101.970387,18.1089828 101.751708,18.066875 101,17.8984438 C103.432802,16.8962785 103.876993,16.9468079 104,17.0562881 L104,17.2331408 L103.788155,17.3257779" id="Fill-331" fill="#FFFFFE"></path>
                <polyline id="Fill-332" fill="#FFFFFE" points="156.410112 4.3 156.747191 4.38 156.747191 4.39 156.668539 4.44 156.893258 4.48 156.882022 4.49 157 4.63 156.94382 4.72 156.679775 4.64 156.016854 4.58 156 4.57 156 4.56 156.050562 4.52 156.348315 4.4 156.398876 4.34 156.314607 4.28 156.410112 4.3"></polyline>
                <path d="M6.66114015,111.272122 C6.42114015,112.080435 6.31114015,112.041944 6.23114015,111.957264 C5.79114015,111.372199 6.46114015,108.939563 6.71114015,109.001149 L6.86114015,109.247492 C6.97548273,109.925787 6.90740606,110.614938 6.66114015,111.272122" id="Fill-333" fill="#FFFFFE"></path>
                <path d="M156.499002,9.295 L156.235529,9.295 L157.281437,9.455 C156.736292,9.49338824 156.189856,9.49338824 155.644711,9.455 C155.093812,9.455 154.550898,9.365 154,9.455 L154,9.455 L156.235529,9.705 L155.868263,9.615 C156.437038,9.50428379 157.016055,9.50428379 157.58483,9.615 L157.321357,9.615 L158,9.525 C157.494984,9.40304062 156.981334,9.34607772 156.467066,9.355" id="Fill-334" fill="#FFFFFE"></path>
                <path d="M170.798061,105.314086 C170.381212,105.837504 169.778384,106.08392 169.182553,105.974451 C168.003231,105.73167 167.138934,104.634299 166,104.284694 C166.904685,104.556609 167.752827,104.109891 168.625202,104.02249 C169.515377,103.897397 170.400709,104.299259 171,105.100439 L170.830372,105.314086" id="Fill-335" fill="#FFFFFE"></path>
                <path d="M135.970779,85.5067752 C135.863274,86.895508 134.865006,87.2565786 134.434984,86.833015 C134.015585,86.2756321 133.89179,85.5785472 134.097108,84.930451 C134.38891,84.1805353 135.533078,84 135.548436,84 C135.717373,84 136.093643,84.083324 135.978458,85.5067752" id="Fill-336" fill="#FFFFFE"></path>
                <path d="M141.692015,11.277592 C140.855513,10.8561873 139.022814,10.006689 139,10 C139.828897,10.4013378 140.657795,10.8160535 141.479087,11.2374582 L141.220532,11.1170569 L141.676806,11.3779264 L141.380228,11.2107023 L142.095057,11.5719064 L143,12 L141.692015,11.277592" id="Fill-337" fill="#FFFFFE"></path>
                <path d="M141.056075,11 L141,11 L141.990654,11.5241935 L141.990654,11.5241935 L141.056075,11.0403226 M141.364486,11.1532258 L141.242991,11.0967742 L141.242991,11.0967742 L141.990654,11.5322581 L142.037383,11.5322581 L142.037383,11.5322581 L141.364486,11.1290323 M143,12 L142.17757,11.6048387 L142.17757,11.6048387 L142.971963,11.983871" id="Fill-338" fill="#FFFFFE"></path>
                <path d="M161.441077,9.415 L161.279461,9.365 L161.279461,9.365 C160.853991,9.42685656 160.42547,9.42685656 160,9.365 L160.074074,9.365 L160.579125,9.635 L160.579125,9.635 L160.579125,9.635 L160.653199,9.525 L160.653199,9.525 L160.720539,9.525 L161.393939,9.525 L162,9.525 L161.488215,9.375" id="Fill-339" fill="#FFFFFE"></path>
                <path d="M185.928,103.471121 C185.464,104.242012 185.088,104.845048 184.48,104.975602 C184.157419,105.02913 183.820931,104.993971 183.528,104.876132 L183,104.055506 C183.704,103.365435 183.96,103.110543 184.6,103.004857 C185.093521,102.976255 185.585451,103.074557 186,103.284615 L185.896,103.446254" id="Fill-340" fill="#FFFFFE"></path>
                <path d="M140.891304,11.6825397 L140,11 L140.043478,11 L140.282609,11.2301587 L140.282609,11.2301587 L140.557971,11.452381 L140.775362,11.6111111 L140.942029,11.7142857 L140.942029,11.7142857 L140.891304,11.6666667 M140.318841,11.2777778 L140.282609,11.2777778 L140.282609,11.2777778 L140.869565,11.8412698 L140.789855,11.7619048 L140.318841,11.3015873 M140.753623,11.7698413 L140.275362,11.3571429 L141,12 L140.768116,11.7698413" id="Fill-341" fill="#FFFFFE"></path>
                <polyline id="Fill-342" fill="#FFFFFE" points="155.069307 2.33 155.128713 2.34 155.19802 2.35 155.257426 2.36 155.316832 2.37 155.376238 2.39 155.445545 2.4 155.50495 2.41 155.564356 2.42 155.623762 2.43 155.683168 2.44 155.742574 2.45 155.80198 2.46 155.861386 2.47 155.930693 2.48 155.980198 2.5 156.049505 2.5 156.108911 2.52 156.158416 2.53 156.217822 2.54 156.287129 2.55 156.346535 2.56 156.405941 2.57 156.475248 2.58 156.534653 2.59 156.594059 2.61 156.663366 2.62 156.732673 2.63 156.792079 2.64 156.861386 2.65 156.930693 2.66 157 2.68 155.712871 2.46 155 2.32 155.069307 2.33"></polyline>
                <path d="M157.681818,23.3821656 L158,23.7961783 L158,23.7961783 L157.875,23.7961783 L157.931818,23.910828 L157.704545,24 L157.670455,23.9681529 C157.470173,23.6948167 157.245524,23.4451147 157,23.2229299 L157,23.2229299 L157.170455,23.1719745 L157.022727,23 L157.022727,23 L157.681818,23.4203822" id="Fill-343" fill="#FFFFFE"></path>
                <path d="M11.0176471,85.9194631 C11.1823529,85.3892617 11.6058824,84.033557 12,83 C11.6529412,83.9932886 11.3235294,85.0134228 11,86 L11,85.9194631" id="Fill-344" fill="#FFFFFE"></path>
                <path d="M58.5876885,43.9895833 C57.3982397,44.0364583 58.3802974,43.109375 58.3924969,43.0989583 L58.9719719,43 C59.0268696,43.078125 59.0085704,43.1666667 58.8499772,43.4791667 C58.7580993,43.645556 58.6885279,43.8202748 58.6425861,44 L58.5876885,44" id="Fill-345" fill="#FFFFFE"></path>
                <path d="M159.982063,21.7976803 C159.533632,21.9576803 159.533632,21.9576803 159.336323,21.8876803 L158,21.0676803 C158.719437,21.0669053 159.420241,21.3226985 160,21.7976803 L160,21.7976803" id="Fill-346" fill="#FFFFFE"></path>
                <polyline id="Fill-347" fill="#FFFFFE" points="160.54 21.525 160.46 21.485 160.49 21.475 160.54 21.525"></polyline>
                <path d="M87.1375465,20.7377634 C86.786185,20.9681407 86.3885121,21.049587 86,20.9707413 C86,20.9707413 86.3717472,20.3882965 88,20 L87.3754647,20.5533225 L87.1375465,20.6892263" id="Fill-348" fill="#FFFFFE"></path>
                <path d="M88.7383178,19.8033692 L87,19.8033692 L87.5327103,19.4933692 C88.5233645,19.1633692 88.9065421,19.0933692 89,19.2733692 L88.8971963,19.8233692 L88.7383178,19.8233692" id="Fill-349" fill="#FFFFFE"></path>
            </g>
            <path d="M140.790804,211.580712 C153.296005,164.406709 204.293546,111.147653 313,95 C313,215.29111 258.983452,331.055534 147.990544,266.494605 C200.773838,229.390623 245.910954,185.360565 283.401891,134.404429 C234.565012,192.286641 187.70134,234.832541 142.810875,262.042128 C107.786446,243.203199 71.7754137,216.735692 34.7777778,182.639606 C55.4964539,207.870314 90.1237746,236.06934 138.65974,267.236685 C41.4373522,322.150579 11.8392435,194.51288 0,153.04547 C72.3155792,150.425929 123.32792,176.754914 140.790804,211.580712 Z" id="Path-2-Copy-2" fill="#81CF5C"></path>
            <path d="M390.463686,265.387801 L417.147332,265.387801 L417.147332,271.489559 L383,271.489559 L383,214.902552 L390.463686,214.902552 L390.463686,265.387801 Z M423.00116,249.642919 C423.00116,245.587305 423.80593,241.939858 425.415493,238.700469 C427.025056,235.461079 429.265534,232.96143 432.136995,231.201447 C435.008456,229.441463 438.285477,228.561485 441.968158,228.561485 C447.659574,228.561485 452.262855,230.512742 455.778141,234.415313 C459.293427,238.317885 461.051044,243.508483 461.051044,249.987262 L461.051044,250.484646 C461.051044,254.514753 460.272027,258.130316 458.71397,261.331445 C457.155913,264.532574 454.928311,267.025847 452.031097,268.811337 C449.133883,270.596827 445.805356,271.489559 442.045417,271.489559 C436.379754,271.489559 431.789349,269.538303 428.274063,265.635731 C424.758777,261.733159 423.00116,256.568068 423.00116,250.140303 L423.00116,249.642919 Z M430.806265,250.463904 C430.806265,255.038347 431.867697,258.710553 433.990595,261.480633 C436.113492,264.250712 438.954572,265.635731 442.513921,265.635731 C446.098694,265.635731 448.94613,264.231652 451.056316,261.423452 C453.166501,258.615253 454.221578,254.682561 454.221578,249.62526 C454.221578,245.101644 453.147433,241.435792 450.999112,238.627592 C448.850791,235.819392 445.996999,234.415313 442.43765,234.415313 C438.954573,234.415313 436.145272,235.800332 434.009662,238.570412 C431.874053,241.340491 430.806265,245.304949 430.806265,250.463904 Z M496.971014,267.517951 C494.167758,270.816132 490.053783,272.465197 484.628964,272.465197 C480.138563,272.465197 476.718902,271.160228 474.369878,268.55025 C472.020853,265.940273 470.833381,262.077304 470.807425,256.961228 L470.807425,229.537123 L478.010198,229.537123 L478.010198,256.766455 C478.010198,263.155057 480.605767,266.34931 485.796981,266.34931 C491.299668,266.34931 494.959419,264.297717 496.776344,260.194468 L496.776344,229.537123 L503.979118,229.537123 L503.979118,271.686103 L497.12675,271.686103 L496.971014,267.517951 Z M523.491879,271.489559 L516.662413,271.489559 L516.662413,229.537123 L523.491879,229.537123 L523.491879,271.489559 Z M515.686775,217.866283 C515.686775,216.761781 516.054306,215.829105 516.78938,215.068227 C517.524453,214.307348 518.613682,213.926914 520.057099,213.926914 C521.500516,213.926914 522.596427,214.307348 523.344865,215.068227 C524.093304,215.829105 524.467517,216.761781 524.467517,217.866283 C524.467517,218.970784 524.093304,219.891188 523.344865,220.627523 C522.596427,221.363857 521.500516,221.732019 520.057099,221.732019 C518.613682,221.732019 517.524453,221.363857 516.78938,220.627523 C516.054306,219.891188 515.686775,218.970784 515.686775,217.866283 Z M559.284182,259.743642 C559.284182,257.830617 558.557755,256.344856 557.104879,255.286315 C555.652003,254.227775 553.119151,253.315913 549.506247,252.550703 C545.893343,251.785493 543.026206,250.867254 540.90475,249.79596 C538.783293,248.724666 537.214725,247.449335 536.198998,245.969929 C535.18327,244.490522 534.675414,242.730565 534.675414,240.690005 C534.675414,237.297573 536.12184,234.428078 539.014735,232.081434 C541.907629,229.73479 545.60405,228.561485 550.104109,228.561485 C554.835599,228.561485 558.673448,229.773049 561.617772,232.196215 C564.562096,234.61938 566.034236,237.718435 566.034236,241.493472 L558.859893,241.493472 C558.859893,239.554939 558.030609,237.884256 556.372016,236.48137 C554.713423,235.078485 552.624142,234.377053 550.104109,234.377053 C547.506932,234.377053 545.475508,234.938199 544.009774,236.060507 C542.544041,237.182815 541.811185,238.649446 541.811185,240.460443 C541.811185,242.169412 542.492613,243.457497 543.855488,244.324735 C545.218362,245.191973 547.6805,246.020938 551.241975,246.811656 C554.80345,247.602373 557.689873,248.546118 559.90133,249.642919 C562.112787,250.73972 563.75207,252.059688 564.819227,253.602862 C565.886383,255.146035 566.419954,257.027149 566.419954,259.246258 C566.419954,262.944774 564.928528,265.909919 561.945632,268.141782 C558.962736,270.373644 555.092744,271.489559 550.335539,271.489559 C546.992639,271.489559 544.035502,270.902907 541.46404,269.729585 C538.892578,268.556262 536.880439,266.917462 535.427563,264.813134 C533.974687,262.708806 533.24826,260.43234 533.24826,257.983668 L540.384031,257.983668 C540.512604,260.355819 541.47046,262.236933 543.257626,263.627064 C545.044792,265.017196 547.404073,265.712251 550.335539,265.712251 C553.035574,265.712251 555.201999,265.170236 556.834877,264.086188 C558.467755,263.00214 559.284182,261.55464 559.284182,259.743642 Z M598.616009,271.489559 L598.616009,214.902552 L614.609802,214.902552 C619.538976,214.902552 623.897339,215.990753 627.68502,218.167187 C631.472701,220.343621 634.397733,223.439812 636.460203,227.455851 C638.522673,231.47189 639.566864,236.083789 639.592807,241.291685 L639.592807,244.906103 C639.592807,250.243548 638.561588,254.920221 636.499118,258.93626 C634.436647,262.9523 631.492158,266.035535 627.665563,268.186059 C623.838967,270.336584 619.38332,271.437739 614.298488,271.489559 L598.616009,271.489559 Z M605.445476,220.756381 L605.445476,264.660093 L613.375625,264.660093 C619.185862,264.660093 623.707048,262.89011 626.93932,259.350091 C630.171591,255.810072 631.787703,250.769468 631.787703,244.228129 L631.787703,240.957475 C631.787703,234.595702 630.263193,229.651293 627.214127,226.1241 C624.165061,222.596907 619.840163,220.807685 614.239304,220.756381 L605.445476,220.756381 Z M669.837587,235.807058 C668.740688,235.625269 667.552399,235.534375 666.272684,235.534375 C661.519456,235.534375 658.2941,237.547015 656.596518,241.572353 L656.596518,271.489559 L649.349188,271.489559 L649.349188,229.340579 L656.400645,229.340579 L656.518169,234.209916 C658.894783,230.444276 662.263778,228.561485 666.625257,228.561485 C668.035555,228.561485 669.106321,228.743272 669.837587,229.106851 L669.837587,235.807058 Z M693.692894,271.489559 C688.081353,271.489559 683.515667,269.646706 679.995701,265.960944 C676.475734,262.275181 674.715777,257.346027 674.715777,251.173332 L674.715777,249.872481 C674.715777,245.765853 675.500106,242.099276 677.068787,238.87264 C678.637467,235.646004 680.831037,233.120848 683.649561,231.297097 C686.468085,229.473347 689.522503,228.561485 692.812907,228.561485 C698.194885,228.561485 702.377971,230.334195 705.36229,233.879669 C708.34661,237.425142 709.838747,242.50096 709.838747,249.107274 L709.838747,252.053319 L681.793936,252.053319 C681.895964,256.13444 683.088398,259.43117 685.371275,261.94361 C687.654152,264.45605 690.55553,265.712251 694.075497,265.712251 C696.575183,265.712251 698.692233,265.202119 700.426709,264.181839 C702.161186,263.161559 703.67883,261.809708 704.979687,260.126245 L709.303103,263.493153 C705.83415,268.824117 700.630799,271.489559 693.692894,271.489559 Z M692.712879,234.415313 C689.755949,234.415313 687.274277,235.441297 685.267789,237.493294 C683.261301,239.545291 682.020465,242.421821 681.545244,246.12297 L703.009281,246.12297 L703.009281,245.594237 C702.798071,242.044156 701.794842,239.293513 699.999563,237.342227 C698.204284,235.390942 695.775414,234.415313 692.712879,234.415313 Z M732.221281,260.79094 L742.087712,229.537123 L749.839907,229.537123 L732.808568,277.670313 C730.172287,284.607076 725.983011,288.075406 720.240615,288.075406 L718.870277,287.959794 L716.168754,287.458808 L716.168754,281.678201 L718.12638,281.83235 C720.579949,281.83235 722.491877,281.344215 723.862221,280.36793 C725.232566,279.391644 726.361452,277.606097 727.248913,275.011234 L728.854166,270.772122 L713.741299,229.537123 L721.650105,229.537123 L732.221281,260.79094 Z M760.375008,271.489559 L760.375008,235.009343 L753.742459,235.009343 L753.742459,229.453783 L760.375008,229.453783 L760.375008,225.141426 C760.375008,220.634795 761.577388,217.151273 763.982184,214.690757 C766.386979,212.23024 769.787258,211 774.183121,211 C775.838034,211 777.479994,211.220148 779.109049,211.660451 L778.72118,217.487962 C777.505854,217.25486 776.212972,217.138311 774.842497,217.138311 C772.515275,217.138311 770.71817,217.818181 769.451127,219.17794 C768.184084,220.537699 767.550572,222.486658 767.550572,225.024875 L767.550572,229.453783 L776.510331,229.453783 L776.510331,235.009343 L767.550572,235.009343 L767.550572,271.489559 L760.375008,271.489559 Z M811.126466,267.517951 C808.323211,270.816132 804.209235,272.465197 798.784416,272.465197 C794.294016,272.465197 790.874355,271.160228 788.52533,268.55025 C786.176306,265.940273 784.988833,262.077304 784.962877,256.961228 L784.962877,229.537123 L792.165651,229.537123 L792.165651,256.766455 C792.165651,263.155057 794.761219,266.34931 799.952433,266.34931 C805.455121,266.34931 809.114872,264.297717 810.931797,260.194468 L810.931797,229.537123 L818.134571,229.537123 L818.134571,271.686103 L811.282202,271.686103 L811.126466,267.517951 Z M853.926874,259.743642 C853.926874,257.830617 853.200447,256.344856 851.747571,255.286315 C850.294695,254.227775 847.761842,253.315913 844.148938,252.550703 C840.536034,251.785493 837.668897,250.867254 835.547441,249.79596 C833.425985,248.724666 831.857417,247.449335 830.841689,245.969929 C829.825962,244.490522 829.318106,242.730565 829.318106,240.690005 C829.318106,237.297573 830.764531,234.428078 833.657426,232.081434 C836.550321,229.73479 840.246742,228.561485 844.7468,228.561485 C849.47829,228.561485 853.31614,229.773049 856.260464,232.196215 C859.204788,234.61938 860.676928,237.718435 860.676928,241.493472 L853.502585,241.493472 C853.502585,239.554939 852.673301,237.884256 851.014708,236.48137 C849.356115,235.078485 847.266833,234.377053 844.7468,234.377053 C842.149624,234.377053 840.118199,234.938199 838.652466,236.060507 C837.186733,237.182815 836.453877,238.649446 836.453877,240.460443 C836.453877,242.169412 837.135304,243.457497 838.498179,244.324735 C839.861054,245.191973 842.323192,246.020938 845.884667,246.811656 C849.446141,247.602373 852.332564,248.546118 854.544021,249.642919 C856.755479,250.73972 858.394761,252.059688 859.461918,253.602862 C860.529075,255.146035 861.062645,257.027149 861.062645,259.246258 C861.062645,262.944774 859.571219,265.909919 856.588324,268.141782 C853.605428,270.373644 849.735435,271.489559 844.978231,271.489559 C841.63533,271.489559 838.678193,270.902907 836.106731,269.729585 C833.535269,268.556262 831.52313,266.917462 830.070254,264.813134 C828.617378,262.708806 827.890951,260.43234 827.890951,257.983668 L835.026723,257.983668 C835.155296,260.355819 836.113151,262.236933 837.900317,263.627064 C839.687483,265.017196 842.046764,265.712251 844.978231,265.712251 C847.678266,265.712251 849.84469,265.170236 851.477568,264.086188 C853.110447,263.00214 853.926874,261.55464 853.926874,259.743642 Z M934.235499,252.943306 C933.530529,258.868902 931.304687,263.44129 927.557905,266.660607 C923.811123,269.879925 918.830719,271.489559 912.616543,271.489559 C905.880168,271.489559 900.482011,269.116791 896.421909,264.371184 C892.361807,259.625577 890.331787,253.276819 890.331787,245.324721 L890.331787,239.937842 C890.331787,234.7305 891.278259,230.151699 893.171233,226.201302 C895.064206,222.250904 897.746966,219.217609 901.219594,217.101325 C904.692221,214.98504 908.713098,213.926914 913.282344,213.926914 C919.33986,213.926914 924.196243,215.587852 927.851641,218.909777 C931.507038,222.231702 933.634969,226.829741 934.235499,232.704034 L926.676697,232.704034 C926.023948,228.240598 924.607503,225.008503 922.427319,223.007652 C920.247136,221.006802 917.198841,220.006391 913.282344,220.006391 C908.478108,220.006391 904.7118,221.750696 901.983307,225.239359 C899.254814,228.728022 897.890588,233.691596 897.890588,240.13023 L897.890588,245.555587 C897.890588,251.635094 899.183013,256.470411 901.767901,260.061681 C904.352789,263.652951 907.968967,265.44856 912.616543,265.44856 C916.79414,265.44856 919.999092,264.518691 922.231495,262.658926 C924.463899,260.799161 925.945618,257.560653 926.676697,252.943306 L934.235499,252.943306 Z M942.040603,249.642919 C942.040603,245.587305 942.845373,241.939858 944.454936,238.700469 C946.064499,235.461079 948.304978,232.96143 951.176438,231.201447 C954.047899,229.441463 957.324921,228.561485 961.007601,228.561485 C966.699017,228.561485 971.302298,230.512742 974.817585,234.415313 C978.332871,238.317885 980.090487,243.508483 980.090487,249.987262 L980.090487,250.484646 C980.090487,254.514753 979.31147,258.130316 977.753413,261.331445 C976.195356,264.532574 973.967754,267.025847 971.07054,268.811337 C968.173326,270.596827 964.8448,271.489559 961.08486,271.489559 C955.419197,271.489559 950.828792,269.538303 947.313506,265.635731 C943.79822,261.733159 942.040603,256.568068 942.040603,250.140303 L942.040603,249.642919 Z M948.87007,250.463904 C948.87007,255.038347 949.931502,258.710553 952.0544,261.480633 C954.177297,264.250712 957.018377,265.635731 960.577726,265.635731 C964.162499,265.635731 967.009935,264.231652 969.120121,261.423452 C971.230306,258.615253 972.285383,254.682561 972.285383,249.62526 C972.285383,245.101644 971.211238,241.435792 969.062917,238.627592 C966.914596,235.819392 964.060804,234.415313 960.501455,234.415313 C957.018378,234.415313 954.209077,235.800332 952.073468,238.570412 C949.937858,241.340491 948.87007,245.304949 948.87007,250.463904 Z M996.599801,229.340579 L996.792742,234.015142 C999.854087,230.379353 1003.98298,228.561485 1009.17955,228.561485 C1015.01926,228.561485 1018.9938,230.820835 1021.1033,235.339602 C1022.49248,233.313948 1024.29968,231.677867 1026.52494,230.43131 C1028.7502,229.184754 1031.38061,228.561485 1034.41623,228.561485 C1043.57454,228.561485 1048.2308,233.456743 1048.38515,243.247405 L1048.38515,271.489559 L1041.24634,271.489559 L1041.24634,243.675907 C1041.24634,240.663395 1040.56462,238.410538 1039.20116,236.917267 C1037.83771,235.423996 1035.54816,234.677372 1032.33246,234.677372 C1029.68273,234.677372 1027.48322,235.475935 1025.73388,237.073086 C1023.98454,238.670236 1022.9684,240.819216 1022.68542,243.520088 L1022.68542,271.489559 L1015.50801,271.489559 L1015.50801,243.87068 C1015.50801,237.741777 1012.53675,234.677372 1006.59414,234.677372 C1001.91208,234.677372 998.709297,236.690011 996.985683,240.71535 L996.985683,271.489559 L989.846868,271.489559 L989.846868,229.340579 L996.599801,229.340579 Z M1095.21578,250.657951 C1095.21578,257.007986 1093.76835,262.123929 1090.87344,266.005933 C1087.97854,269.887938 1084.05894,271.828912 1079.11455,271.828912 C1074.06768,271.828912 1070.09685,270.222146 1067.20194,267.008565 L1067.20194,287.099768 L1060.09281,287.099768 L1060.09281,229.33274 L1066.5871,229.33274 L1066.93295,233.960273 C1069.82785,230.361063 1073.84992,228.561485 1078.99926,228.561485 C1083.9949,228.561485 1087.94651,230.451042 1090.85423,234.230212 C1093.76194,238.009382 1095.21578,243.26672 1095.21578,250.002384 L1095.21578,250.657951 Z M1088.38631,249.56527 C1088.38631,244.88602 1087.36047,241.191257 1085.30875,238.480871 C1083.25703,235.770486 1080.44253,234.415313 1076.86517,234.415313 C1072.44608,234.415313 1069.13182,236.320225 1066.92227,240.130107 L1066.92227,259.959291 C1069.10551,263.743603 1072.44608,265.635731 1076.94409,265.635731 C1080.44253,265.635731 1083.22415,264.286951 1085.28902,261.58935 C1087.35389,258.891749 1088.38631,254.883763 1088.38631,249.56527 Z M1130.72551,270.724353 C1130.31762,269.908129 1129.98622,268.454251 1129.73129,266.362677 C1126.44273,269.780615 1122.51691,271.489559 1117.95372,271.489559 C1113.87488,271.489559 1110.52901,270.335385 1107.91601,268.027001 C1105.303,265.718617 1103.99652,262.791732 1103.99652,259.246258 C1103.99652,254.935574 1105.6344,251.58783 1108.91022,249.202925 C1112.18603,246.81802 1116.79377,245.625586 1122.73358,245.625586 L1129.61658,245.625586 L1129.61658,242.373459 C1129.61658,239.899279 1128.8773,237.928893 1127.39872,236.46224 C1125.92014,234.995587 1123.74055,234.262272 1120.85987,234.262272 C1118.33609,234.262272 1116.22023,234.899938 1114.51222,236.175288 C1112.8042,237.450638 1111.95021,238.993789 1111.95021,240.804786 L1104.83778,240.804786 C1104.83778,238.738719 1105.57068,236.742825 1107.03651,234.817047 C1108.50234,232.891268 1110.49075,231.367247 1113.00178,230.244939 C1115.51281,229.122631 1118.27236,228.561485 1121.2805,228.561485 C1126.04764,228.561485 1129.78227,229.75392 1132.4845,232.138824 C1135.18672,234.523729 1136.5888,237.807707 1136.69077,241.990856 L1136.69077,261.044493 C1136.69077,264.845037 1137.17513,267.867571 1138.14385,270.112188 L1138.14385,270.724353 L1130.72551,270.724353 Z M1118.73771,265.635731 C1120.95453,265.635731 1123.05666,265.064074 1125.04415,263.920742 C1127.03165,262.777411 1128.47128,261.291102 1129.36311,259.461771 L1129.36311,251.00116 L1123.82108,251.00116 C1115.15764,251.00116 1110.82599,253.529155 1110.82599,258.585222 C1110.82599,260.795663 1111.56492,262.523338 1113.0428,263.768299 C1114.52068,265.01326 1116.41896,265.635731 1118.73771,265.635731 Z M1155.69731,229.340579 L1155.93119,234.638417 C1159.15352,230.587109 1163.36329,228.561485 1168.5606,228.561485 C1177.47399,228.561485 1181.9696,233.58659 1182.04756,243.636952 L1182.04756,271.489559 L1174.83633,271.489559 L1174.83633,243.597997 C1174.81034,240.559516 1174.11521,238.313151 1172.75091,236.858835 C1171.38662,235.404519 1169.26225,234.677372 1166.37774,234.677372 C1164.03895,234.677372 1161.98604,235.300641 1160.21895,236.547197 C1158.45187,237.793754 1157.0746,239.429835 1156.08711,241.455489 L1156.08711,271.489559 L1148.87587,271.489559 L1148.87587,229.340579 L1155.69731,229.340579 Z M1206.38137,260.79094 L1216.2478,229.537123 L1224,229.537123 L1206.96866,277.670313 C1204.33238,284.607076 1200.1431,288.075406 1194.40071,288.075406 L1193.03037,287.959794 L1190.32885,287.458808 L1190.32885,281.678201 L1192.28647,281.83235 C1194.74004,281.83235 1196.65197,281.344215 1198.02231,280.36793 C1199.39266,279.391644 1200.52154,277.606097 1201.40901,275.011234 L1203.01426,270.772122 L1187.90139,229.537123 L1195.8102,229.537123 L1206.38137,260.79094 Z" id="LouisDreyfusCompany" fill="#039100" fill-rule="nonzero"></path>
            <g id="ATLAS" transform="translate(383.000000, 0.000000)" fill-rule="nonzero">
                <g id="A">
                    <use fill="#000000" xlink:href="#path-1"></use>
                    <use fill="#185B9E" xlink:href="#path-1"></use>
                </g>
                <g id="t">
                    <use fill="#000000" xlink:href="#path-2"></use>
                    <use fill="#185B9E" xlink:href="#path-2"></use>
                </g>
                <g id="l">
                    <use fill="#000000" xlink:href="#path-3"></use>
                    <use fill="#185B9E" xlink:href="#path-3"></use>
                </g>
                <g id="as">
                    <use fill="#000000" xlink:href="#path-4"></use>
                    <use fill="#185B9E" xlink:href="#path-4"></use>
                </g>
            </g>
        </g>
    </g>
</svg>