<?xml version="1.0" encoding="UTF-8"?>
<svg width="841px" height="289px" viewBox="0 0 841 289" version="1.1" xmlns="http://www.w3.org/2000/svg" xmlns:xlink="http://www.w3.org/1999/xlink">
    <!-- Generator: Sketch 53.2 (72643) - https://sketchapp.com -->
    <title>Group</title>
    <desc>Created with Sketch.</desc>
    <defs>
        <path d="M177.20118,194 L109.0979,194 L109.0979,185.48709 L121.18074,184.38865 C129.14443,183.56482 130.51748,180.54411 127.77138,173.40425 C123.37762,160.77219 114.04088,133.86041 110.74556,125.07289 L52.80285,125.07289 C47.03604,143.47176 41.54384,158.3007 37.42469,173.95347 C35.22781,180.54411 36.05164,183.29021 43.74072,184.11404 L57.19661,185.48709 L57.19661,194 L0.07773,194 L0.07773,185.48709 C16.27972,184.66326 18.75121,181.64255 24.24341,167.63744 C42.91689,119.03147 61.59037,63.83486 79.16541,13.58123 L100.03577,13.58123 C114.5901,56.42039 141.22727,131.93814 154.95777,170.10893 C159.62614,183.29021 162.37224,184.11404 177.20118,185.48709 L177.20118,194 Z M107.45024,115.18693 C101.68343,96.51345 88.22754,57.24422 82.18612,40.2184 L81.36229,40.2184 C73.67321,62.46181 64.33647,89.6482 56.37278,115.18693 L107.45024,115.18693 Z" id="path-1"></path>
        <path d="M253.81839,78.93841 L221.1398,78.93841 L221.1398,156.92765 C221.1398,176.42496 229.3781,182.46638 238.16562,182.46638 C244.48165,182.46638 248.32619,181.91716 254.64222,179.17106 L256.8391,186.31092 C248.05158,191.80312 237.89101,197.29532 224.98434,197.29532 C215.6476,197.29532 195.87568,193.72539 195.87568,167.63744 L195.87568,78.93841 L177.47681,78.93841 L177.47681,67.40479 L196.97412,67.40479 L213.17611,35.00081 L221.1398,35.00081 L221.1398,67.40479 L253.81839,67.40479 L253.81839,78.93841 Z" id="path-2"></path>
        <path d="M280.99568,170.65815 L280.99568,27.31173 C280.99568,17.42577 279.62263,16.05272 273.03199,15.22889 L263.14603,14.40506 L263.14603,6.99059 L304.33753,0.67456 L306.2598,2.04761 L306.2598,170.65815 C306.2598,183.56482 307.35824,184.11404 325.4825,185.48709 L325.4825,194 L261.77298,194 L261.77298,185.48709 C280.17185,184.11404 280.99568,183.56482 280.99568,170.65815 Z" id="path-3"></path>
        <path d="M443.0201,99.53416 L443.0201,159.94836 C443.0201,176.15035 447.13925,180.54411 451.80762,181.64255 C454.27911,182.46638 458.39826,182.46638 461.96819,181.64255 L463.06663,189.88085 C456.7506,194 445.49159,197.29532 435.60563,197.29532 C426.5435,197.29532 421.87513,192.35234 418.57981,181.91716 C410.34151,187.40936 396.3364,197.29532 380.40902,197.29532 C355.69412,197.29532 342.78745,179.99489 342.78745,160.77219 C342.78745,148.41474 348.55426,134.95885 366.95313,129.19204 C387.27427,122.87601 412.26378,116.28537 418.85442,109.42012 L418.85442,100.6326 C418.85442,80.31146 408.41924,73.99543 396.06179,73.99543 C385.62661,73.99543 376.56448,79.48763 370.79767,98.71033 C369.42462,103.10409 367.50235,106.1248 362.01015,106.1248 C356.51795,106.1248 347.45582,102.28026 347.45582,93.76735 C347.45582,79.48763 368.60079,64.10947 398.25867,64.10947 C437.5279,64.10947 443.0201,84.43061 443.0201,99.53416 Z M418.85442,157.47687 L418.85442,120.67913 C413.08761,124.24906 399.63172,129.19204 389.47115,133.03658 C375.46604,138.52878 369.97384,144.84481 369.97384,156.92765 C369.97384,172.0312 377.93753,183.0156 393.5903,183.0156 C403.47626,183.0156 418.85442,177.79801 418.85442,157.47687 Z M562.20084,103.92792 L553.96254,103.92792 C552.04027,88.00054 543.80197,73.72082 525.67771,73.72082 C513.04565,73.72082 503.15969,80.86068 503.15969,94.04196 C503.15969,107.49785 519.63629,114.3631 530.62069,117.93303 C558.08169,127.54438 570.71375,135.50807 570.71375,158.3007 C570.71375,180.54411 553.13871,197.29532 522.38239,197.29532 C507.00423,197.29532 491.62607,193.72539 481.74011,185.21248 L479.26862,151.16084 L487.50692,151.16084 C492.72451,173.12964 503.15969,187.68397 524.03005,187.68397 C536.93672,187.68397 547.64651,179.99489 547.64651,167.08822 C547.64651,153.35772 535.01445,147.04169 519.08707,141.00027 C496.84366,133.31119 481.4655,125.3475 481.4655,102.00565 C481.4655,77.56536 500.41359,64.10947 528.42381,64.10947 C540.23204,64.10947 553.41332,66.85557 562.20084,72.07316 L562.20084,103.92792 Z" id="path-4"></path>
    </defs>
    <g id="Atlas-V2-Logo" stroke="none" stroke-width="1" fill="none" fill-rule="evenodd">
        <g id="Artboard" transform="translate(-483.000000, -136.000000)" fill-rule="nonzero">
            <g id="atlasV2_2" transform="translate(70.000000, 136.000000)">
                <g id="Group" transform="translate(413.000000, 0.000000)">
                    <path d="M7.46368634,265.387801 L34.1473318,265.387801 L34.1473318,271.489559 L0,271.489559 L0,214.902552 L7.46368634,214.902552 L7.46368634,265.387801 Z M40.0011601,249.642919 C40.0011601,245.587305 40.8059296,241.939858 42.4154928,238.700469 C44.025056,235.461079 46.2655344,232.96143 49.1369952,231.201447 C52.0084559,229.441463 55.2854775,228.561485 58.9681581,228.561485 C64.6595736,228.561485 69.2628553,230.512742 72.7781414,234.415313 C76.2934274,238.317885 78.0510441,243.508483 78.0510441,249.987262 L78.0510441,250.484646 C78.0510441,254.514753 77.2720272,258.130316 75.71397,261.331445 C74.1559128,264.532574 71.9283107,267.025847 69.031097,268.811337 C66.1338832,270.596827 62.8053564,271.489559 59.0454168,271.489559 C53.3797543,271.489559 48.7893488,269.538303 45.2740628,265.635731 C41.7587768,261.733159 40.0011601,256.568068 40.0011601,250.140303 L40.0011601,249.642919 Z M47.8062645,250.463904 C47.8062645,255.038347 48.8676972,258.710553 50.9905946,261.480633 C53.1134919,264.250712 55.9545723,265.635731 59.5139211,265.635731 C63.0986938,265.635731 65.9461302,264.231652 68.0563155,261.423452 C70.1665009,258.615253 71.2215777,254.682561 71.2215777,249.62526 C71.2215777,245.101644 70.1474332,241.435792 67.999112,238.627592 C65.8507907,235.819392 62.9969985,234.415313 59.4376497,234.415313 C55.9545727,234.415313 53.1452717,235.800332 51.0096624,238.570412 C48.8740531,241.340491 47.8062645,245.304949 47.8062645,250.463904 Z M113.971014,267.517951 C111.167758,270.816132 107.053783,272.465197 101.628964,272.465197 C97.1385633,272.465197 93.7189021,271.160228 91.3698776,268.55025 C89.0208531,265.940273 87.8333807,262.077304 87.8074246,256.961228 L87.8074246,229.537123 L95.0101985,229.537123 L95.0101985,256.766455 C95.0101985,263.155057 97.6057667,266.34931 102.796981,266.34931 C108.299668,266.34931 111.959419,264.297717 113.776344,260.194468 L113.776344,229.537123 L120.979118,229.537123 L120.979118,271.686103 L114.12675,271.686103 L113.971014,267.517951 Z M140.491879,271.489559 L133.662413,271.489559 L133.662413,229.537123 L140.491879,229.537123 L140.491879,271.489559 Z M132.686775,217.866283 C132.686775,216.761781 133.054306,215.829105 133.78938,215.068227 C134.524453,214.307348 135.613682,213.926914 137.057099,213.926914 C138.500516,213.926914 139.596427,214.307348 140.344865,215.068227 C141.093304,215.829105 141.467517,216.761781 141.467517,217.866283 C141.467517,218.970784 141.093304,219.891188 140.344865,220.627523 C139.596427,221.363857 138.500516,221.732019 137.057099,221.732019 C135.613682,221.732019 134.524453,221.363857 133.78938,220.627523 C133.054306,219.891188 132.686775,218.970784 132.686775,217.866283 Z M176.284182,259.743642 C176.284182,257.830617 175.557755,256.344856 174.104879,255.286315 C172.652003,254.227775 170.119151,253.315913 166.506247,252.550703 C162.893343,251.785493 160.026206,250.867254 157.90475,249.79596 C155.783293,248.724666 154.214725,247.449335 153.198998,245.969929 C152.18327,244.490522 151.675414,242.730565 151.675414,240.690005 C151.675414,237.297573 153.12184,234.428078 156.014735,232.081434 C158.907629,229.73479 162.60405,228.561485 167.104109,228.561485 C171.835599,228.561485 175.673448,229.773049 178.617772,232.196215 C181.562096,234.61938 183.034236,237.718435 183.034236,241.493472 L175.859893,241.493472 C175.859893,239.554939 175.030609,237.884256 173.372016,236.48137 C171.713423,235.078485 169.624142,234.377053 167.104109,234.377053 C164.506932,234.377053 162.475508,234.938199 161.009774,236.060507 C159.544041,237.182815 158.811185,238.649446 158.811185,240.460443 C158.811185,242.169412 159.492613,243.457497 160.855488,244.324735 C162.218362,245.191973 164.6805,246.020938 168.241975,246.811656 C171.80345,247.602373 174.689873,248.546118 176.90133,249.642919 C179.112787,250.73972 180.75207,252.059688 181.819227,253.602862 C182.886383,255.146035 183.419954,257.027149 183.419954,259.246258 C183.419954,262.944774 181.928528,265.909919 178.945632,268.141782 C175.962736,270.373644 172.092744,271.489559 167.335539,271.489559 C163.992639,271.489559 161.035502,270.902907 158.46404,269.729585 C155.892578,268.556262 153.880439,266.917462 152.427563,264.813134 C150.974687,262.708806 150.24826,260.43234 150.24826,257.983668 L157.384031,257.983668 C157.512604,260.355819 158.47046,262.236933 160.257626,263.627064 C162.044792,265.017196 164.404073,265.712251 167.335539,265.712251 C170.035574,265.712251 172.201999,265.170236 173.834877,264.086188 C175.467755,263.00214 176.284182,261.55464 176.284182,259.743642 Z M215.616009,271.489559 L215.616009,214.902552 L231.609802,214.902552 C236.538976,214.902552 240.897339,215.990753 244.68502,218.167187 C248.472701,220.343621 251.397733,223.439812 253.460203,227.455851 C255.522673,231.47189 256.566864,236.083789 256.592807,241.291685 L256.592807,244.906103 C256.592807,250.243548 255.561588,254.920221 253.499118,258.93626 C251.436647,262.9523 248.492158,266.035535 244.665563,268.186059 C240.838967,270.336584 236.38332,271.437739 231.298488,271.489559 L215.616009,271.489559 Z M222.445476,220.756381 L222.445476,264.660093 L230.375625,264.660093 C236.185862,264.660093 240.707048,262.89011 243.93932,259.350091 C247.171591,255.810072 248.787703,250.769468 248.787703,244.228129 L248.787703,240.957475 C248.787703,234.595702 247.263193,229.651293 244.214127,226.1241 C241.165061,222.596907 236.840163,220.807685 231.239304,220.756381 L222.445476,220.756381 Z M286.837587,235.807058 C285.740688,235.625269 284.552399,235.534375 283.272684,235.534375 C278.519456,235.534375 275.2941,237.547015 273.596518,241.572353 L273.596518,271.489559 L266.349188,271.489559 L266.349188,229.340579 L273.400645,229.340579 L273.518169,234.209916 C275.894783,230.444276 279.263778,228.561485 283.625257,228.561485 C285.035555,228.561485 286.106321,228.743272 286.837587,229.106851 L286.837587,235.807058 Z M310.692894,271.489559 C305.081353,271.489559 300.515667,269.646706 296.995701,265.960944 C293.475734,262.275181 291.715777,257.346027 291.715777,251.173332 L291.715777,249.872481 C291.715777,245.765853 292.500106,242.099276 294.068787,238.87264 C295.637467,235.646004 297.831037,233.120848 300.649561,231.297097 C303.468085,229.473347 306.522503,228.561485 309.812907,228.561485 C315.194885,228.561485 319.377971,230.334195 322.36229,233.879669 C325.34661,237.425142 326.838747,242.50096 326.838747,249.107274 L326.838747,252.053319 L298.793936,252.053319 C298.895964,256.13444 300.088398,259.43117 302.371275,261.94361 C304.654152,264.45605 307.55553,265.712251 311.075497,265.712251 C313.575183,265.712251 315.692233,265.202119 317.426709,264.181839 C319.161186,263.161559 320.67883,261.809708 321.979687,260.126245 L326.303103,263.493153 C322.83415,268.824117 317.630799,271.489559 310.692894,271.489559 Z M309.712879,234.415313 C306.755949,234.415313 304.274277,235.441297 302.267789,237.493294 C300.261301,239.545291 299.020465,242.421821 298.545244,246.12297 L320.009281,246.12297 L320.009281,245.594237 C319.798071,242.044156 318.794842,239.293513 316.999563,237.342227 C315.204284,235.390942 312.775414,234.415313 309.712879,234.415313 Z M349.221281,260.79094 L359.087712,229.537123 L366.839907,229.537123 L349.808568,277.670313 C347.172287,284.607076 342.983011,288.075406 337.240615,288.075406 L335.870277,287.959794 L333.168754,287.458808 L333.168754,281.678201 L335.12638,281.83235 C337.579949,281.83235 339.491877,281.344215 340.862221,280.36793 C342.232566,279.391644 343.361452,277.606097 344.248913,275.011234 L345.854166,270.772122 L330.741299,229.537123 L338.650105,229.537123 L349.221281,260.79094 Z M377.375008,271.489559 L377.375008,235.009343 L370.742459,235.009343 L370.742459,229.453783 L377.375008,229.453783 L377.375008,225.141426 C377.375008,220.634795 378.577388,217.151273 380.982184,214.690757 C383.386979,212.23024 386.787258,211 391.183121,211 C392.838034,211 394.479994,211.220148 396.109049,211.660451 L395.72118,217.487962 C394.505854,217.25486 393.212972,217.138311 391.842497,217.138311 C389.515275,217.138311 387.71817,217.818181 386.451127,219.17794 C385.184084,220.537699 384.550572,222.486658 384.550572,225.024875 L384.550572,229.453783 L393.510331,229.453783 L393.510331,235.009343 L384.550572,235.009343 L384.550572,271.489559 L377.375008,271.489559 Z M428.126466,267.517951 C425.323211,270.816132 421.209235,272.465197 415.784416,272.465197 C411.294016,272.465197 407.874355,271.160228 405.52533,268.55025 C403.176306,265.940273 401.988833,262.077304 401.962877,256.961228 L401.962877,229.537123 L409.165651,229.537123 L409.165651,256.766455 C409.165651,263.155057 411.761219,266.34931 416.952433,266.34931 C422.455121,266.34931 426.114872,264.297717 427.931797,260.194468 L427.931797,229.537123 L435.134571,229.537123 L435.134571,271.686103 L428.282202,271.686103 L428.126466,267.517951 Z M470.926874,259.743642 C470.926874,257.830617 470.200447,256.344856 468.747571,255.286315 C467.294695,254.227775 464.761842,253.315913 461.148938,252.550703 C457.536034,251.785493 454.668897,250.867254 452.547441,249.79596 C450.425985,248.724666 448.857417,247.449335 447.841689,245.969929 C446.825962,244.490522 446.318106,242.730565 446.318106,240.690005 C446.318106,237.297573 447.764531,234.428078 450.657426,232.081434 C453.550321,229.73479 457.246742,228.561485 461.7468,228.561485 C466.47829,228.561485 470.31614,229.773049 473.260464,232.196215 C476.204788,234.61938 477.676928,237.718435 477.676928,241.493472 L470.502585,241.493472 C470.502585,239.554939 469.673301,237.884256 468.014708,236.48137 C466.356115,235.078485 464.266833,234.377053 461.7468,234.377053 C459.149624,234.377053 457.118199,234.938199 455.652466,236.060507 C454.186733,237.182815 453.453877,238.649446 453.453877,240.460443 C453.453877,242.169412 454.135304,243.457497 455.498179,244.324735 C456.861054,245.191973 459.323192,246.020938 462.884667,246.811656 C466.446141,247.602373 469.332564,248.546118 471.544021,249.642919 C473.755479,250.73972 475.394761,252.059688 476.461918,253.602862 C477.529075,255.146035 478.062645,257.027149 478.062645,259.246258 C478.062645,262.944774 476.571219,265.909919 473.588324,268.141782 C470.605428,270.373644 466.735435,271.489559 461.978231,271.489559 C458.63533,271.489559 455.678193,270.902907 453.106731,269.729585 C450.535269,268.556262 448.52313,266.917462 447.070254,264.813134 C445.617378,262.708806 444.890951,260.43234 444.890951,257.983668 L452.026723,257.983668 C452.155296,260.355819 453.113151,262.236933 454.900317,263.627064 C456.687483,265.017196 459.046764,265.712251 461.978231,265.712251 C464.678266,265.712251 466.84469,265.170236 468.477568,264.086188 C470.110447,263.00214 470.926874,261.55464 470.926874,259.743642 Z M551.235499,252.943306 C550.530529,258.868902 548.304687,263.44129 544.557905,266.660607 C540.811123,269.879925 535.830719,271.489559 529.616543,271.489559 C522.880168,271.489559 517.482011,269.116791 513.421909,264.371184 C509.361807,259.625577 507.331787,253.276819 507.331787,245.324721 L507.331787,239.937842 C507.331787,234.7305 508.278259,230.151699 510.171233,226.201302 C512.064206,222.250904 514.746966,219.217609 518.219594,217.101325 C521.692221,214.98504 525.713098,213.926914 530.282344,213.926914 C536.33986,213.926914 541.196243,215.587852 544.851641,218.909777 C548.507038,222.231702 550.634969,226.829741 551.235499,232.704034 L543.676697,232.704034 C543.023948,228.240598 541.607503,225.008503 539.427319,223.007652 C537.247136,221.006802 534.198841,220.006391 530.282344,220.006391 C525.478108,220.006391 521.7118,221.750696 518.983307,225.239359 C516.254814,228.728022 514.890588,233.691596 514.890588,240.13023 L514.890588,245.555587 C514.890588,251.635094 516.183013,256.470411 518.767901,260.061681 C521.352789,263.652951 524.968967,265.44856 529.616543,265.44856 C533.79414,265.44856 536.999092,264.518691 539.231495,262.658926 C541.463899,260.799161 542.945618,257.560653 543.676697,252.943306 L551.235499,252.943306 Z M559.040603,249.642919 C559.040603,245.587305 559.845373,241.939858 561.454936,238.700469 C563.064499,235.461079 565.304978,232.96143 568.176438,231.201447 C571.047899,229.441463 574.324921,228.561485 578.007601,228.561485 C583.699017,228.561485 588.302298,230.512742 591.817585,234.415313 C595.332871,238.317885 597.090487,243.508483 597.090487,249.987262 L597.090487,250.484646 C597.090487,254.514753 596.31147,258.130316 594.753413,261.331445 C593.195356,264.532574 590.967754,267.025847 588.07054,268.811337 C585.173326,270.596827 581.8448,271.489559 578.08486,271.489559 C572.419197,271.489559 567.828792,269.538303 564.313506,265.635731 C560.79822,261.733159 559.040603,256.568068 559.040603,250.140303 L559.040603,249.642919 Z M565.87007,250.463904 C565.87007,255.038347 566.931502,258.710553 569.0544,261.480633 C571.177297,264.250712 574.018377,265.635731 577.577726,265.635731 C581.162499,265.635731 584.009935,264.231652 586.120121,261.423452 C588.230306,258.615253 589.285383,254.682561 589.285383,249.62526 C589.285383,245.101644 588.211238,241.435792 586.062917,238.627592 C583.914596,235.819392 581.060804,234.415313 577.501455,234.415313 C574.018378,234.415313 571.209077,235.800332 569.073468,238.570412 C566.937858,241.340491 565.87007,245.304949 565.87007,250.463904 Z M613.599801,229.340579 L613.792742,234.015142 C616.854087,230.379353 620.982982,228.561485 626.179551,228.561485 C632.019259,228.561485 635.993803,230.820835 638.103301,235.339602 C639.492483,233.313948 641.299678,231.677867 643.524942,230.43131 C645.750205,229.184754 648.380607,228.561485 651.416226,228.561485 C660.574536,228.561485 665.230797,233.456743 665.385151,243.247405 L665.385151,271.489559 L658.246336,271.489559 L658.246336,243.675907 C658.246336,240.663395 657.564618,238.410538 656.201162,236.917267 C654.837706,235.423996 652.548163,234.677372 649.332464,234.677372 C646.682729,234.677372 644.483224,235.475935 642.733884,237.073086 C640.984544,238.670236 639.968398,240.819216 639.685417,243.520088 L639.685417,271.489559 L632.508014,271.489559 L632.508014,243.87068 C632.508014,237.741777 629.536753,234.677372 623.594142,234.677372 C618.912085,234.677372 615.709297,236.690011 613.985683,240.71535 L613.985683,271.489559 L606.846868,271.489559 L606.846868,229.340579 L613.599801,229.340579 Z M712.215777,250.657951 C712.215777,257.007986 710.768346,262.123929 707.873441,266.005933 C704.978535,269.887938 701.058943,271.828912 696.114547,271.828912 C691.067676,271.828912 687.096848,270.222146 684.201942,267.008565 L684.201942,287.099768 L677.092807,287.099768 L677.092807,229.33274 L683.587098,229.33274 L683.932948,233.960273 C686.827854,230.361063 690.849919,228.561485 695.999264,228.561485 C700.994897,228.561485 704.946512,230.451042 707.854227,234.230212 C710.761942,238.009382 712.215777,243.26672 712.215777,250.002384 L712.215777,250.657951 Z M705.386311,249.56527 C705.386311,244.88602 704.360466,241.191257 702.308747,238.480871 C700.257027,235.770486 697.442531,234.415313 693.865173,234.415313 C689.446085,234.415313 686.131818,236.320225 683.922274,240.130107 L683.922274,259.959291 C686.105514,263.743603 689.446084,265.635731 693.944085,265.635731 C697.44253,265.635731 700.224147,264.286951 702.289019,261.58935 C704.353891,258.891749 705.386311,254.883763 705.386311,249.56527 Z M747.725506,270.724353 C747.317623,269.908129 746.986222,268.454251 746.731295,266.362677 C743.442734,269.780615 739.516913,271.489559 734.953716,271.489559 C730.87488,271.489559 727.52901,270.335385 724.916006,268.027001 C722.303002,265.718617 720.99652,262.791732 720.99652,259.246258 C720.99652,254.935574 722.634403,251.58783 725.910218,249.202925 C729.186032,246.81802 733.793773,245.625586 739.733577,245.625586 L746.616578,245.625586 L746.616578,242.373459 C746.616578,239.899279 745.8773,237.928893 744.398722,236.46224 C742.920145,234.995587 740.740549,234.262272 737.859872,234.262272 C735.336092,234.262272 733.220228,234.899938 731.512215,236.175288 C729.804203,237.450638 728.95021,238.993789 728.95021,240.804786 L721.837775,240.804786 C721.837775,238.738719 722.57068,236.742825 724.036512,234.817047 C725.502343,232.891268 727.490746,231.367247 730.001779,230.244939 C732.512812,229.122631 735.272358,228.561485 738.2805,228.561485 C743.047639,228.561485 746.782267,229.75392 749.484495,232.138824 C752.186724,234.523729 753.588803,237.807707 753.690774,241.990856 L753.690774,261.044493 C753.690774,264.845037 754.175128,267.867571 755.143852,270.112188 L755.143852,270.724353 L747.725506,270.724353 Z M735.737707,265.635731 C737.954528,265.635731 740.056655,265.064074 742.044151,263.920742 C744.031646,262.777411 745.471284,261.291102 746.363109,259.461771 L746.363109,251.00116 L740.821083,251.00116 C732.157642,251.00116 727.825986,253.529155 727.825986,258.585222 C727.825986,260.795663 728.564916,262.523338 730.042797,263.768299 C731.520678,265.01326 733.418962,265.635731 735.737707,265.635731 Z M772.697311,229.340579 L772.931189,234.638417 C776.153524,230.587109 780.363286,228.561485 785.5606,228.561485 C794.473995,228.561485 798.969604,233.58659 799.047564,243.636952 L799.047564,271.489559 L791.836326,271.489559 L791.836326,243.597997 C791.810339,240.559516 791.115209,238.313151 789.750914,236.858835 C788.386619,235.404519 786.262249,234.677372 783.377739,234.677372 C781.038948,234.677372 778.986039,235.300641 777.218952,236.547197 C775.451865,237.793754 774.074598,239.429835 773.087108,241.455489 L773.087108,271.489559 L765.87587,271.489559 L765.87587,229.340579 L772.697311,229.340579 Z M823.381374,260.79094 L833.247804,229.537123 L841,229.537123 L823.968661,277.670313 C821.332379,284.607076 817.143103,288.075406 811.400708,288.075406 L810.03037,287.959794 L807.328847,287.458808 L807.328847,281.678201 L809.286472,281.83235 C811.740042,281.83235 813.65197,281.344215 815.022314,280.36793 C816.392659,279.391644 817.521545,277.606097 818.409006,275.011234 L820.014258,270.772122 L804.901392,229.537123 L812.810198,229.537123 L823.381374,260.79094 Z" id="LouisDreyfusCompany" fill="#039100"></path>
                    <g id="ATLAS">
                        <g id="A">
                            <use fill="#000000" xlink:href="#path-1"></use>
                            <use fill="#185B9E" xlink:href="#path-1"></use>
                        </g>
                        <g id="t">
                            <use fill="#000000" xlink:href="#path-2"></use>
                            <use fill="#185B9E" xlink:href="#path-2"></use>
                        </g>
                        <g id="l">
                            <use fill="#000000" xlink:href="#path-3"></use>
                            <use fill="#185B9E" xlink:href="#path-3"></use>
                        </g>
                        <g id="as">
                            <use fill="#000000" xlink:href="#path-4"></use>
                            <use fill="#185B9E" xlink:href="#path-4"></use>
                        </g>
                    </g>
                </g>
            </g>
        </g>
    </g>
</svg>