<?xml version="1.0" encoding="utf-8"?>
<!-- Generator: Adobe Illustrator 22.0.0, SVG Export Plug-In . SVG Version: 6.00 Build 0)  -->
<svg version="1.1" id="Layer_1" xmlns="http://www.w3.org/2000/svg" xmlns:xlink="http://www.w3.org/1999/xlink" x="0px" y="0px"
	 viewBox="0 0 45.7 45.7" style="enable-background:new 0 0 45.7 45.7;" xml:space="preserve">
<style type="text/css">
	.st0{fill:#254D22;}
	.st1{fill:#31662D;}
	.st2{fill:#3E8038;}
	.st3{fill:#4A9943;}
	.st4{fill:#4C9E45;}
	.st5{fill:#62CC59;}
	.st6{fill:#7AFF6F;}
</style>
<g>
	<g>
		<g>
			<path class="st0" d="M3.9,16.4c0.4,0,0.7,0.1,2.5-0.2c13.4-1.6,24.8-1.2,33.8,1.1c0-0.1,0-0.2-0.1-0.3c-6.8-9.3-23-9.5-29.7-9.2
				c-1,0-1,0-1.2,0c-0.3,0.3-0.7,0.7-1,1c-1.1,1.3-1.3,1.5-2.1,2.7c-1,1.6-1.1,1.7-1.6,2.9C4.4,15,4.1,15.8,3.9,16.4
				C3.9,16.3,3.9,16.4,3.9,16.4"/>
			<path class="st1" d="M6.7,31.8c15.8-1.4,15.8-1.4,28.8-0.5c-2.6-6.3-14.3-8.2-23.7-8.6c-8.5-0.4-8.8-0.4-8.9-0.8
				c0,0.7,0,1.6,0,2.3c0.2,2.1,0.3,2.2,0.5,3.4C4,29.4,4.1,29.8,5,31.7l0,0C5.3,31.8,5.5,31.9,6.7,31.8"/>
			<g>
				<path class="st2" d="M15.8,41.4c2.9-0.2,5.7-0.9,8.6-1c1.2,0,3.3,0,3.6,0.7c2-1.7-0.4-4-7.8-4.6c-3.1-0.3-6.1-0.2-7.8-0.2
					c-3.8,0-3.8,0-4.2-0.1L8.9,37c1.5,1.3,1.5,1.4,2.5,2.1c1.6,1,1.7,1.1,2.9,1.7C14.8,41,15.3,41.2,15.8,41.4
					C15.8,41.4,15.8,41.4,15.8,41.4"/>
				<path class="st2" d="M39.9,11.6c-0.5-0.6-1.1-1.5-1.6-2.1c-0.9-0.9-1.4-1.1-2.3-1.5l5.1,5.6C40.7,13,40.2,12.1,39.9,11.6z"/>
			</g>
			<g>
				<path class="st3" d="M40.2,25.4c1.4,2.5,1.8,5-0.8,8.9l0.3-0.5c1-1.6,1.1-1.7,1.6-2.9c0.7-1.8,0.8-1.9,1.1-3.1
					c0.1-0.5,0.3-1.1,0.4-1.5c0.2-1.9-0.1-3.2-2.2-4.5C40.5,23,40.4,24.2,40.2,25.4"/>
			</g>
		</g>
		<g>
			<path class="st2" d="M18.7,3.8C21.2,4,20.9,6,17.9,8.5c-3.2,2.8-7.9,5-9.3,5.6c-4.8,2.2-4.8,2.2-4.8,2.2c0.2-0.6,0.5-1.3,0.7-1.9
				c0.8-1.7,0.9-1.8,1.6-2.9c1-1.4,1.1-1.6,2.1-2.7c0.3-0.3,0.7-0.7,1-1c1.1-0.5,2.3-0.8,3.5-1.2c4-1.4,5.2-2.4,5.6-2.8
				C18.4,3.8,18.6,3.8,18.7,3.8"/>
			<path class="st4" d="M26.3,3c7.1,1.5,11.4,8.4-7.2,20.7C13.7,27.3,8,30.1,6.9,30.6c-1.8,0.9-1.9,0.9-1.9,1.1l0,0
				c-0.8-1.7-1-2.2-1.6-4.3C3,25.4,3,25.3,2.9,24.1c0-0.7-0.1-1.6,0-2.3c0.3-0.4,0.3-0.4,4.1-2.1c9.2-3.9,24.9-12.4,18.6-16.9
				C25.8,2.9,26.1,2.9,26.3,3"/>
			<path class="st5" d="M39.9,11.6c0.4,0.6,0.8,1.4,1.1,2c4.7,10.4-10,21.2-25.3,27.8c0,0,0,0,0,0c-0.4-0.2-1-0.4-1.4-0.6
				c-1.6-0.8-1.8-0.9-2.9-1.7c-1.6-1.2-1.7-1.2-2.5-2.1l-0.8-0.9c0.1-0.2,0.1-0.2,4.1-2.1C29,26.4,43.4,15.4,38.3,9.5
				C38.8,10.1,39.4,10.9,39.9,11.6"/>
			<path class="st6" d="M42.5,27.9c-0.6,1.9-0.6,2-1.1,3.1c-0.8,1.7-0.9,1.8-1.6,2.9l-0.3,0.5c-3.1,4.2-8.4,6.9-11.2,7.7
				c0,0-1.3,0.5-4.3,0.7c-0.9,0.1-1,0-1.5,0c-0.5,0-1.1-0.1-1.6-0.1c0.6-0.2,1.3-0.5,1.6-0.6c6.8-2.6,18.8-8.9,20.3-15.8
				C42.7,26.8,42.6,27.4,42.5,27.9"/>
		</g>
	</g>
</g>
</svg>
