<?xml version="1.0" encoding="utf-8"?>
<!-- Generator: Adobe Illustrator 22.0.1, SVG Export Plug-In . SVG Version: 6.00 Build 0)  -->
<svg version="1.1" id="Layer_1" xmlns="http://www.w3.org/2000/svg" xmlns:xlink="http://www.w3.org/1999/xlink" x="0px" y="0px"
	 viewBox="0 0 24 24" style="enable-background:new 0 0 24 24;" xml:space="preserve">
<g id="icon_x2F_documents">
	<g id="shutterstock_1233500584" transform="translate(4.000000, 2.000000)">
		<path d="M14.4,4.6h-0.6v12c0,0.9-0.8,1.6-1.7,1.6H4.7v0.6c0,0.6,0.5,1.1,1.1,1.1h8.6c0.6,0,1.1-0.5,1.1-1.1V5.6
			C15.4,5.1,15,4.6,14.4,4.6z"/>
		<path d="M12.1,2.3h-0.6v12c0,0.9-0.8,1.6-1.7,1.6H2.4v0.6c0,0.6,0.5,1.1,1.1,1.1h8.6c0.6,0,1.1-0.5,1.1-1.1V3.4
			C13.1,2.8,12.7,2.3,12.1,2.3z"/>
		<path d="M9.8,0.1H1.2c-0.7,0.1-1,0.5-1.1,1.1c0,0.6,0,5,0,13.2c0,0.6,0.5,1.1,1.1,1.1h8.6c0.6,0,1.1-0.5,1.1-1.1V1.2
			C10.9,0.6,10.4,0.1,9.8,0.1z M8.8,12.2H2.1c-0.2,0-0.3-0.1-0.3-0.3c0-0.2,0.1-0.3,0.3-0.3h6.7c0.2,0,0.3,0.1,0.3,0.3
			C9.1,12.1,9,12.2,8.8,12.2z M8.8,10.1H2.1C2,10.1,1.8,10,1.8,9.8c0-0.2,0.1-0.3,0.3-0.3h6.7c0.2,0,0.3,0.1,0.3,0.3
			C9.1,10,9,10.1,8.8,10.1z M8.8,8H2.1C2,8,1.8,7.9,1.8,7.8c0-0.2,0.1-0.3,0.3-0.3h6.7c0.2,0,0.3,0.1,0.3,0.3C9.1,7.9,9,8,8.8,8z
			 M8.8,6H2.1C2,6,1.8,5.8,1.8,5.7c0-0.2,0.1-0.3,0.3-0.3h6.7c0.2,0,0.3,0.1,0.3,0.3C9.1,5.8,9,6,8.8,6z M8.8,3.9H4.4
			c-0.2,0-0.3-0.1-0.3-0.3c0-0.2,0.1-0.3,0.3-0.3h4.4c0.2,0,0.3,0.1,0.3,0.3C9.1,3.8,9,3.9,8.8,3.9z"/>
	</g>
</g>
</svg>
