<?xml version="1.0" encoding="UTF-8"?>
<svg width="1116px" height="100px" viewBox="0 0 1116 146"  preserveAspectRatio="none" version="1.1" xmlns="http://www.w3.org/2000/svg" xmlns:xlink="http://www.w3.org/1999/xlink">
    <!-- Generator: Sketch 52.3 (67297) - http://www.bohemiancoding.com/sketch -->
    <title>Waves</title>
    <desc>Created with Sketch.</desc>
    <defs>
        <rect id="path-1" x="0" y="0" width="1116" height="146"></rect>
    </defs>
    <g id="Reports" stroke="none" stroke-width="1" fill="none" fill-rule="evenodd" opacity="0.7">
        <g id="Report_Launching_Template" transform="translate(-113.000000, -376.000000)">
            <g id="Group-2" transform="translate(113.000000, 266.000000)">
                <g id="Waves" transform="translate(0.000000, 110.000000)">
                    <g id="Group_136" opacity="0.6">
                        <mask id="mask-2" fill="white">
                            <use xlink:href="#path-1"></use>
                        </mask>
                        <use id="Rectangle-2-Copy-3" fill="#FFFFFF" xlink:href="#path-1"></use>
                        <path d="M1115.85069,25.5496291 C1089.53682,15.392457 1048.35743,2.81981855 999.002369,3.55938552 C947.268051,4.29216747 934.781786,18.4287526 874.127675,21.6753838 C810.499497,25.0254865 802.174518,10.4716227 735.278478,11.9371866 C658.419916,13.6130861 654.704138,33.1946482 590.630452,33.0894804 C511.541942,32.9843127 500.392201,3.03693913 422.642623,2.82660357 C350.83877,2.61796426 343.25791,27.9583105 272.198176,26.8065537 C201.880153,25.6547969 182.554738,0.209282844 113.874258,0.00573230143 C64.2205832,-0.314859803 25.2735496,12.8786078 0,22.8271406 L0,75.2889004 L1116,75.2889004 L1115.85069,25.5496291 Z" id="Path_102" fill="#B2B2B2" fill-rule="nonzero" mask="url(#mask-2)"></path>
                        <path d="M1116,50.7334013 C1062.43131,34.9209167 1016.15648,29.8949145 978.211985,32.5139315 C924.047923,36.2830091 915.269252,53.7713932 863.785552,55.2437421 C804.562063,56.9196415 784.922137,34.8242302 726.73994,36.5001296 C668.707188,38.1760291 660.820365,61.0025262 606.808157,61.9439474 C546.842266,62.9905365 529.877882,35.3466766 466.192745,34.8225339 C399.976691,34.2983913 376.766965,63.7233184 313.522931,61.9439474 C266.2044,60.5869438 219.481237,38.9071148 169.335309,33.0431629 C130.050636,28.3258791 105.647762,35.2330275 0,64.6613472 L0,110.107398 L1116,110.107398 L1116,50.7334013 Z" id="Path_103" fill="#999999" fill-rule="nonzero" mask="url(#mask-2)"></path>
                        <path d="M1116,108.734359 C1077.95121,86.6389475 1021.60046,61.8227439 957.825387,64.122865 C891.671059,66.6367142 877.845861,96.3754485 806.487517,100.253086 C718.332316,105.172224 691.859507,62.3468866 605.498379,66.7452745 C522.694091,70.9333269 505.894827,101.404843 438.854298,97.8461011 C370.915529,94.2839667 359.765788,61.196826 297.924458,60.7778511 C238.756177,60.3588763 221.215202,90.7252247 155.361892,95.6477553 C117.590036,98.4720191 66.8984476,99.204801 0,59.4140625 L0,135.959244 L1115.55449,135.959244 L1116,108.734359 Z" id="Path_104" fill="#666666" fill-rule="nonzero" mask="url(#mask-2)"></path>
                        <path d="M0,100.267876 C34.2371226,113.252704 81.416842,126.759979 133.659798,123.096069 C185.603782,119.430463 194.09073,102.152414 244.240882,99.5350936 C314.345007,95.9729591 332.652223,127.703096 405.881089,127.075482 C472.115455,126.447868 477.026794,100.274661 546.981433,97.8608903 C620.805831,95.3470411 635.096214,123.725379 713.086932,122.468455 C783.936077,121.316698 788.69793,97.6505548 856.419923,98.3816405 C924.440888,99.1144224 943.941581,123.19954 1013.00172,122.989205 C1057.80171,122.884037 1093.67354,112.621697 1116,104.669656 L1116,168.126538 L0,168.126538 L0,100.267876 Z" id="Path_105" fill="#4B4B4B" fill-rule="nonzero" mask="url(#mask-2)"></path>
                    </g>
                </g>
            </g>
        </g>
    </g>
</svg>