<?xml version="1.0" encoding="UTF-8"?>
<svg width="423px" height="388px" viewBox="0 0 423 388" version="1.1" xmlns="http://www.w3.org/2000/svg" xmlns:xlink="http://www.w3.org/1999/xlink">
    <!-- Generator: Sketch 53.2 (72643) - https://sketchapp.com -->
    <title>Group</title>
    <desc>Created with Sketch.</desc>
    <defs>
        <path d="M14.2181227,243.147136 C9.32863061,234.225335 10.3557283,236.320107 5.94808444,219.19674 C4.74599975,214.499987 3.22944566,208.200455 2.6157231,203.392116 C1.54551268,194.987667 0.424581392,183.722562 0.338355908,175.252176 C0.2216979,163.794331 2.10851437,147.198461 3.86852865,140.011313 C5.4459478,133.590051 7.40377349,124.96243 9.62534772,118.728835 C12.3490586,111.075055 16.3154308,100.915665 20.3122356,93.8350308 C24.2329591,86.9014875 29.7970388,77.8275233 34.4177103,71.3403237 C37.9833877,66.3291015 43.405449,60.141155 47.5442722,55.5864206 C53.0424148,49.5404926 66.5798158,36.9059232 79.49335,28.7449347 C88.0296729,23.353306 100.927991,15.2075338 123.199526,8.08125117 C133.003871,4.94162915 148.818639,1.03612194 168.478049,0.26009259 C172.738603,0.0977857966 177.2274,3.90185126 181.761846,12.1237047 C177.2274,3.90185126 172.738603,0.0977857966 168.478049,0.26009259 C173.661722,0.133290408 183.30376,-0.09495352 194.031225,1.12234743 C198.555527,1.63970033 207.969321,2.70991075 221.298766,6.27051601 C245.315099,12.6968506 262.783368,23.4750361 268.524971,27.015353 C276.437427,31.8947009 291.97323,42.6678143 307.072834,59.9585599 C323.952741,79.2882845 332.04272,96.9898691 334.705566,102.802481 C345.519256,126.448552 348.313976,147.619444 348.765392,151.621321 C349.495772,158.120356 347.739349,167.913249 343.496122,181 L159.812388,348.313725 L107,315.921444 L20.3122356,248.115255 L14.2181227,243.147136 Z" id="path-1"></path>
    </defs>
    <g id="Atlas-V2-Logo" stroke="none" stroke-width="1" fill="none" fill-rule="evenodd">
        <g id="Artboard" transform="translate(-172.000000, -180.000000)">
            <g id="Group" transform="translate(157.208830, 183.000000)">
                <g id="Group-350" transform="translate(46.791170, 0.000000)">
                    <mask id="mask-2" fill="white">
                        <use xlink:href="#path-1"></use>
                    </mask>
                    <use id="Clip-277" stroke="#185B9D" stroke-width="5" xlink:href="#path-1"></use>
                    <path d="M22.0063128,259.484329 C-40.4158654,145.580465 37.5776207,7.48781696 168.412112,0.265164677 C172.738603,0.0977857966 177.2274,3.90185126 181.766918,12.1237047 C177.2274,3.90185126 172.738603,0.0977857966 168.478049,0.26009259 C255.494779,-1.85496781 311.399325,51.8432202 334.705566,102.802481 C363.788914,166.396311 351.098552,243.507254 303.131822,294.689687 C221.288622,382.010742 79.4172687,364.248292 22.0063128,259.484329" id="Fill-276" fill="#185B9D" mask="url(#mask-2)"></path>
                    <path d="M207.837446,3.29827287 C207.223724,3.2069753 206.396974,3.22726365 205.783251,3.20190321 C206.77738,3.60259811 208.055546,4.30254615 208.907657,4.9619175 L208.927945,4.96698958 L208.943162,4.97206167 L208.953306,4.97206167 L208.973594,4.97713376 L208.98881,4.98220585 L208.998954,4.98727793 C211.139375,7.29000556 214.446376,6.99075241 216.921555,8.53773903 L215.602812,9.84633755 L216.891122,11.0078455 C216.246967,11.1752244 215.384712,11.3983963 214.740557,11.5657751 C214.953585,12.083128 215.237622,12.7678598 215.450649,13.2852127 C216.561437,13.5844659 217.996837,14.2742697 218.869236,15.0300107 C217.058501,15.395201 215.217333,15.1365246 213.396454,15.217678 C213.868158,15.5575078 214.497097,16.0139957 214.963729,16.3588976 C213.807293,16.4045464 212.260307,16.4197627 211.103871,16.4146906 C211.611079,16.6378624 212.290739,16.9421876 212.80302,17.1653595 C207.421535,17.0537736 202.253078,15.2278221 196.851305,15.2481105 C199.407637,16.0190678 201.877744,17.023341 204.383355,17.9312447 C203.71384,17.7638658 202.811008,17.545766 202.131348,17.3783872 C204.763762,20.5788742 212.70665,25.0169506 212.782732,25.0524552 C211.671944,24.692337 210.221328,24.1242632 209.176478,23.6069103 C209.663398,23.9771727 210.302481,24.4691652 210.784329,24.8394275 C209.556884,24.4691652 207.954104,23.8402263 206.792597,23.2924409 C210.206111,27.42112 214.634043,29.1354855 216.972276,29.7897847 C215.080387,29.9419473 213.203715,29.5818291 211.311826,29.6224058 C211.803819,30.0078845 212.468262,30.5201653 212.965327,30.9056439 C209.414866,34.628556 209.414866,34.628556 210.053949,36.6117421 C209.506163,36.4443632 208.780855,36.2161193 208.227997,36.0436683 C207.979465,35.5313875 207.649779,34.8517278 207.406319,34.339447 C206.87375,34.2075727 206.158586,34.0351218 205.626016,33.9032475 C206.635362,35.4908108 208.1367,36.662463 209.222126,38.1840892 C208.699701,38.23481 208.004825,38.3007472 207.487472,38.3565401 C203.561677,34.9227371 197.830218,34.745214 194.132667,30.9208602 C193.148682,30.9817252 191.774146,30.5861024 190.977828,30.0129566 C189.405481,30.9614369 174.534121,55.5559881 177.4455,60.8208147 C180.559761,60.5519941 180.7525,60.3338943 182.228478,58.5992405 C183.790681,60.2628851 184.439908,60.952689 186.052832,67.1913563 C185.236226,67.9217369 183.927627,68.68255 182.872633,68.9818031 C183.308832,66.415327 183.202319,65.5936488 182.147324,63.4785884 C180.032264,64.8886287 179.388109,65.3096119 179.651857,68.9310823 C180.382238,78.9332384 158.815723,91.9228539 153.358157,89.2650802 C153.241499,89.7722889 153.084264,90.4468765 152.962534,90.9490131 C157.294097,96.9391482 157.294097,96.9391482 155.148604,107.681829 C151.303962,109.391122 148.752702,110.441045 148.752702,110.441045 C144.943564,106.099338 144.943564,106.099338 139.653377,105.759508 C133.597305,116.786226 133.369061,126.615931 133.379205,126.68694 C132.669113,127.412249 132.121328,128.812145 132.106111,129.826562 C133.054592,130.30841 134.398695,130.815619 135.433401,131.08444 L135.808735,131.048935 L135.813807,131.048935 L135.818879,131.054007 L135.823951,131.054007 C136.919522,130.993142 138.370139,130.734466 139.425133,130.430141 L140.921399,131.951767 C140.911255,132.585778 140.901111,133.432816 140.896039,134.071899 C152.00391,142.72488 154.742837,119.428783 164.476172,115.721087 L164.694272,115.218951 C164.942804,113.773406 165.561599,111.881517 166.276763,110.598279 C170.61847,109.705592 180.123562,108.209326 180.128634,108.209326 C180.351806,108.356417 196.881738,128.710703 195.882537,129.791058 C195.431121,130.28305 194.563794,130.617808 194.000792,130.967782 C193.16897,131.023575 192.935654,131.028647 192.70741,131.028647 L192.012534,131.028647 L191.317658,131.023575 L189.927906,131.018503 L189.23303,131.013431 L188.543226,131.008358 L187.858495,131.003286 C191.29737,136.43042 193.234907,136.597799 194.786966,136.729673 C195.157228,131.870613 199.625737,127.929601 197.936732,122.608982 C199.027231,122.497396 200.518425,122.543045 201.598779,122.756072 C197.459956,115.842817 182.826984,113.570522 187.508521,103.233609 C205.291259,108.43757 204.799266,129.704832 218.498974,138.494759 C216.541148,134.741415 216.951987,134.289999 219.650338,131.348188 C218.225081,128.31508 215.780335,125.98192 214.040609,123.166912 C216.414346,122.426387 217.966405,120.478705 219.949591,119.165035 C221.359631,119.793973 222.962411,120.509138 223.850026,125.728316 C225.173841,133.493681 227.192532,134.051611 235.662917,136.374627 C235.946954,135.842058 236.322289,135.126893 236.611398,134.594324 C239.923471,133.686421 243.879699,136.815898 246.730212,132.986472 C247.359151,133.001689 248.201117,133.016905 248.835128,133.032121 C254.079666,140.767054 250.995837,153.984914 250.95526,154.106644 C249.509716,154.502267 236.5201,157.875205 225.82814,154.933394 C211.463989,150.977166 211.463989,150.977166 210.307553,160.73079 C206.351325,163.464645 182.999435,150.231569 181.259709,148.283888 C182.755975,135.131965 182.755975,135.131965 179.530127,134.305215 C167.073081,131.1098 156.7666,139.818574 145.014573,140.528666 C141.65178,140.73155 140.125081,136.800682 136.813008,136.886908 C132.27349,143.252377 119.841804,145.169626 122.925633,155.785505 C120.359157,158.970776 111.305481,166.132563 110.057748,166.426744 C109.403449,167.573036 108.536122,169.104806 107.881822,170.251098 C107.765164,170.98655 107.75502,170.981478 107.744876,170.981478 L107.719516,170.976406 L107.694155,170.971334 L107.673867,170.966262 L107.643434,170.96119 L107.618074,170.956118 L107.592714,170.951046 L107.562281,170.945974 C107.009423,170.915541 106.279043,170.885109 105.726185,170.854676 C74.1422979,225.521633 94.7907652,235.067301 95.6885247,235.447708 C96.4290494,243.218145 103.362593,247.230166 106.618873,253.473906 C111.275049,254.336161 110.042532,262.355131 115.718197,261.548669 C125.771074,260.123412 130.077276,260.940018 130.107709,260.950162 C138.496941,263.379692 145.415268,255.462164 153.75378,257.587369 C158.795435,258.870607 158.521542,264.074568 160.910495,267.305488 C165.211625,267.817769 171.085102,263.339116 173.803741,268.822042 C177.465788,276.201929 172.474854,282.907228 172.15024,289.98279 C177.526653,292.787654 193.879062,301.329049 176.689759,327.774912 C177.354202,328.748753 177.942564,330.310956 177.983141,331.492752 L179.357676,332.552819 C179.144649,333.136109 178.85554,333.922282 178.642512,334.505572 C179.494623,335.200448 180.82351,335.920685 181.883576,336.204721 C182.187901,340.835537 182.187901,340.835537 184.926828,346.587284 C184.693512,347.06406 184.384115,347.692999 184.150799,348.164703 C186.940447,349.797915 239.710443,338.157475 260.277757,305.787414 C259.785764,303.915814 261.667509,297.453975 263.767353,296.03379 C263.244928,295.993213 262.54498,295.937421 262.022555,295.896844 C263.544181,287.223575 270.599454,278.423503 275.980939,275.948325 C276.183823,275.857027 298.511151,255.862859 304.795467,227.905514 C305.358469,227.70263 306.104065,227.43381 306.667067,227.230926 C306.900383,226.054202 306.651851,224.304332 306.022912,223.284842 C301.950026,223.47251 300.174795,227.413521 300.103786,227.575828 C299.60165,227.408449 298.932134,227.185277 298.429997,227.017899 C297.517022,227.793928 296.350442,228.904715 295.538908,229.79233 C292.718827,228.960508 292.718827,228.960508 287.996714,230.147376 C287.732965,230.614008 287.382991,231.232803 287.119243,231.704507 C282.594941,226.099851 293.231108,223.518158 295.224438,218.755468 C296.964164,218.116385 296.964164,218.116385 304.136096,209.230088 C304.612872,209.037349 304.617944,209.032277 304.628088,209.032277 L304.643304,209.022133 L304.663593,209.017061 L304.683881,209.011989 L304.704169,209.001845 L304.724458,208.996772 L304.739674,208.986628 L304.759962,208.981556 C304.937485,208.804033 322.304312,190.727114 315.249039,169.383771 C310.937765,168.374425 310.587791,168.293272 307.940161,161.89737 C301.179069,171.843733 301.179069,171.843733 300.489265,172.188635 C298.293051,166.330374 298.293051,166.330374 297.51195,165.047136 C296.847506,165.15365 295.959891,165.295668 295.290375,165.402182 C286.35843,155.420315 286.008456,155.029764 288.924906,150.759066 C295.594701,151.337284 300.595779,164.002286 307.042402,157.545519 C310.435628,160.238797 310.435628,160.238797 323.633199,158.20489 C323.678848,157.6216 323.739713,156.845571 323.785362,156.267353 C324.079543,156.835427 324.470093,157.591168 324.769347,158.159242 C332.007215,156.967301 329.39509,168.729472 336.622815,168.237479 C336.967717,167.010034 337.135095,165.270308 337.003221,164.002286 C337.464781,164.453702 338.083576,165.05728 338.545136,165.503624 C338.656722,180.912625 342.709319,195.839778 343.957053,211.111833 C344.073711,210.903877 351.494174,168.952643 346.021392,138.220867 C346.741629,140.356215 347.101747,141.421354 348.009651,146.559378 C346.508313,139.270789 344.256306,129.593246 342.237615,122.431459 C336.516301,106.520321 335.633758,104.075575 328.669782,90.7816343 C317.51119,72.227939 313.965801,67.1609238 298.374204,50.7070727 C287.971353,41.0954673 285.501247,38.813028 272.024711,29.2775039 C267.967041,26.7516044 262.519619,23.4192431 258.350364,21.0759388 L258.385868,21.0962271 C259.425646,21.669373 260.810326,22.4301861 261.845032,23.0134761 C261.363184,22.7547997 260.719028,22.4149698 260.23718,22.1613655 C260.779893,22.4961232 261.495058,22.947539 262.037771,23.2822967 C258.426445,21.3295431 254.64774,19.7064752 250.980621,17.8602354 C250.067645,17.4696847 250.067645,17.4747568 250.067645,17.4747568 L250.072717,17.4747568 C246.62877,16.0951491 243.443499,14.1474676 239.938687,12.8794457 C240.511833,13.0163921 241.262502,13.1989872 241.830575,13.3410057 C237.859131,11.6672169 233.558001,10.8911875 229.693071,8.92828975 C230.768353,9.21739872 232.188538,9.64345406 233.248604,9.98835599 C231.990726,9.56737275 230.322009,9.00944315 229.069204,8.58338781 L228.891681,8.52759485 L221.516866,6.33645315 L220.441583,6.04227209 L220.284349,6.00169539 C216.170886,4.95684541 211.961053,4.33297867 207.837446,3.29827287 M207.370814,39.0209836 C208.354799,41.1461881 208.410592,41.2780624 209.698903,42.7794002 C208.654053,42.5257959 207.609203,42.2772636 206.564353,42.0338034 C207.051273,42.9772117 207.198363,43.1648789 208.009897,43.8293223 L208.862008,44.7118655 L208.446097,44.9401094 C206.726659,44.8488119 204.373211,41.6483248 204.109462,41.2780624 C203.039252,39.7970129 202.623341,39.4318226 201.974114,39.1427137 L202.029907,39.1274974 C202.547259,38.990551 203.303,39.2390833 203.906579,39.4368947 C204.373211,39.5890573 204.865203,39.5890573 205.347052,39.6499224 C206.610001,39.8071571 206.610001,39.8071571 206.589713,39.3202367 C207.244012,39.9035268 207.380959,39.4267506 207.380959,39.2137229 L207.345454,38.9601185 L207.370814,39.0209836 M333.640427,162.546597 L333.635355,162.648039 L333.54913,162.60239 L333.275237,162.308209 L333.036849,162.120542 C333.097714,161.770568 333.123074,161.430738 333.128146,160.959034 C333.315814,161.481459 333.544058,161.99374 333.640427,162.546597 M220.005384,339.034946 L219.498175,339.273334 L220.0206,339.024802 L220.005384,339.034946 M213.000831,7.55882618 L212.929822,7.57911453 L212.934894,7.58418662 L213.472535,7.57404245 L213.000831,7.55882618 M205.697026,34.4611771 L205.70717,34.4459608 L204.926068,33.8829592 L205.590512,34.5220422 L205.697026,34.4611771 M237.66132,11.6418564 L237.615671,11.6317123 L237.828699,11.7179378 L238.437349,11.9512538 L237.66132,11.6418564 M238.493142,11.9715421 L238.437349,11.9512538 L238.8279,12.1186326 L239.000351,12.1744256 L238.493142,11.9715421 M135.77323,131.104728 L135.808735,131.048935 L135.752942,131.048935 L135.458761,131.196026 L135.174724,131.241674 L134.997201,131.799604 C135.088499,131.901046 135.347175,131.779316 135.77323,131.104728 M114.358878,164.377621 L114.343662,163.576231 L114.308157,163.606663 L114.358878,164.377621" id="Fill-306" fill="#FFFFFE" mask="url(#mask-2)"></path>
                    <polyline id="Fill-307" fill="#FFFFFE" mask="url(#mask-2)" points="211.179952 29.7137034 211.164736 29.7187755 211.124159 29.6680546 211.179952 29.7137034"></polyline>
                    <path d="M54.5995456,283.00867 C52.2308809,275.679504 45.495149,271.616762 41.4882,265.509969 C37.4406744,259.337239 31.5266206,254.838297 26.8704445,249.213352 C26.4697496,248.731504 25.8661712,248.148214 25.3944671,247.732303 L24.9481234,248.346026 C20.6875701,244.775276 8.56528147,211.801637 8.45876764,211.477023 L7.7588196,211.263995 C6.58716744,207.92149 3.04177843,193.927601 3.38668036,185.847766 L2.86932746,186.522354 C0.602104446,181.759664 0.561527748,179.117106 0.434725566,170.372828 C0.683257843,189.859787 0.693402017,190.6206 2.6157231,203.392116 C6.26255385,221.240791 6.40457229,221.940739 9.92460086,232.333446 C16.3205029,248.701072 16.7009095,249.685057 22.0063128,259.484329 C33.1649048,278.043097 36.7102938,283.115184 52.3120343,299.579179 C63.6785818,310.073328 64.1198534,310.484167 71.4033708,315.921444 L71.3120732,315.855507 C69.6535007,314.587485 69.5875635,314.536765 68.4615601,313.405689 C68.918048,313.588284 68.918048,313.588284 71.4388754,315.20628 C55.086466,292.123211 55.086466,292.123211 55.1067543,290.505215 L55.8675674,290.109592 C55.786414,287.918451 54.6147619,283.044175 54.5995456,283.00867 M134.576218,28.7195743 L135.727582,28.2833748 C136.655774,26.2190353 137.127478,25.1792574 153.561041,17.9921097 L153.266859,16.5617811 C149.625101,15.9480585 140.140298,18.3319396 138.349851,19.0876806 C138.877348,19.1231852 139.582368,19.1384014 140.109865,19.1028968 C137.03618,20.2238281 133.739323,20.0665934 130.584485,20.7361089 C132.177121,19.696331 134.074081,19.6861869 135.818879,19.1739061 L135.007345,19.0775364 C140.99748,16.034284 147.94624,17.9413888 154.032745,15.4053452 C152.242298,15.0147945 146.845597,15.7908238 146.3181,15.9328423 C148.362151,15.3850569 150.477211,15.2481105 152.551695,14.8575598 C146.68329,13.7518448 141.656852,18.0986235 135.859456,17.4493964 C137.112261,16.9827643 138.370139,16.5516369 139.617873,16.090077 C136.772432,15.9226981 134.058865,16.9320435 131.243856,17.0487015 C132.085823,15.623445 134.383479,14.9640736 134.403767,14.9590015 L133.713963,15.2126059 C134.175523,15.1568129 134.789245,15.0858037 135.250805,15.0300107 L134.576218,15.3546243 C136.81808,16.1763025 152.719074,13.5591054 152.876309,13.533745 C150.918483,13.2091314 148.438232,13.0316084 148.412872,13.0316084 C152.00391,11.9005329 152.871237,11.8396678 159.601896,11.3730358 L159.56132,11.3476754 C157.983901,11.3375312 157.983901,11.3375312 154.859495,11.1447919 L155.645668,10.8962596 C155.60002,10.8861154 148.31143,10.4803485 144.735609,10.8861154 C145.445701,11.2868103 145.445701,11.2868103 147.915807,11.4186846 C146.668074,11.8903887 138.887492,12.5193275 137.634686,12.2454348 C138.111463,12.138921 138.740401,11.9918305 139.212106,11.8802445 C138.715041,11.9005329 138.060742,11.9613979 137.568749,12.0273351 C138.567951,11.5809914 139.668593,11.5454868 140.698227,11.2310174 L140.951832,10.510781 C141.43368,10.4296276 142.072763,10.277465 142.544467,10.1455907 C141.945961,10.0542931 141.134427,9.99850016 140.530848,10.0137164 C141.012697,9.85648172 141.656852,9.6637424 142.148844,9.54201231 L142.229998,8.81163174 L141.428608,8.68990165 L142.098123,8.22326962 L141.367743,8.02038613 C152.531407,5.72273059 152.531407,5.72273059 153.809573,5.09886385 L153.028471,3.75983281 L154.443584,3.4047867 C153.175562,3.0852452 153.175562,3.0852452 150.543149,3.01423598 C152.262586,2.38529716 153.424094,2.08097192 153.429166,2.08097192 C151.456124,1.86287217 149.57438,2.52224352 147.636843,2.63890152 C148.595467,2.2483508 148.67662,2.22299037 151.587999,1.74114207 C149.726543,2.03025105 147.24122,2.38529716 145.389908,2.70483866 C142.098123,3.33884957 137.710768,4.22646484 134.444344,4.97206167 L134.434199,4.97206167 C132.39522,5.46912622 125.005189,7.35087061 115.657332,10.627439 C104.940012,14.8474156 103.570548,15.3901289 95.6834526,19.3362128 C84.3473375,25.5951685 81.6489871,27.0812901 70.2976557,35.1966298 C58.398539,44.7879468 51.8454022,50.0730618 39.2108328,65.1422331 C29.0920187,78.6441294 28.2652685,79.7447723 22.5946749,89.6404146 L22.5946749,89.6353425 C22.5540982,89.7114238 17.1675415,99.9824006 14.5909212,105.820373 L14.9206068,105.064632 C18.0145801,98.0651516 20.5556958,93.5205614 21.6411225,91.577952 C21.0679766,92.6177298 20.4999028,93.6575077 19.9419732,94.7074298 C23.1424603,88.904962 23.4062089,88.5144112 26.667561,83.7212888 C26.2009289,84.6393366 26.1502081,84.7357062 25.0292768,86.6174506 C26.1147035,85.4102938 27.0834721,84.0966232 28.1587546,82.8742502 L27.8189248,83.736505 C29.807183,81.1700289 30.2180221,80.6628201 31.4505393,79.4201587 C30.4361218,81.2866869 29.0311536,82.8996106 28.006592,84.7661387 C31.957748,81.3323357 34.3467011,76.2906809 39.2564816,73.8459348 L38.8101379,74.6726851 C41.5642813,73.6278351 42.7410056,70.4476364 45.6574557,69.6208861 L46.195097,70.1230228 L46.0378623,70.9091963 C51.4041306,69.8694184 54.5538968,63.9046438 60.5896807,64.3611316 C62.1620277,67.0797704 57.4804912,67.5413303 56.1820368,69.3520655 C56.6689572,69.2709121 57.3283286,69.2201912 57.820321,69.2100471 C58.2108718,71.3301795 58.7941618,74.5306666 69.0600664,66.3138852 C67.6804587,66.9783287 66.1791209,67.3283027 64.8045852,67.987674 C65.2813614,67.3536631 65.2813614,67.3536631 67.6601704,65.5733605 C67.1986104,65.4364141 66.5189507,65.4161258 66.0472466,65.542928 C73.6705938,55.6016369 73.6705938,55.6016369 73.6553775,55.4444022 C72.580095,55.200942 72.580095,55.200942 70.8150086,56.0784131 C75.3849593,51.0215421 80.1222888,59.3904861 85.1690156,57.8029228 C81.4258152,61.5613394 76.1660607,62.8648659 71.9765166,65.9030462 C74.208235,66.303741 74.2234513,66.4001107 75.0299132,71.3504679 L75.7450775,71.8018837 C78.3470583,69.5194444 82.7039812,64.5538709 82.7191975,64.5285105 L81.9837448,64.1633202 C81.8011497,63.0728214 82.6938371,62.3272246 82.8865764,61.3584559 L82.8358555,61.3280234 L82.8307834,61.3229513 L82.8257113,61.3229513 C87.0659763,57.9652296 92.5336864,56.2356478 95.7696781,51.5541112 C100.187466,45.1835696 100.187466,45.1835696 101.724309,44.3416031 C102.586563,43.869899 102.84524,43.7278806 111.559086,37.3877715 L110.74248,36.9262115 C105.842843,38.6659375 105.842843,38.6659375 104.686407,38.6202887 L104.437875,37.823971 C107.831102,35.034323 112.578575,34.2633657 115.31243,30.4998769 L114.840726,29.9318032 L115.053754,29.1507017 L114.26758,28.6130605 C112.700305,29.0644762 112.700305,29.0644762 110.382362,29.9622357 L75.7501496,43.2003835 C76.6377648,41.7244061 80.5584883,38.8941814 84.7683207,37.1798159 C91.6207107,34.39524 95.4298482,27.3602549 102.327887,24.631472 C105.036382,23.5663336 105.036382,23.5663336 121.576458,22.6381417 C120.090337,23.3482339 118.401331,23.4040268 116.920282,24.1293353 L116.81884,24.8597159 L118.162943,25.5292314 L118.127439,26.37627 C121.449656,24.8546438 124.462476,22.7192951 127.875991,21.3751919 C127.414431,21.669373 126.826068,22.1005004 126.405085,22.4504744 L127.054312,23.0033319 C131.294577,22.6330696 135.113859,20.0260167 139.541791,20.6346672 C136.589836,25.2502666 126.283355,27.1117226 124.665359,25.4430059 C123.098084,25.8132683 122.814047,25.8792054 120.663482,26.6552348 C121.135187,26.7718928 121.764125,26.9341996 122.240902,27.0559297 L122.337271,27.9841217 C120.97288,29.0695483 120.830861,29.1862063 117.747032,30.9766531 C117.655735,31.4585014 117.508644,32.1026565 117.381842,32.5794327 C122.783615,36.6168142 126.334076,29.2927202 130.883738,27.8370311 C130.716359,28.1362843 130.716359,28.1362843 128.149883,30.09411 C129.778023,30.4085794 134.378406,28.7905835 134.576218,28.7195743 M74.2386676,58.5434475 L74.2741722,58.4318616 L73.4220615,58.6144567 C73.9292702,58.7666193 74.2335955,58.5434475 74.2386676,58.5434475" id="Fill-308" fill="#FFFFFE" mask="url(#mask-2)"></path>
                    <path d="M179.895318,14.5075858 L180.590194,13.4830241 L179.367821,14.7611901 C180.11849,13.6453309 181.67562,12.2048581 181.690837,12.1896419 L181.452448,12.3925254 L181.766918,12.1237047 L181.751702,12.1338489 L181.513314,12.3215161 L181.766918,12.1237047 L181.74663,12.1338489 L181.457521,12.3316603 L181.726341,12.1490652 L181.706053,12.1592093 C180.706852,12.722211 179.733011,13.3308615 178.688161,13.8076377 C179.058423,13.5083846 179.383037,13.244636 181.325646,12.3316603 C180.777861,12.5700484 180.24022,12.8185807 179.687362,13.0468246 L180.006904,12.8895899 L178.901189,13.361294 C179.565632,12.9707433 179.565632,12.9707433 180.615554,12.5599042 C180.067769,12.7577156 179.519983,12.9605991 178.97727,13.1634826 C179.773588,12.8490132 180.574977,12.544688 181.381439,12.255579 C179.996759,12.7120669 178.622224,13.2294198 177.207111,13.6047542 C177.95778,13.2852127 178.738882,13.0721851 179.504767,12.8287249 L178.896116,13.01132 C179.839525,12.6714902 180.803221,12.4026695 181.766918,12.1237047 L181.619827,12.1642814 L180.580049,12.4584625 L180.919879,12.3620928 C179.753299,12.6410576 178.601935,12.9656712 177.440427,13.2649244 C177.460716,13.2598523 179.930822,12.544688 180.772789,12.3418045 C180.230075,12.4229579 179.68229,12.5294717 179.134505,12.6156972 L180.133706,12.3925254 C179.372893,12.4381741 178.617152,12.5649763 177.861411,12.6562739 L178.464989,12.5548322 C176.978867,12.7171389 175.513034,12.9859596 174.037057,13.1888431 C174.574698,13.0214642 175.127556,12.955527 175.675341,12.8540853 C174.488473,12.778004 170.993804,13.2497081 169.309872,13.477952 L169.903306,13.417087 C166.87527,13.8735748 163.88781,14.5532345 160.869918,15.0756595 L161.524218,15.6893821 L161.022081,16.0951491 C162.974834,16.7595925 164.542109,15.3850569 166.312268,15.0756595 L165.784771,15.3546243 L166.094168,15.3647685 L165.840564,15.5270753 C166.449214,15.4966428 172.819756,14.4264324 174.275445,14.0054491 C173.621146,14.3047023 172.961774,14.5938112 172.287187,14.8524877 L172.520503,14.6496042 C172.160385,14.6800367 172.160385,14.6800367 171.41986,14.8829202 L171.693753,14.756118 C170.998877,14.8626319 170.344577,15.1263804 169.654773,15.2633268 L169.877945,15.0807316 C168.630212,15.3647685 167.402767,15.7045984 166.160105,16.0292119 L166.423854,15.8770493 C166.155033,15.8415447 166.155033,15.8415447 162.543707,17.4646126 L162.832816,17.4747568 L162.984979,17.718217 C163.979108,17.8044425 164.841363,17.3225942 165.764483,17.1095665 C161.620587,20.1781793 156.20867,20.6549555 152.095207,23.7895055 L152.673425,23.9416681 C152.495902,24.3981559 152.495902,24.3981559 151.476413,25.1336086 L151.20252,24.5401744 C150.18303,24.6111836 146.759371,25.8994938 146.399253,26.898695 C146.632569,26.8885508 146.632569,26.8885508 149.467866,26.0212239 C145.354403,28.5116187 140.495344,29.3282248 136.397097,31.8490522 C133.19661,33.8220941 125.705137,38.640577 125.339947,40.8621513 C125.598623,40.9990976 125.598623,40.9990976 127.176042,40.6339073 C127.135466,41.0650347 127.135466,41.0650347 125.456605,42.4091379 C124.944324,42.8199769 123.995844,43.58079 124.665359,45.7009225 L136.640557,39.5028319 L136.036979,40.0759777 C136.437674,39.9238151 136.437674,39.9238151 137.923795,38.7876676 C139.217178,37.7986105 139.217178,37.7986105 146.931822,35.2422786 L147.14485,35.445162 L147.768717,35.3741528 C147.865086,35.3437203 148.255637,35.1864856 149.239622,34.4206004 C150.233751,33.639499 151.522061,33.7865895 152.622704,33.3402458 C155.96521,32.0012148 159.713482,32.1381611 162.959618,30.4745165 C163.050916,29.0340437 163.050916,29.0340437 164.258073,27.6189314 C163.553052,28.9681066 163.659566,29.1456296 163.872594,29.4905316 C165.698545,29.3028643 165.749266,27.4616967 166.697747,26.4574234 C167.615794,25.9197821 171.277841,22.7243671 171.303202,22.6990067 L171.546662,22.5519162 L171.556806,22.5569883 L174.57977,19.6658985 C175.38116,18.1290561 178.814963,15.7806797 178.840324,15.7806797 L179.895318,14.5075858 M168.939609,15.278543 L169.406241,15.1314525 L169.401169,15.1263804 C169.294655,15.1365246 168.386752,15.3495522 167.007144,15.8060401 C167.651299,15.6335891 168.295454,15.4611382 168.939609,15.278543 M175.279718,19.3717175 L175.335511,19.3108524 L175.300007,19.3412849 L174.412391,19.9752958 L174.376887,20.1680352 C174.43268,20.1832514 174.731933,19.9195029 175.279718,19.3717175 M124.660287,43.0482209 L124.731296,42.764184 L124.589278,42.9062024 L124.193655,43.4134112 L124.660287,43.0482209" id="Fill-309" fill="#FFFFFE" mask="url(#mask-2)"></path>
                    <path d="M275.331712,308.531413 C276.05702,307.679303 276.533797,306.659813 277.183024,305.751909 C276.675815,305.41208 276.569301,305.092538 276.71132,304.397662 L275.676614,305.067178 C275.184621,305.335998 274.601331,305.427296 274.18542,305.838135 L274.012969,306.933706 C273.211579,307.917691 272.090648,308.561846 271.218249,309.479894 C270.924068,309.444389 270.924068,309.444389 270.132822,310.053039 L268.098915,311.767405 C267.180868,312.589083 264.32021,315.023685 264.315138,315.028757 C262.818873,316.119256 261.018282,316.73805 259.658962,318.036505 L259.172042,318.467632 L257.665632,319.177724 C256.747584,319.918249 256.235303,321.074685 255.170165,321.673191 C254.059378,322.30213 253.298565,323.194818 253.207267,323.387557 C253.455799,323.499143 253.455799,323.499143 253.917359,323.407845 C253.471016,324.838174 253.354358,325.223652 244.427484,330.381965 C244.665872,330.3211 244.665872,330.3211 246.182426,329.605936 C243.666671,331.036264 241.181348,334.246896 241.166132,334.267184 C241.759566,334.525861 241.952306,334.454851 242.768912,334.150526 C243.717392,333.800552 249.854617,331.056553 249.88505,331.041337 C251.497974,330.163865 252.53268,328.606735 253.957936,327.516236 C254.576731,327.044532 254.576731,327.044532 255.971555,326.197493 L255.296967,326.841648 C256.027348,326.537323 260.044441,323.803468 260.876263,322.586167 L260.369054,322.809339 C262.920314,321.044253 264.193408,320.156637 264.365859,319.471905 C265.167249,319.48205 267.023633,318.391551 267.825023,317.255403 L267.485193,317.098169 L267.485193,317.103241 L267.480121,317.103241 L267.480121,317.108313 C269.361865,314.947604 271.573295,312.883264 272.638434,311.889135 C272.075432,312.07173 272.055144,312.07173 271.705169,312.066658 L271.624016,311.823198 L271.375484,311.747117 L271.329835,311.549305 C272.212378,310.712411 273.125354,309.916093 273.962248,309.038622 C274.251357,309.099487 274.738278,309.195857 275.331712,308.531413 M277.776458,305.711333 L277.923548,304.980952 L277.862683,304.996168 L277.183024,305.751909 L277.776458,305.711333" id="Fill-310" fill="#FFFFFE" mask="url(#mask-2)"></path>
                    <path d="M167.742597,78.623841 L167.595506,78.8825175 L166.870198,79.6585469 C165.916645,80.9874337 165.962294,83.0010524 164.110982,83.7212888 L163.385674,83.8227305 C161.747389,83.8176584 160.124321,83.5894145 158.496181,83.558982 C157.360034,83.5386936 156.543428,84.6393366 156.538356,84.6494807 L155.559443,84.72049 L154.768197,83.6857841 L154.879783,83.2394405 C155.021802,82.6764388 155.50365,82.2858881 155.645668,81.7228864 C155.853624,80.9113524 155.676101,80.0643138 155.894201,79.2527799 L156.107228,78.6847061 L156.279679,78.4564622 L157.055709,77.7362258 C158.161424,76.3616901 158.070126,74.089395 160.240979,73.5213212 C160.854702,73.3640865 160.773549,71.8576766 160.707611,71.2185936 L159.505527,70.6099431 C158.876588,69.6614628 158.957741,68.4188014 158.242577,67.5058257 C156.355761,72.9481754 155.655813,74.7690547 153.576257,76.9246918 C152.835732,77.6956491 148.909936,80.0338813 147.099201,79.0448243 C146.865885,77.9036047 146.865885,77.9036047 148.915009,75.3574168 C149.650461,70.9599172 151.009781,69.8186975 153.982024,68.7941359 C158.551974,67.2167168 158.937453,65.0661517 159.282355,63.164119 C158.927309,62.8597938 158.876588,62.7025591 159.191057,62.1243411 C159.541031,61.480186 160.256196,61.2113654 160.677179,60.6483637 C161.072802,60.1208667 160.661963,59.0100795 161.574938,58.918782 L161.757534,58.9238541 L162.457482,59.2586118 C163.177718,59.0151516 163.816801,59.4919278 164.506605,59.502072 C163.507404,61.1606445 163.61899,61.2975909 164.156631,61.941746 C165.100039,61.3077351 165.997799,61.5258348 165.652897,62.6721266 C165.307995,63.7981299 164.100838,64.4575013 163.999396,65.7153789 C163.958819,66.2175156 165.003669,70.5744385 165.013814,70.6200873 C166.337628,75.829121 166.337628,75.829121 166.433998,75.9964998 C166.7789,76.589934 167.463632,76.8891872 167.778101,77.5130539 L167.742597,78.623841" id="Fill-311" fill="#FFFFFE" mask="url(#mask-2)"></path>
                    <path d="M161.635803,41.2882066 C160.596026,42.8402653 156.883258,43.9764128 155.894201,44.103215 C152.840804,44.5140541 152.34374,42.5460842 152.34374,42.5257959 L152.602416,41.9932267 L154.108826,40.4360959 C155.686245,38.985479 154.849351,38.6253608 154.534881,38.4934865 C155.655813,37.5450062 156.320256,37.1138788 156.705735,37.0935904 L156.781816,37.4841411 C156.817321,38.7673792 158.354163,38.5289911 158.861372,38.4529098 C161.392343,38.0674312 161.392343,38.0674312 161.696669,38.3261076 C162.330679,38.8586768 162.198805,40.4462401 161.635803,41.2882066" id="Fill-312" fill="#FFFFFE" mask="url(#mask-2)"></path>
                    <path d="M184.155871,16.2523838 L184.115294,16.0444282 L183.435635,15.3749127 L183.369697,15.5270753 L182.933498,15.3444802 L183.029868,15.8770493 L182.953786,16.3436814 C182.897993,17.1095665 182.897993,17.1095665 182.847272,17.1602874 C182.781335,17.0943503 182.745831,17.0385573 182.629173,16.3893301 L182.47701,16.6987275 L182.395857,17.1602874 L182.365424,16.4654114 L182.172685,16.6023578 L182.081387,16.379186 C182.147324,16.8559622 182.091531,17.3530267 182.182829,17.8298029 L182.218334,17.9870376 L182.45165,18.2355699 C182.588596,18.7022019 182.563236,19.1941944 182.700182,19.6608264 L182.984219,19.2804199 C183.384914,20.6853881 183.415346,20.6853881 183.780537,20.6549555 L183.755176,19.5593847 L183.846474,18.763067 L183.704455,17.6218473 C183.816041,17.662424 183.963132,17.9819655 184.216736,18.529751 C184.500773,19.1434735 184.774666,19.752124 185.063775,20.3557024 L185.210865,20.6498834 L184.977549,19.6050335 L185.292019,20.1173143 L185.322451,20.0919538 L185.104351,18.94059 L184.749305,18.4942464 L184.47034,18.0174702 L184.373971,18.1594886 L183.547221,16.8914668 L183.932699,16.9421876 L184.237024,17.1653595 L184.115294,16.495844 L184.155871,16.2523838" id="Fill-313" fill="#FFFFFE" mask="url(#mask-2)"></path>
                    <path d="M196.785368,19.229699 L196.562196,19.0826085 L196.526692,19.1333294 L195.831816,19.0978247 L196.810729,19.7571961 L195.978906,19.5340242 L195.948474,19.5948893 L196.344097,19.9448633 L195.223165,19.5543126 L196.475971,20.6143788 L195.69487,20.335414 C195.699942,20.3506303 196.770152,21.8113914 199.549656,23.6170545 L199.275763,23.5105407 C199.21997,23.8148659 200.224243,24.7379858 200.706092,25.1792574 C201.269093,25.6915382 201.685005,26.3407654 202.263223,26.8378299 C202.283511,26.8581183 204.733329,28.9123136 205.681809,29.0543321 C205.681809,28.9528903 205.676737,28.9224578 205.179673,28.526835 L205.940486,28.6181326 L207.137498,29.2673597 L207.609203,29.0949088 L207.416463,28.6232047 L207.624419,28.6232047 L202.425529,25.5545918 L200.376406,24.0735424 L201.157508,24.3220746 L201.669788,24.3626513 C201.55313,24.0228215 200.528569,23.2315759 199.92499,22.7852322 C198.312067,21.5983638 197.754137,20.9947854 197.749065,20.9897133 L198.555527,21.5932917 C199.31634,22.191798 199.458358,22.1410771 199.509079,22.1207888 C198.910573,21.03029 197.622263,20.8274065 196.805657,20.0158725 L196.841161,19.9651517 L197.83529,20.3404861 L197.44474,20.0868818 C198.078751,20.1122422 198.545383,20.5535138 199.108384,20.7462531 C198.525094,20.2593327 197.759209,20.0818097 197.160703,19.6151776 L197.22664,19.6202497 L196.785368,19.229699" id="Fill-314" fill="#FFFFFE" mask="url(#mask-2)"></path>
                    <path d="M157.735368,13.3055011 C159.617113,13.183771 161.808254,12.7475715 161.823471,12.7424994 C161.727101,12.6816343 161.711885,12.6714902 159.936654,12.722211 C158.6382,12.7627877 157.857098,12.7881482 157.410755,12.6512018 C157.882459,12.4026695 161.037297,12.2251465 162.127796,12.1896419 C164.268217,12.1186326 165.338427,12.083128 165.784771,11.9918305 L165.703617,11.9512538 C165.683329,11.9512538 163.431322,11.7686586 161.610443,11.8041632 C160.748188,11.8143074 160.7279,11.7940191 160.408358,11.5454868 C159.566392,11.6520006 158.719353,11.7635865 157.877387,11.8751725 C156.847753,12.0070467 155.782615,11.849812 154.793558,12.2657232 C154.874711,12.3062999 154.92036,12.3265882 155.934777,12.3823812 C154.966009,12.605553 154.646467,12.7171389 154.560242,12.8642295 L154.590674,12.9200224 C153.662482,13.1229059 153.662482,13.1229059 153.550896,13.2344918 C153.961735,13.5033125 156.350689,13.3917266 157.735368,13.3055011 M160.393142,11.5404147 L161.412632,11.38318 L161.40756,11.3730358 C161.21482,11.3172429 159.840285,11.3527475 158.212145,11.4643334 C160.063456,11.3679637 160.306917,11.499838 160.393142,11.5404147" id="Fill-315" fill="#FFFFFE" mask="url(#mask-2)"></path>
                    <path d="M158.942525,16.4806277 L160.033024,16.2219513 L159.130192,15.3546243 L159.175841,15.2582547 C160.281556,14.9234969 161.437992,14.8626319 162.553851,14.6140996 C161.727101,14.7155413 161.437992,14.7358297 161.255397,14.7104692 L161.245253,14.6546763 C162.021282,14.228621 162.929186,14.233693 163.74072,13.9293678 C160.443863,14.2184768 160.443863,14.2184768 158.765002,14.6090275 L159.206274,14.5329462 L159.114976,14.5684508 L160.159826,14.4568649 L157.086141,15.0807316 C156.142733,15.2481105 156.097084,15.2836151 156.051435,15.3191197 L156.370977,15.3647685 C155.96521,15.8618331 155.04209,15.2531826 154.813846,16.0139957 L155.74711,16.379186 L156.218814,16.8711784 L156.289823,16.9117551 L156.416626,16.9371156 C156.751383,16.9726202 157.882459,16.7240879 158.942525,16.4806277" id="Fill-316" fill="#FFFFFE" mask="url(#mask-2)"></path>
                    <polyline id="Fill-317" fill="#FFFFFE" mask="url(#mask-2)" points="159.018606 14.6090275 159.135264 14.5836671 158.8563 14.6090275 159.206274 14.5430904 159.206274 14.5329462 158.633128 14.6343879 158.643272 14.6343879 157.476692 14.8017668 157.22816 14.8575598 157.34989 14.8626319 157.704936 14.8220552 159.018606 14.6090275"></polyline>
                    <path d="M5.71476842,132.119146 L5.62347085,132.34739 L5.71984051,131.916262 L7.92112639,124.019022 C6.94728563,127.24487 6.38428394,129.466444 6.19154463,130.272906 C6.05459827,130.830835 5.90243565,131.581504 5.71476842,132.119146" id="Fill-318" fill="#FFFFFE" mask="url(#mask-2)"></path>
                    <path d="M3.87867283,146.341278 C3.3714641,144.145065 3.21930148,143.480621 4.13734928,138.768652 L3.95982622,139.767853 C4.44167452,138.479543 4.41631408,137.044142 5.08075751,135.806553 L5.11626212,136.019581 C5.03003664,137.373828 4.42138617,142.476348 3.93446579,146.584738 L3.87867283,146.341278" id="Fill-319" fill="#FFFFFE" mask="url(#mask-2)"></path>
                    <path d="M196.095564,15.5980845 L197.165775,15.9582027 C197.074477,15.973419 196.88681,15.9987794 193.838486,15.217678 L194.594227,15.4662103 C193.84863,15.6133008 193.229835,15.1213083 192.524815,15.0553712 L192.890005,15.2328942 C192.732771,15.2734709 192.103832,15.0705874 191.54083,14.8879923 C190.942324,14.695253 190.34889,14.5025137 189.745311,14.3300627 L190.790161,14.7104692 L188.254117,13.9344399 L188.30991,13.9090795 L187.412151,13.5793938 L188.152676,13.7772052 L187.036817,13.4221591 C187.067249,13.4272312 193.600097,14.8626319 196.095564,15.5980845" id="Fill-320" fill="#FFFFFE" mask="url(#mask-2)"></path>
                    <path d="M158.617912,14.6343879 C157.476692,14.8017668 156.340544,14.9995782 155.189181,15.1060921 C157.694792,14.5177299 157.694792,14.5177299 157.770873,14.4467207 C156.939051,14.1474676 156.117372,14.8778481 155.290622,14.461937 L155.290622,14.4112161 C155.549299,14.2793418 156.279679,14.1373234 157.720152,13.8887911 L156.416626,14.0713862 L157.649143,13.8025656 L158.075198,13.6605472 L157.633927,13.6402588 C158.384596,13.5489613 159.12512,13.4069428 159.880861,13.3866545 L159.840285,13.4424474 C160.48444,13.7011239 161.148883,13.1888431 161.793038,13.5033125 C161.737245,13.5540333 161.686524,13.5996821 160.87499,13.7924214 C159.92651,14.0206654 159.738843,14.0866025 159.68305,14.1677559 L159.916366,14.233693 C159.865645,14.2996302 159.850429,14.3148464 158.66356,14.6242438 L158.617912,14.6343879" id="Fill-321" fill="#FFFFFE" mask="url(#mask-2)"></path>
                    <path d="M346.493096,209.656144 C346.482952,209.706865 345.534472,214.642006 345.06784,214.971691 L344.991759,214.829673 L345.06784,214.875322 C345.975744,209.706865 346.11269,204.436966 347.030738,199.263437 C347.187972,205.852078 346.878575,207.530939 346.493096,209.656144" id="Fill-322" fill="#FFFFFE" mask="url(#mask-2)"></path>
                    <path d="M205.757891,12.3367324 C208.009897,12.5345438 208.187421,12.6258414 208.248286,12.6562739 L208.233069,12.6816343 L207.365742,12.9149503 L207.188219,13.2091314 C206.366541,13.2750685 205.590512,13.2750685 203.708767,13.1939152 L203.774705,13.1685547 L204.454364,13.0772571 L204.555806,13.0214642 L204.165255,12.8845178 L204.221048,12.8743737 L203.627614,12.6917785 L202.998675,12.5091834 C203.049396,12.4939671 203.145766,12.4533904 204.124679,12.5396159 L204.611599,12.5751205 L205.864405,12.4229579 C205.788323,12.3620928 205.534719,12.3215161 204.860131,12.2657232 L205.757891,12.3367324" id="Fill-323" fill="#FFFFFE" mask="url(#mask-2)"></path>
                    <path d="M167.661443,13.2649244 C166.210826,13.4323033 165.794915,13.4627358 165.73405,13.417087 L166.048519,13.300429 L165.906501,13.2902848 L165.379004,13.3562219 L166.5608,13.1482664 L166.550656,13.127978 L166.352845,13.0874013 L170.141694,12.778004 C169.472178,13.0011758 168.731654,12.8591574 168.072282,13.1431943 L168.087498,13.1685547 L168.239661,13.1888431 L167.661443,13.2649244" id="Fill-324" fill="#FFFFFE" mask="url(#mask-2)"></path>
                    <path d="M195.471698,14.9133527 C196.115853,15.0858037 196.775224,15.1923175 197.394019,15.4763544 L196.227439,15.2024617 L196.577413,15.3292639 L196.288304,15.2937593 C195.765879,15.1771013 195.253598,15.045227 194.731173,14.9234969 C195.314463,15.0807316 195.907897,15.2278221 196.491187,15.3799848 L195.289103,15.1669571 L195.69487,15.3292639 L196.856378,15.6690937 L197.56647,15.9784911 L192.656689,14.5583066 L193.026952,14.6140996 L193.38707,14.6496042 L194.06673,14.7307576 L194.087018,14.6749646 C194.09209,14.6749646 194.685524,14.7053972 195.471698,14.9133527" id="Fill-325" fill="#FFFFFE" mask="url(#mask-2)"></path>
                    <path d="M166.865125,12.6004809 L168.914249,12.4026695 L168.888888,12.3975974 C168.259949,12.3620928 167.636083,12.3975974 167.007144,12.4128137 L167.037576,12.3925254 L162.873393,12.4838229 C163.40089,12.7069948 163.948675,12.5142555 164.481244,12.5801926 L164.374731,12.6106251 C165.495662,12.5294717 165.495662,12.5294717 166.865125,12.6004809" id="Fill-326" fill="#FFFFFE" mask="url(#mask-2)"></path>
                    <path d="M180.346733,122.248864 L179.738083,125.895694 C179.58592,126.59057 179.433758,126.813742 179.296811,127.006482 C178.830179,127.681069 177.587518,127.483258 177.161463,126.854319 L176.907858,125.961632 L176.902786,125.601513 C176.907858,124.673321 177.120886,123.760346 177.125958,122.832154 C177.125958,122.162638 176.781056,121.523555 176.923075,120.838823 C177.10567,119.981641 177.699104,119.545441 178.688161,119.540369 C180.443103,119.631667 180.432959,121.46269 180.346733,122.248864" id="Fill-327" fill="#FFFFFE" mask="url(#mask-2)"></path>
                    <path d="M165.252202,13.9851608 C164.78557,14.05617 164.313866,14.0815304 163.847234,14.117035 L164.039973,14.0815304 L162.797311,14.1880443 C162.832816,14.1474676 162.868321,14.1068909 163.776224,13.9242957 C164.496461,13.8634307 165.211625,13.7417006 165.926789,13.6453309 C168.691077,13.2598523 168.691077,13.2598523 169.096844,13.3511499 L165.252202,13.9851608" id="Fill-328" fill="#FFFFFE" mask="url(#mask-2)"></path>
                    <polyline id="Fill-329" fill="#FFFFFE" mask="url(#mask-2)" points="187.371574 15.3495522 187.052033 15.161885 187.599818 15.5372195 187.549097 15.4864986 187.366502 15.3495522"></polyline>
                    <path d="M186.590473,14.867704 C186.149201,14.6039554 185.70793,14.3402069 185.24637,14.1119629 L185.560839,14.3148464 L184.652936,13.7974935 L185.39346,14.2945581 L185.05363,14.1068909 L185.961534,14.7307576 L185.910813,14.6800367 L185.926029,14.6698925 L186.671626,15.10102 L186.600617,15.0300107 L187.123042,15.2481105 L187.128114,15.2379663 L186.590473,14.867704" id="Fill-330" fill="#FFFFFE" mask="url(#mask-2)"></path>
                    <path d="M135.788447,23.1707108 C133.110385,24.0684703 132.811131,24.0177494 131.6902,23.819938 C135.250805,22.6279975 135.900033,22.6939346 136.077556,22.8460972 L136.102916,23.064197 L135.788447,23.1707108" id="Fill-331" fill="#FFFFFE" mask="url(#mask-2)"></path>
                    <polyline id="Fill-332" fill="#FFFFFE" mask="url(#mask-2)" points="206.87375 6.20457888 207.472256 6.28573228 207.467184 6.29587645 207.33531 6.34659732 207.730933 6.38717402 207.705572 6.40239028 207.923672 6.53933664 207.82223 6.63063421 207.345454 6.54948082 206.16873 6.49368786 206.143369 6.47847159 206.143369 6.46832742 206.224523 6.43282281 206.762164 6.31109271 206.853462 6.25529975 206.701299 6.18936262 206.87375 6.20457888"></polyline>
                    <path d="M4.41631408,150.556183 C4.18299807,151.611177 4.06634006,151.585817 3.98518666,151.44887 C3.54898716,150.693129 4.22357476,147.533219 4.47210704,147.6093 L4.62426966,147.933914 C4.75107184,148.496915 4.68513471,149.308449 4.41631408,150.556183" id="Fill-333" fill="#FFFFFE" mask="url(#mask-2)"></path>
                    <path d="M206.006423,11.6672169 L205.681809,11.6469285 L206.985336,11.8143074 C206.782452,11.8599562 205.757891,11.8396678 204.941285,11.8193795 C204.251481,11.8041632 203.566749,11.733154 202.882017,11.7737307 L202.922594,11.7838749 C203.855858,11.8650283 204.794194,11.9411096 205.717314,12.0324072 L205.255754,11.9411096 C205.306475,11.9157492 205.433277,11.8447399 207.411391,11.9461817 L207.076633,11.9309654 L207.928744,11.8447399 C207.801942,11.788947 207.801942,11.788947 206.006423,11.6672169" id="Fill-334" fill="#FFFFFE" mask="url(#mask-2)"></path>
                    <path d="M225.559319,142.04522 C224.945597,142.62851 224.260865,142.861826 223.52034,142.729952 C222.064651,142.476348 220.994441,141.350344 219.584401,140.990226 C220.695188,141.269191 221.74511,140.812703 222.825464,140.716334 C224.057982,140.640252 224.828939,140.929361 225.767275,141.827121 L225.559319,142.04522" id="Fill-335" fill="#FFFFFE" mask="url(#mask-2)"></path>
                    <path d="M180.098201,115.188518 C179.961255,117.212281 178.6628,117.714418 178.089655,117.100695 C177.59259,116.573198 177.359274,115.163158 177.648383,114.361768 C178.02879,113.276341 179.519983,113.017665 179.535199,113.017665 C179.763443,113.058242 180.245292,113.144467 180.098201,115.188518" id="Fill-336" fill="#FFFFFE" mask="url(#mask-2)"></path>
                    <path d="M186.955663,14.9032086 C185.860092,14.2691977 183.445779,13.0011758 183.415346,12.9910317 C184.510917,13.589538 185.601416,14.2083326 186.68177,14.8372714 L186.341941,14.6648205 L186.935375,15.0502991 L186.554968,14.7966947 L187.488232,15.3394081 L188.675101,15.9835632 L186.955663,14.9032086" id="Fill-337" fill="#FFFFFE" mask="url(#mask-2)"></path>
                    <path d="M186.341941,14.7053972 L186.281076,14.6698925 L187.33607,15.3191197 L187.315781,15.3089755 L186.341941,14.7053972 M186.666554,14.8524877 L186.539752,14.7764064 L186.539752,14.7814785 L187.33607,15.3241918 L187.386791,15.3495522 L187.391863,15.3495522 L186.666554,14.8524877 M188.416424,15.9277702 L187.538953,15.4408498 L187.569386,15.4560661 L188.416424,15.9277702" id="Fill-338" fill="#FFFFFE" mask="url(#mask-2)"></path>
                    <path d="M212.701578,12.7424994 L212.458118,12.6917785 L212.46319,12.7069948 C212.36682,12.7475715 211.808891,12.7627877 210.556085,12.6867064 L210.667671,12.7120669 L211.41834,12.9808875 L211.428484,12.9961037 L211.433556,12.9961037 L211.54007,12.8895899 L211.504566,12.8490132 L211.600935,12.8287249 L212.564632,12.8845178 L213.462391,12.8895899 L212.701578,12.7424994" id="Fill-339" fill="#FFFFFE" mask="url(#mask-2)"></path>
                    <path d="M246.664275,139.057761 C246.080985,140.29535 245.614353,141.274263 244.853539,141.477147 C244.234745,141.644525 243.661599,141.324984 243.656527,141.324984 L243.0073,140.036674 C243.889843,138.930959 244.214456,138.52012 245.041207,138.352741 C245.619425,138.30202 246.030264,138.403462 246.791077,138.799085 L246.664275,139.057761" id="Fill-340" fill="#FFFFFE" mask="url(#mask-2)"></path>
                    <path d="M186.478887,15.4002731 L185.251442,14.5380183 L185.307235,14.5836671 L185.63692,14.872776 L185.63692,14.8626319 L186.017327,15.1365246 L186.31658,15.3444802 L186.549896,15.4662103 L186.554968,15.4611382 L186.478887,15.4002731 M185.687641,14.9133527 L185.63692,14.872776 L185.641993,14.8778481 L186.448454,15.5930124 L186.341941,15.4864986 L185.687641,14.9133527 M186.29122,15.5017149 L185.626776,14.9792899 L186.610761,15.7908238 L186.29122,15.5017149" id="Fill-341" fill="#FFFFFE" mask="url(#mask-2)"></path>
                    <polyline id="Fill-342" fill="#FFFFFE" mask="url(#mask-2)" points="204.357995 2.55267604 204.41886 2.56282021 204.484797 2.57296439 204.550734 2.58310856 204.611599 2.59325274 204.672464 2.608469 204.738401 2.61861317 204.799266 2.62875735 204.860131 2.63890152 204.920996 2.6490457 204.981861 2.65918987 205.042726 2.66933405 205.103591 2.67947822 205.164456 2.6896224 205.225322 2.69976657 205.281114 2.71498283 205.347052 2.72512701 205.407917 2.73527118 205.46371 2.74541536 205.524575 2.75555953 205.590512 2.77077579 205.646305 2.77584788 205.712242 2.79106414 205.778179 2.80120832 205.839044 2.81135249 205.899909 2.82656875 205.970918 2.83671293 206.036855 2.8468571 206.097721 2.86207336 206.16873 2.87221754 206.239739 2.88236171 206.305676 2.89757797 205.012294 2.67947822 204.286985 2.54253186 204.357995 2.55267604"></polyline>
                    <path d="M207.487472,32.1635216 L208.045402,32.8127487 L208.04033,32.8178208 L207.817158,32.7671 L207.923672,32.9547672 L207.517905,33.0866415 L207.462112,33.0359206 C207.076633,32.6352257 206.736804,32.188882 206.280316,31.8693405 L206.280316,31.8591963 L206.579569,31.7780429 L206.31582,31.5092223 L206.331037,31.4990781 L207.487472,32.1635216" id="Fill-343" fill="#FFFFFE" mask="url(#mask-2)"></path>
                    <path d="M10.8578649,115.274744 C11.1368297,114.478426 11.8621382,112.459735 12.5316537,110.917821 C11.9432916,112.39887 11.3802899,113.890064 10.8325045,115.391402 L10.8578649,115.274744" id="Fill-344" fill="#FFFFFE" mask="url(#mask-2)"></path>
                    <path d="M75.6892845,59.8165414 C73.741603,59.9129111 75.3494547,58.1326084 75.369743,58.1123201 L76.3232954,57.9246529 C76.414593,58.0717434 76.3790884,58.2391223 76.1204119,58.8376286 C75.8820238,59.4057023 75.8363751,59.5375766 75.77551,59.8114693 L75.6892845,59.8165414" id="Fill-345" fill="#FFFFFE" mask="url(#mask-2)"></path>
                    <path d="M211.068366,29.6832709 C210.566229,29.8405056 210.566229,29.8405056 210.34813,29.7694964 L208.862008,28.9528903 C209.465586,28.9630345 209.835849,28.9681066 211.093727,29.6781988 L211.068366,29.6832709" id="Fill-346" fill="#FFFFFE" mask="url(#mask-2)"></path>
                    <polyline id="Fill-347" fill="#FFFFFE" mask="url(#mask-2)" points="211.164736 29.7187755 211.093727 29.6781988 211.124159 29.6680546 211.164736 29.7187755"></polyline>
                    <path d="M113.146649,28.3442399 C112.228601,28.7347906 111.625023,28.5877 111.619951,28.582628 C111.619951,28.5775559 112.122087,27.9841217 114.313229,27.6341476 L113.471263,28.1971493 L113.146649,28.3442399" id="Fill-348" fill="#FFFFFE" mask="url(#mask-2)"></path>
                    <path d="M114.764645,26.609586 C114.14585,26.5994418 113.521984,26.5943697 112.898117,26.5892977 L113.471263,26.2799003 C114.531329,25.9451426 114.942168,25.8842775 115.04361,26.0567285 L114.932024,26.6146581 L114.764645,26.609586" id="Fill-349" fill="#FFFFFE" mask="url(#mask-2)"></path>
                </g>
                <path d="M208.417913,287.199114 C219.716915,222.384002 282.116082,144.883305 426.573592,110.401785 C440.701193,271.88101 381.575276,433.649752 224.563522,360.054175 C291.279074,304.026329 346.87571,239.602276 391.353429,166.782018 C332.402727,250.237483 274.307326,312.87251 217.067225,354.687097 C167.701499,333.523365 116.111469,302.234001 62.2971341,260.819003 C93.1538809,292.249262 143.083464,326.026143 212.085885,362.149647 C87.6481661,447.319204 32.8095904,279.459946 12,225.184651 C109.04697,213.153665 180.820924,242.487883 208.417913,287.199114 Z" id="Path-2-Copy-2" fill="#81CF5C" transform="translate(220.297751, 248.115255) rotate(5.000000) translate(-220.297751, -248.115255) "></path>
            </g>
        </g>
    </g>
</svg>