<svg id="Layer_1" data-name="Layer 1" xmlns="http://www.w3.org/2000/svg" viewBox="0 0 24 24.01"><defs><style>.cls-1{fill:#007caa;}</style></defs><title>Fix-price-icon_SVG</title><path class="cls-1" d="M12,17.49A5.49,5.49,0,1,1,17.49,12,5.48,5.48,0,0,1,12,17.49Zm0-9.75h-.22c-.18,0-.18,0-.18.18a2,2,0,0,0,0,.35.12.12,0,0,1-.12.14,1.87,1.87,0,0,0-.4.13A2.06,2.06,0,0,0,9.85,10a3.11,3.11,0,0,0,0,.68,1.66,1.66,0,0,0,.51,1.17,3.68,3.68,0,0,0,1.47.79,4.11,4.11,0,0,1,1,.38.86.86,0,0,1,.34,1,1.15,1.15,0,0,1-1.68.58,1.61,1.61,0,0,1-.63-.8c-.09-.18-.08-.18-.27-.12l-.79.22c-.13,0-.16.09-.13.22a1.92,1.92,0,0,0,.91,1.21,2.07,2.07,0,0,0,.87.31c.18,0,.18,0,.18.23s0,.22,0,.33a.11.11,0,0,0,.12.12h.52c.1,0,.14,0,.13-.14v-.37a.12.12,0,0,1,.12-.14,3.43,3.43,0,0,0,.46-.11,2,2,0,0,0,1.25-1,1.91,1.91,0,0,0,.18-.81,1.93,1.93,0,0,0-.28-1.15,1.88,1.88,0,0,0-1-.75c-.43-.15-.88-.27-1.32-.42a1.08,1.08,0,0,1-.76-1.2,1,1,0,0,1,.9-.83,1,1,0,0,1,1,.62,2.83,2.83,0,0,1,.14.41.09.09,0,0,0,.13.08l1-.28a.07.07,0,0,0,.06-.09,1.45,1.45,0,0,0-.12-.42,2.24,2.24,0,0,0-1.5-1.2c-.2,0-.2,0-.2-.24V8.12C12.39,7.74,12.39,7.74,12,7.74Z"/><path class="cls-1" d="M24,4a4.68,4.68,0,0,1-1.24,3.27A2.37,2.37,0,0,1,21.22,8c-.49.05-1,0-1.47.05a4.3,4.3,0,0,0-1.62.37,2.43,2.43,0,0,0-.63.46c-.12.13-.13.13-.22,0A6.11,6.11,0,0,0,15.56,7c-.15-.11-.31-.21-.47-.31s-.1-.08,0-.15a2.05,2.05,0,0,0,.62-1.68c0-.32,0-.65,0-1a2.55,2.55,0,0,1,.48-1.63A5.21,5.21,0,0,1,17.69.77,5.16,5.16,0,0,1,19.09.1,2.47,2.47,0,0,1,19.9,0c.26,0,.37.19.25.42L19.81,1c-.23.39-.46.77-.67,1.17a1.29,1.29,0,0,0,.5,1.8c.26.16.52.3.78.45a1.29,1.29,0,0,0,1.84-.49l.91-1.58.09-.14a.22.22,0,0,1,.24-.13.25.25,0,0,1,.22.2,6.32,6.32,0,0,1,.22,1A4.82,4.82,0,0,1,24,4Z"/><path class="cls-1" d="M0,19.89a4.46,4.46,0,0,1,1.28-3.21A2.26,2.26,0,0,1,2.74,16a6.66,6.66,0,0,1,.77,0,8.3,8.3,0,0,0,1.79-.18,2.4,2.4,0,0,0,1.19-.67c.14-.14.14-.14.24,0a6,6,0,0,0,2.16,2.16c.09.05.09.09,0,.15a2,2,0,0,0-.59,1.39,9.43,9.43,0,0,0,0,1.19,2.65,2.65,0,0,1-.58,1.85,5.62,5.62,0,0,1-2.86,2,2.17,2.17,0,0,1-.76.09c-.3,0-.41-.19-.26-.45l.69-1.19c.11-.2.23-.4.34-.61a1.29,1.29,0,0,0-.42-1.65,10.38,10.38,0,0,0-1-.59A1.26,1.26,0,0,0,1.79,20c-.34.55-.65,1.13-1,1.69-.07.13-.13.28-.32.25s-.21-.18-.25-.32A6.66,6.66,0,0,1,0,19.89Z"/></svg>