<?xml version="1.0" encoding="UTF-8"?>
<svg width="24px" height="24px" viewBox="0 0 24 24" version="1.1" xmlns="http://www.w3.org/2000/svg" xmlns:xlink="http://www.w3.org/1999/xlink">
    <!-- Generator: Sketch 53 (72520) - https://sketchapp.com -->
    <desc>Created with Sketch.</desc>
    <defs>
        <path d="M6.34249603,6.19608506 L2.83282485,12.4302584 C2.79555684,12.4960384 2.70962484,12.5215584 2.64767284,12.4839604 L1.07210975,11.5230333 C1.00245775,11.4803973 0.97893975,11.3815513 1.02073975,11.3070043 L4.53143393,5.072182 C4.55661293,5.027027 4.60108594,5 4.65010194,5 C4.67359794,5 4.69574094,5.00638 4.71606894,5.018799 L6.29213802,5.97990205 C6.36146003,6.02202105 6.38463703,6.12088906 6.34249603,6.19608506 Z M22.9791609,11.3070043 C23.0211149,11.3815513 22.9976079,11.4803973 22.9276259,11.5232203 L21.3528878,12.4839604 C21.2889338,12.5218884 21.2046848,12.4970504 21.1672518,12.4302584 L17.6570636,6.19608506 C17.6149336,6.12154906 17.6386056,6.02269205 17.7084336,5.98005605 L19.2843487,5.018975 C19.3048087,5.00671 19.3266437,5.00033 19.3499637,5.00033 C19.3988037,5.00033 19.4432987,5.027357 19.4687967,5.072853 L22.9791609,11.3070043 Z M5.99941701,14.4199055 C5.99271801,14.4303225 5.46281498,15.1423085 5.43276298,15.1681805 C5.33372997,15.2527705 5.20584397,15.2990805 5.06182096,15.2990805 C4.88894495,15.2990805 4.71186694,15.2316175 4.56348793,15.1094295 C4.23419192,14.8381805 4.14035091,14.3799645 4.35401492,14.0899275 L4.81777495,13.4631804 C4.92283595,13.3218524 5.08448096,13.2436424 5.27349397,13.2436424 C5.44636998,13.2436424 5.62327199,13.3107754 5.771981,13.4332934 C6.08553601,13.6904404 6.18288602,14.1325635 5.99941701,14.4199055 Z M16.4938795,7.24008411 C16.8336036,7.26812312 17.2303956,7.18000211 17.6162756,7.0457141 L20.3944797,11.9810844 C20.3909487,11.9841094 20.3869227,11.9872994 20.3832267,11.9904894 C20.2184137,12.1267904 20.1059497,12.2442814 19.9871167,12.3691534 C19.8900967,12.4705404 19.7897327,12.5756124 19.6499117,12.7021674 C19.3217707,13.0002564 19.0283677,13.1520014 18.8756437,13.2184634 C18.8742907,13.2191234 18.8722777,13.2198054 18.8705947,13.2211474 L18.4056576,12.8377864 L18.4053166,12.8374344 C18.3821616,12.8183164 18.0397536,12.5312934 17.3153266,11.9950214 C16.8228676,11.6302943 16.1558495,11.1519263 15.2863985,10.5594223 C15.1900605,10.4936423 15.0893445,10.4273343 14.9856035,10.3603663 C14.8976585,10.3032873 14.8070075,10.2463953 14.7150365,10.1891623 C13.4239664,9.38685522 11.8257213,8.58706718 11.8074173,8.57782718 C11.7757043,8.56205318 11.7411313,8.55399018 11.7063823,8.55399018 C11.6833923,8.55399018 11.6600723,8.55751018 11.6377313,8.56457218 L11.0962563,8.73677719 L10.6486112,8.8791172 C10.5964162,8.8957272 10.5517562,8.9313122 10.5234092,8.9779742 C10.5143342,8.9927472 9.61567819,10.4561983 8.26535112,10.5607643 C8.19921912,10.5674853 8.13794912,10.5711813 8.08090311,10.5711813 C7.96911011,10.5711813 7.8250981,10.5570793 7.7737391,10.4885933 C7.7379781,10.4410953 7.69501209,10.3049703 7.8022731,9.92630625 C8.07400611,9.38685522 8.65895314,8.57010518 9.13362517,7.91784915 C9.17676717,7.85843815 9.22074517,7.79799314 9.26169817,7.74160714 C9.31523518,7.66842414 9.36491118,7.60029013 9.41309118,7.53382813 C9.47822219,7.44417813 9.53932719,7.35958812 9.59201719,7.28573412 C9.8167582,6.9695171 11.3203373,6.72714309 13.1673254,6.70952109 L13.2237224,6.70935609 C14.0424854,6.70935609 14.8228035,6.8926491 15.4495395,7.0398511 C15.8506985,7.13400011 16.1967915,7.21524611 16.4938795,7.24008411 Z M10.7157662,16.7036376 C11.0452383,16.9745456 11.1392333,17.4314196 10.9250523,17.7224687 L10.1981172,18.7053737 C10.0937162,18.8470317 9.93207121,18.9252527 9.7432562,18.9252527 C9.57035819,18.9252527 9.39295018,18.8581087 9.24457117,18.7359207 C8.95671216,18.4982437 8.84879115,18.1195907 8.96897716,17.8342507 C8.98624716,17.7929677 9.7623742,16.7341736 9.7623742,16.7341736 C9.86711621,16.5921856 10.0287502,16.5139646 10.2175762,16.5139646 C10.3902982,16.5139646 10.5673762,16.5814496 10.7157662,16.7036376 Z M9.37397518,15.1701825 C9.7036342,15.4420915 9.7977942,15.8993176 9.58329419,16.1906856 L8.46123913,17.7335457 C8.35683813,17.8748737 8.19554512,17.9530947 8.00653211,17.9530947 C7.8334801,17.9530947 7.65623709,17.8859397 7.50752808,17.7634217 C7.22655507,17.5317836 7.11912906,17.1665506 7.22604907,16.8832236 C7.23931507,16.8483206 7.25709107,16.8150786 7.27690207,16.7828486 C7.28496507,16.7700996 7.29034407,16.7556566 7.29939707,16.7435896 C7.29939707,16.7435896 8.47030313,15.1439915 8.49799014,15.1191645 C8.59820014,15.0302075 8.72828615,14.9808505 8.87598315,14.9808505 C9.04887016,14.9808505 9.22578317,15.0483355 9.37397518,15.1701825 Z M8.28868212,14.6397955 L6.83748505,16.6163526 L6.83496605,16.6197076 C6.72989404,16.7617066 6.56791904,16.8395866 6.37874103,16.8395866 C6.20587602,16.8395866 6.02896301,16.7721126 5.881079,16.6502546 C5.55178298,16.3780046 5.45795298,15.9208006 5.67228799,15.6304115 L7.12566307,13.6491574 C7.23057007,13.5081594 7.39239108,13.4299494 7.58154709,13.4299494 C7.7546101,13.4299494 7.93133611,13.4970824 8.07955011,13.6196114 C8.40952813,13.8905195 8.50353414,14.3477345 8.28868212,14.6397955 Z M18.1256966,13.1932954 L18.6542467,13.6286754 C18.9951367,13.9526145 19.0666477,14.2846275 18.8702647,14.6451635 C18.6067377,15.1282175 18.0597296,15.0500185 17.8213816,14.9885725 L14.3743224,12.9193514 C14.2675674,12.8552324 14.1279114,12.8894864 14.0634624,12.9969014 C13.9991784,13.1036454 14.0337514,13.2433014 14.1410014,13.3074204 L17.4160316,15.2735825 C17.4432346,15.4283305 17.4898856,15.8976346 17.1243226,16.1950526 C16.9190406,16.3608886 16.4589765,16.3665866 16.2612515,16.3534966 L13.4306764,14.7143095 C13.3219194,14.6515325 13.1839464,14.6884705 13.1211694,14.7968865 C13.0584034,14.9049835 13.0953084,15.0436275 13.2035924,15.1064045 L15.9644935,16.7049796 C15.9530865,16.9134406 15.8945005,17.3421216 15.6153755,17.5250846 C15.3862675,17.6748056 14.9297125,17.6405626 14.7741175,17.6153836 C14.7563305,17.6123586 14.7395445,17.6140416 14.7222525,17.6153836 L12.4484423,16.5173196 C12.3353073,16.4629356 12.2001943,16.5099386 12.1459753,16.6227326 C12.0914153,16.7351856 12.1389353,16.8704746 12.2510473,16.9248586 L14.3954534,17.9597937 C14.2638714,18.1471237 14.0460054,18.4066137 13.7589824,18.5607017 C13.3618604,18.7741897 12.6683103,18.6671157 12.4343293,18.6080237 C12.4282903,18.6070117 12.4215803,18.6053397 12.4152003,18.6043277 C12.4071483,18.6026557 11.9286153,18.5200787 11.1071683,18.2374117 L11.2896253,17.9910227 C11.6441003,17.5096406 11.5155433,16.7748076 11.0034383,16.3534966 C10.7740003,16.1651876 10.4948642,16.0614576 10.2175762,16.0614576 C10.1855332,16.0614576 10.1543152,16.0634706 10.1230862,16.0664846 C10.2160692,15.6354495 10.0483962,15.1392945 9.6618452,14.8207235 C9.43257218,14.6320625 9.15343617,14.5280025 8.87598315,14.5280025 C8.85852615,14.5280025 8.84157515,14.5303455 8.82429415,14.5310165 C8.92532916,14.0959555 8.75883315,13.5914074 8.36723313,13.2701524 C8.13846612,13.0811614 7.8595061,12.9774314 7.58154709,12.9774314 C7.25038107,12.9774314 6.95145606,13.1244684 6.76127705,13.3816154 L6.49573703,13.7434824 C6.42390703,13.4957404 6.27669402,13.2614184 6.05934501,13.0835044 C5.830226,12.8945244 5.55111198,12.7907834 5.27349397,12.7907834 C4.94249295,12.7907834 4.64388694,12.9378204 4.45388393,13.1939554 L4.44667893,13.2036904 C4.05910491,12.7192944 3.78384089,12.3768754 3.77410589,12.3651164 L3.53711088,12.1012594 L6.35508003,7.09673211 C6.58318704,7.23807111 6.79200005,7.36462612 6.92442905,7.43999813 C7.22940407,7.61270913 7.8066181,7.69813514 8.36506613,7.78055814 C8.46089813,7.79499014 8.55422214,7.80875114 8.64368514,7.82251214 C8.17957312,8.46369118 7.64766809,9.21967722 7.38768308,9.74335424 C7.38164408,9.75544324 7.37677108,9.76802724 7.37308608,9.78095225 C7.24048107,10.2375073 7.25288907,10.5490163 7.41183908,10.7605133 C7.54512609,10.9380863 7.7638281,11.0240293 8.08105711,11.0240293 C8.15189712,11.0240293 8.22843512,11.0200033 8.30579813,11.0119513 C9.7122032,10.9031613 10.6471042,9.61545724 10.8642993,9.28579822 L11.6874183,9.02413021 C12.0313443,9.19885422 13.3937494,9.89844325 14.5050684,10.5918283 C14.5673394,10.6309113 14.6292694,10.6702143 14.6918705,10.7101553 C14.8092075,10.7853513 14.9238495,10.8602063 15.0319355,10.9338843 C15.9188435,11.5379603 16.5977746,12.0264154 17.0919166,12.3933204 C17.4496036,12.6662414 17.8281026,12.9583024 18.1256966,13.1932954 Z" id="path-1"></path>
    </defs>
    <g id="icon/trades" stroke="none" stroke-width="1" fill-rule="evenodd">
        <mask id="mask-2" fill="white">
            <use xlink:href="#path-1"></use>
        </mask>
        <g id="Color/Shadow" mask="url(#mask-2)" >
            <rect id="Rectangle_1-19" x="0" y="0" width="24" height="24"></rect>
        </g>
    </g>
</svg>