<?xml version="1.0" encoding="UTF-8"?>
<svg width="185px" height="129px" viewBox="0 0 185 129" version="1.1" xmlns="http://www.w3.org/2000/svg" xmlns:xlink="http://www.w3.org/1999/xlink">
    <!-- Generator: Sketch 52.3 (67297) - http://www.bohemiancoding.com/sketch -->
    <title>Group 44</title>
    <desc>Created with Sketch.</desc>
    <defs>
        <rect id="path-1" x="0" y="0.461538462" width="186" height="129"></rect>
        <linearGradient x1="18.6009593%" y1="4.72887009%" x2="62.9702007%" y2="87.2551281%" id="linearGradient-3">
            <stop stop-color="#3594CC" offset="0%"></stop>
            <stop stop-color="#185B9D" offset="100%"></stop>
        </linearGradient>
        <linearGradient x1="12.2631977%" y1="63.8803938%" x2="111.565529%" y2="100%" id="linearGradient-4">
            <stop stop-color="#185B9D" offset="0%"></stop>
            <stop stop-color="#52C234" offset="100%"></stop>
        </linearGradient>
        <linearGradient x1="50%" y1="0%" x2="8.73157722%" y2="72.5416634%" id="linearGradient-5">
            <stop stop-color="#0061A7" offset="0%"></stop>
            <stop stop-color="#00326E" offset="100%"></stop>
        </linearGradient>
        <polygon id="path-6" points="0.629099378 0.553414201 257.253839 0.553414201 257.253839 200.293157 0.629099378 200.293157"></polygon>
    </defs>
    <g id="Trade-Allocation" stroke="none" stroke-width="1" fill="none" fill-rule="evenodd">
        <g id="Max-display-of-table" transform="translate(-1039.000000, -80.000000)">
            <g id="Hero-header" transform="translate(108.000000, 80.000000)">
                <g id="Group-44" transform="translate(1024.000000, 64.461538) scale(-1, -1) translate(-1024.000000, -64.461538) translate(931.000000, -0.538462)">
                    <mask id="mask-2" fill="white">
                        <use xlink:href="#path-1"></use>
                    </mask>
                    <g id="Rectangle_1-16-Copy"></g>
                    <path d="M72.0307692,40.1538462 C88.5512088,40.1538462 101.938462,53.5824176 101.938462,70.1538462 C101.938462,86.7252747 115.325714,100.153846 131.846154,100.153846 L101.938462,100.153846 C85.418022,100.153846 72.0307692,86.7252747 72.0307692,70.1538462 L72.0307692,55.1538462 C72.0307692,46.8324176 65.3371429,40.1538462 57.0769231,40.1538462 L72.0307692,40.1538462 Z" id="Fill-1" fill="url(#linearGradient-3)" mask="url(#mask-2)"></path>
                    <path d="M72.7692308,55.5384615 L72.7692308,70.6153846 C72.7692308,62.2512821 66.1582418,55.5384615 58,55.5384615 C49.8417582,55.5384615 43.2307692,48.7538462 43.2307692,40.4615385 L43.2307692,25.3846154 C43.2307692,33.7128205 49.8417582,40.4615385 58,40.4615385 C66.1582418,40.4615385 72.7692308,47.174359 72.7692308,55.5384615 Z" id="Fill-3" fill="#185B9D" mask="url(#mask-2)"></path>
                    <path d="M44.4268591,55.1290886 L59.3491796,55.1290886 C59.3849645,55.1290886 59.3849645,55.1647491 59.4207494,55.1647491 C67.1145118,55.1647491 73.4126615,60.8704295 74.3430699,68.3234745 L74.3430699,70.1421601 C74.3430699,86.6886332 87.7982078,100.096982 104.402421,100.096982 L134.461771,100.096982 C159.51123,100.096982 180.982195,115.359677 190,137.076923 L0.769230769,137.076923 L0.769230769,0.461538462 L1.19865006,0.461538462 C9.14290702,5.81061382 14.3675084,14.8683814 14.3675084,25.1742666 C14.3675084,41.7207397 27.8226463,55.1290886 44.4268591,55.1290886 Z" id="Fill-5" fill="url(#linearGradient-4)" mask="url(#mask-2)"></path>
                    <path d="M18.7091772,0.461538462 C37.4661905,0.461538462 44.0027254,14.8809464 44.0027254,25.2360605 L44.0027254,40.0795687 C44.0027254,48.2788399 50.681359,54.9230769 58.9230769,54.9230769 L44.0027254,54.9230769 C27.5548142,54.9230769 14.1620225,41.6346029 14.1620225,25.2360605 C14.1620225,14.8809464 8.8333255,5.72744971 0.769230769,0.461538462 L18.7091772,0.461538462 Z" id="Fill-7" fill="url(#linearGradient-5)" mask="url(#mask-2)"></path>
                    <g id="Group-13" mask="url(#mask-2)">
                        <g transform="translate(-75.846154, -18.000000)">
                            <mask id="mask-7" fill="white">
                                <use xlink:href="#path-6"></use>
                            </mask>
                            <g id="Clip-12" stroke="none" fill="none"></g>
                            <path d="M0.629099378,0.896094438 C11.0424435,4.92972639 18.5671544,10.6053678 23.2032323,17.8873228 C29.0874849,27.2753335 29.0874849,37.3058696 29.0874849,43.9452992 C29.0874849,53.1191347 33.3669414,63.5066293 40.7846659,72.394898 C48.6303361,81.7472128 58.6513967,87.9225962 69.0647408,89.8144767 L88.8928891,93.3483666 C98.4146798,95.0617678 104.976513,98.3457867 109.612591,103.771557 C113.713737,108.519106 115.710816,114.337531 117.850545,120.477219 C120.382556,127.830565 123.021554,135.362391 129.440739,142.001821 C136.751477,149.497951 147.985051,154.495371 163.712053,157.35104 L183.219242,160.813538 C204.010268,164.597299 221.413391,174.520748 233.538518,189.548704 C235.464273,191.940326 237.211718,194.439036 238.816514,197.009138 L239.208798,197.044834 C237.568339,194.439036 235.74957,191.833239 233.823815,189.441616 C221.591702,174.306573 204.117255,164.311732 183.219242,160.563667 L163.712053,157.101169 C148.056375,154.281196 136.929788,149.283776 129.654712,141.823342 C123.306852,135.291 120.667853,127.759174 118.135842,120.477219 C113.927709,108.304931 109.969212,96.8465607 88.8928891,93.1341915 L88.8215648,93.0984956 L69.0647408,89.5289098 C58.7583831,87.7084211 48.8086468,81.5330376 41.0343009,72.2521146 C33.6522385,63.4709335 29.4084442,53.1191347 29.4084442,43.980995 C29.4084442,41.732156 29.4084442,39.1263583 29.1944713,36.3063856 C29.4441063,39.3048376 29.4441063,41.8749394 29.4441063,43.8739075 C29.4441063,53.0834388 33.7235628,63.3995418 41.1769494,72.1807228 C49.0226196,81.3545583 59.0793424,87.4585501 69.5640107,89.3147347 L89.0711998,92.8486246 C89.1068619,92.8486246 89.1425241,92.8486246 89.3208348,92.9200163 C98.8069633,94.5977217 105.404459,97.8817406 110.076199,103.271815 C114.248669,108.090756 116.317073,113.873485 118.528125,120.013173 C121.167123,127.295128 123.841784,134.862649 130.332293,141.430687 C137.643031,148.891122 148.840942,153.924238 164.460958,156.74421 L184.146458,160.2781 C205.080132,163.954774 222.590242,173.878222 234.929341,188.97757 C237.104732,191.619064 239.066149,194.439036 240.884918,197.366097 L241.205877,197.401793 C239.387108,194.439036 237.354367,191.583368 235.143314,188.834787 C222.804215,173.735439 205.151457,163.740599 184.146458,159.992533 L164.460958,156.422948 C148.912266,153.638671 137.821341,148.712642 130.546265,141.287904 C124.127081,134.791258 121.416758,127.259432 118.813422,119.977477 C114.462642,107.840885 110.361496,96.4182104 89.3208348,92.6344495 C89.1425241,92.5987536 89.1068619,92.5987536 89.1068619,92.5987536 L69.5640107,89.1005595 C59.1863288,87.2086791 49.2009303,81.1760791 41.4265844,72.0736353 C34.0088599,63.3638459 29.7650655,53.0834388 29.7650655,43.980995 C29.7650655,42.0534187 29.7650655,39.5190128 29.5154306,36.7347359 C29.7294034,39.1620542 29.8007277,41.5536767 29.8007277,43.8382116 C29.8007277,53.0834388 34.0801841,63.3281501 41.569233,71.9308518 C49.4149032,80.9619039 59.5429501,87.0301998 70.0276185,88.9220802 L89.3564969,92.3131867 C89.3564969,92.3131867 89.392159,92.3488826 89.7487804,92.4202743 C99.2349089,94.1336755 105.832404,97.4533903 110.575469,102.772073 C114.747939,107.591014 116.923329,113.373743 119.205706,119.513431 C121.916028,126.795386 124.697675,134.327212 131.188184,140.895249 C138.570246,148.355684 149.696833,153.281712 165.209863,156.065989 L185.109335,159.671271 C206.114334,163.38364 223.802754,173.342784 236.24884,188.335045 C238.709528,191.297801 240.92058,194.439036 242.91766,197.68736 L243.238619,197.758751 C241.241539,194.439036 238.994825,191.262105 236.498475,188.263653 C223.981065,173.164305 206.185659,163.205161 185.109335,159.385704 L165.209863,155.851814 C149.768157,153.067537 138.712895,148.141509 131.402157,140.752466 C124.982972,134.25582 122.165663,126.75969 119.491003,119.477735 C114.997574,107.376839 110.753779,95.9184684 89.7487804,92.1347075 C89.392159,92.0633157 89.3564969,92.0633157 89.3564969,92.0633157 L70.0276185,88.6365134 C59.6142744,86.7446329 49.5932138,80.7834246 41.8188679,71.8237643 C34.3654812,63.2210625 30.0860248,53.047743 30.0860248,43.9452992 C30.0860248,41.3751974 30.0147005,38.7693998 29.7650655,36.0922104 C30.0503626,38.7337039 30.157349,41.3751974 30.157349,43.8382116 C30.157349,53.047743 34.4724676,63.1853666 41.9615165,71.7166767 C49.8071867,80.5692495 59.9708958,86.4947619 70.5625506,88.4580341 L89.6061319,91.8848364 C89.641794,91.8848364 89.641794,91.8848364 90.1410639,91.9562282 C99.6271924,93.6339335 106.26035,96.9536483 111.039076,102.343723 C115.318533,107.091272 117.529585,112.874001 119.883286,119.049384 C122.664933,126.295644 125.553566,133.791774 132.079737,140.359812 C139.4618,147.748854 150.552724,152.710578 165.99443,155.494855 L186.036551,159.028745 C207.148536,162.848202 224.979605,172.771651 237.604001,187.763911 C240.349986,190.976538 242.775011,194.439036 244.950402,198.044318 L245.271361,198.11571 C243.095971,194.439036 240.599621,190.940842 237.853636,187.621128 C225.157916,172.593171 207.255523,162.634027 186.036551,158.850266 L165.99443,155.209289 C150.659711,152.460707 139.64011,147.534679 132.29371,140.181332 C125.803201,133.720382 122.914568,126.224252 120.168583,118.977993 C115.496844,106.912793 111.110401,95.4544222 90.1410639,91.742053 C89.7131183,91.6349654 89.641794,91.5992696 89.641794,91.5992696 L70.5625506,88.2081631 C60.0422201,86.3162826 49.9854974,80.426466 42.2111514,71.5738933 C34.7221026,63.1496708 30.4426461,53.047743 30.4426461,43.8739075 C30.4426461,40.3400175 30.2643354,36.3420814 29.4797684,32.165666 C30.3356597,36.5205607 30.5139704,40.4828009 30.5139704,43.8025157 C30.5139704,53.047743 34.829089,63.1139749 42.3894621,71.5025015 C50.1994702,80.2122909 60.3988414,86.0307157 71.0618205,87.9582921 L89.8914289,91.3850944 L90.6046717,91.4564862 C111.288711,95.2045512 115.817803,106.59153 120.560867,118.585338 C123.4495,125.795902 126.409458,133.292032 132.971291,139.788678 C140.389015,147.142025 151.444278,152.068053 166.707673,154.816634 L186.963767,158.493307 C208.2184,162.277068 226.192118,172.236213 238.959163,187.121386 C241.990444,190.690971 244.665105,194.474732 246.983144,198.436973 L247.304103,198.472668 C244.950402,194.474732 242.240079,190.61958 239.173136,187.049994 C226.334766,171.986342 208.289725,162.027197 186.963767,158.207741 L166.707673,154.602459 C151.515602,151.853878 140.531664,146.963545 133.149601,139.645894 C126.62343,133.22064 123.663473,125.760206 120.846164,118.549642 C116.031776,106.413051 111.502684,94.9903761 90.6046717,91.242311 C90.0340775,91.1352234 89.9270911,91.0995276 89.9270911,91.0995276 L71.0618205,87.7441169 C60.4701657,85.8522364 50.3421187,80.0338116 42.5677728,71.3597181 C35.078724,63.0425832 30.7636054,53.0120471 30.7636054,43.8382116 C30.7636054,40.8397595 30.656619,37.198782 29.9433762,33.2365418 C30.5496325,36.5205607 30.8705918,39.9830589 30.8705918,43.7668199 C30.8705918,53.0120471 35.1857104,63.0068873 42.7817456,71.2883264 C50.5917537,79.8553323 60.8267871,85.6023654 71.5610904,87.5299418 L90.176726,90.8496566 C90.2837125,90.8853524 90.5333474,90.9210483 90.9969552,91.0281359 C111.680995,94.7405051 116.317073,106.056092 121.238448,118.085596 C124.198405,125.331855 127.265349,132.756594 133.827182,139.25324 C141.316231,146.606587 152.300169,151.496919 167.456577,154.209804 L187.926644,157.850782 C209.252602,161.705935 227.368968,171.593687 240.314324,186.550252 C243.630903,190.369709 246.519536,194.474732 249.015885,198.793931 L249.336845,198.901019 C246.840495,194.474732 243.880538,190.298317 240.528297,186.407468 C227.547279,171.415208 209.359589,161.456064 187.926644,157.600911 L167.456577,153.995629 C152.371493,151.247048 141.423217,146.428107 134.005493,139.146152 C127.479322,132.685202 124.44804,125.224768 121.488083,118.085596 C116.566708,105.949004 111.859306,94.5263299 90.9969552,90.742569 C90.6403338,90.6711773 90.426361,90.6711773 90.2837125,90.6354814 L90.176726,90.6354814 L71.5610904,87.2800708 C60.8981114,85.3524944 50.7344022,79.676853 42.9600563,71.145543 C35.4353453,62.9711915 31.1202267,53.0120471 31.1202267,43.8382116 C31.1202267,39.0549666 30.656619,34.700072 29.6937412,30.7021359 C30.6922811,34.7357678 31.2272132,39.0906625 31.2272132,43.6954282 C31.2272132,63.2210625 49.9141731,83.0679595 72.0603603,87.0658956 L90.426361,90.3499146 L90.4620231,90.3499146 L90.5690096,90.3856104 C90.7473202,90.4213063 90.9969552,90.4570021 91.4249009,90.5283938 C112.073278,94.2407631 116.852005,105.55635 121.916028,117.585854 C124.982972,124.796418 128.085578,132.221156 134.718735,138.682106 C142.207784,145.999757 153.191723,150.854394 168.205482,153.602975 L188.889522,157.279648 C210.322466,161.099105 228.581481,171.022554 241.669485,185.907726 C245.307023,190.084142 248.409629,194.546124 251.048627,199.15089 L251.333924,199.222281 C248.694926,194.510428 245.520996,190.048446 241.847796,185.836335 C228.724129,170.844074 210.393791,160.920626 188.889522,157.065473 L168.205482,153.317408 C153.263047,150.640219 142.350433,145.785582 134.897046,138.575019 C128.335213,132.149764 125.196945,124.725026 122.165663,117.550158 C117.065978,105.484958 112.287251,94.0265879 91.4249009,90.3499146 C90.9256309,90.242827 90.7116581,90.2071311 90.5690096,90.1714353 L72.0603603,86.8517205 C50.0568216,82.8894802 31.4768481,63.1496708 31.4768481,43.8025157 C31.4768481,37.3772613 30.5139704,31.5588364 28.6238771,26.3472412 C30.5852947,31.5588364 31.5481724,37.3415654 31.5481724,43.6597323 C31.5481724,53.047743 35.8276289,62.6856246 43.5663126,70.8599761 C51.3763207,79.0343276 61.6470162,84.6385773 72.5596302,86.6375453 L90.7116581,89.8501725 L90.8543067,89.8858684 C91.0326173,89.9572601 91.3535766,89.992956 91.8528465,90.0643477 C112.465562,93.7767169 117.386937,105.128 122.593609,117.157504 C125.731877,124.332371 128.941469,131.721414 135.574627,138.110973 C143.099338,145.428623 154.047614,150.28326 168.990049,152.924754 L189.816738,156.708515 C211.356668,160.563667 229.758331,170.487116 243.024646,185.372289 C246.947481,189.762879 250.299722,194.546124 253.081369,199.507848 L253.366666,199.614936 C250.585019,194.546124 247.161454,189.691487 243.202957,185.229505 C229.90098,170.308636 211.427993,160.349492 189.816738,156.458644 L168.990049,152.746274 C154.118938,150.069085 143.241986,145.28584 135.752937,138.003885 C129.155442,131.650022 125.94585,124.225284 122.843244,117.086112 C117.60091,104.985216 112.643873,93.5625418 91.8528465,89.8501725 C91.2822523,89.7787808 90.9612931,89.6716933 90.8543067,89.6359974 L72.5596302,86.3519785 C61.7183405,84.460098 51.4833071,78.8558483 43.7802855,70.7171927 C36.0416017,62.6499288 31.8334695,53.047743 31.8334695,43.7668199 C31.8334695,38.3767453 31.1202267,33.4864128 29.7650655,28.8816471 C31.4055238,34.2360258 31.9047938,39.4476211 31.9047938,43.6240364 C31.9047938,63.0068873 50.3777809,82.1041714 73.0589002,86.1378033 L91.1039416,89.3504305 C91.3179144,89.4218222 91.6388737,89.493214 92.2807921,89.6003015 C112.857845,93.3126708 117.921869,104.628258 123.306852,116.657762 C126.480782,123.796933 129.797361,131.185976 136.46618,137.611231 C144.026553,144.85749 154.903505,149.640735 169.738954,152.35362 L190.743953,156.065989 C212.426533,159.956838 230.935182,169.84459 244.379808,184.765459 C248.58794,189.441616 252.189816,194.546124 255.114111,199.900503 L255.399408,199.971894 C252.475113,194.546124 248.837575,189.370225 244.558118,184.622676 C238.031947,177.447808 230.257601,171.343816 221.413391,166.48918 C212.069911,161.456064 201.763554,157.815086 190.743953,155.88751 L169.738954,152.103749 C154.974829,149.462255 144.169202,144.67901 136.644491,137.468447 C130.011333,131.114584 126.694755,123.761238 123.520824,116.622066 C118.135842,104.52117 113.036156,93.1341915 92.2807921,89.3504305 C91.6032115,89.2790388 91.2822523,89.1719512 91.1039416,89.1362554 L73.0589002,85.959324 C50.5204294,81.8899962 32.1544287,62.9711915 32.1544287,43.6954282 C32.1544287,38.2339619 31.3341996,31.1304862 28.2315936,24.134098 C31.441186,31.2732696 32.2614151,38.3767453 32.2614151,43.6240364 C32.2614151,53.0120471 36.5765337,62.4714495 44.3508797,70.4316258 C52.1252256,78.3204104 62.5029075,83.710485 73.5581701,85.709453 L91.3892387,88.9220802 C91.6032115,88.9577761 91.995495,88.9577761 92.7087378,89.1362554 C113.250129,92.8129288 118.456801,104.128516 123.984432,116.15802 C127.265349,123.297191 130.653252,130.650538 137.357734,137.040097 C144.953769,144.25066 155.795059,149.069601 170.487859,151.675399 L191.706831,155.530551 C202.726431,157.458128 213.068451,161.063409 222.411931,166.132221 C231.327465,170.87977 239.173136,176.983762 245.699307,184.122933 C250.26406,189.120354 254.115571,194.546124 257.182515,200.293157 L257.253839,200.293157 L257.253839,199.971894 C254.222557,194.331949 250.406709,188.97757 245.877617,184.015846 C239.315784,176.805283 231.434452,170.772683 222.518917,165.953742 C213.139775,160.813538 202.762093,157.279648 191.706831,155.316376 L170.487859,151.496919 C155.830721,148.855426 145.060755,144.072181 137.500382,136.897313 C130.867225,130.614842 127.443659,123.2258 124.198405,116.122324 C118.635112,104.057124 113.392777,92.6344495 92.7087378,88.9577761 C91.9241708,88.8149927 91.5675494,88.7436009 91.3892387,88.6722092 L73.5581701,85.4952779 C62.5742318,83.5320057 52.232212,78.1419311 44.5291904,70.3245382 C36.7905066,62.4357536 32.5110501,53.0120471 32.5110501,43.6597323 C32.5110501,38.0911785 31.6194967,30.5593524 27.9106344,22.9204388 C31.6908209,30.5593524 32.6180365,38.0554826 32.6180365,43.5883406 C32.6180365,62.7927122 50.8413886,81.1046873 74.05744,85.2454069 L91.6388737,88.4223382 L91.6388737,88.3866424 C91.8528465,88.4580341 92.3164543,88.4937299 93.1366834,88.6722092 C113.642412,92.3131867 118.991733,103.66447 124.662013,115.693974 C128.014254,122.797449 131.509143,130.150796 138.213625,136.540355 C145.845322,143.679526 156.65095,148.462771 171.236764,151.068569 L192.634046,154.888026 C203.724971,156.92269 214.138315,160.420884 223.553119,165.489696 C232.539978,170.344332 240.42131,176.412628 247.054468,183.5518 C251.012965,187.799607 254.400868,192.332981 257.253839,197.151922 L257.253839,196.723571 C254.43653,192.08311 251.084289,187.585432 247.232779,183.409016 C240.599621,176.269845 232.646964,170.165853 223.624444,165.311216 C214.173977,160.2781 203.760633,156.708515 192.634046,154.673851 L171.236764,150.854394 C156.722274,148.248596 145.952309,143.536743 138.391936,136.361876 C131.687454,130.079404 128.228227,122.761754 124.875986,115.658278 C119.170044,103.593078 113.785061,92.1347075 93.1366834,88.4580341 C92.24513,88.2795548 91.8171844,88.2438589 91.6388737,88.2081631 L74.05744,85.0669276 C50.9483751,80.926208 32.8676715,62.6856246 32.8676715,43.6240364 C32.8676715,38.7337039 32.1544287,32.3798412 29.4084442,25.7404116 C31.7621452,31.2732696 32.9746579,37.3415654 32.9746579,43.5169489 C32.9746579,52.9406554 37.3254386,62.2929702 45.1711088,69.9675796 C52.9097926,77.4994057 63.3587988,82.7823927 74.5567099,84.7456649 L91.8885086,87.8869004 C92.1381436,87.9225962 92.6017514,88.0296838 93.5646291,88.2081631 C114.034696,91.8848364 119.526665,103.236119 125.339593,115.229928 C128.763159,122.262012 132.329372,129.615358 139.105178,135.969221 C146.772538,143.108393 157.506841,147.855942 171.985669,150.461739 L193.561262,154.352588 C204.723511,156.280164 215.172517,159.885446 224.658646,164.918562 C233.716829,169.737503 241.705147,175.770103 248.409629,182.909274 C251.76187,186.443164 254.686165,190.226925 257.253839,194.15347 L257.253839,193.760815 C254.721827,189.941358 251.833194,186.264685 248.58794,182.837883 C241.847796,175.698711 233.859477,169.594719 224.72997,164.775778 C215.208179,159.706967 204.723511,156.101685 193.561262,154.138413 L171.985669,150.247564 C157.578165,147.677462 146.879524,142.965609 139.247827,135.826438 C132.507683,129.543967 128.977131,122.262012 125.553566,115.158536 C119.704976,103.093336 114.177344,91.7063572 93.5646291,87.9939879 C92.5304271,87.7798128 92.1024815,87.7441169 91.9241708,87.7084211 L74.5567099,84.6028814 C63.394461,82.5682175 52.9811169,77.3209264 45.3137574,69.8247962 C37.5037493,62.2572743 33.2242928,52.9049595 33.2242928,43.5883406 C33.2242928,35.4853808 31.1202267,27.6322921 27.2330538,20.8143832 C31.191551,27.6679879 33.3312792,35.4853808 33.3312792,43.481253 C33.3312792,52.9049595 37.68206,62.2215785 45.5633923,69.7534045 C53.266414,77.1067512 63.7510823,82.3183465 75.091642,84.3173146 L92.1738057,87.4228542 C92.4234407,87.4585501 92.9227106,87.5299418 93.9925747,87.7441169 C114.426979,91.3850944 120.061597,102.736377 126.017174,114.730186 C129.547726,121.76227 133.185264,129.115616 139.96107,135.362391 C147.664091,142.501563 158.398395,147.213416 172.734574,149.819214 L194.52414,153.745758 C205.686389,155.744726 216.206719,159.314312 225.764172,164.347428 C234.929341,169.166369 242.988984,175.234665 249.76479,182.338141 C252.510775,185.229505 255.007124,188.263653 257.253839,191.440584 L257.253839,191.083626 C255.042787,187.978086 252.617761,185.051026 249.907439,182.231053 C243.131633,175.091881 235.036328,169.023586 225.871158,164.204645 C216.278043,159.135833 205.722051,155.530551 194.52414,153.495887 L172.734574,149.605039 C158.434057,147.034937 147.771078,142.35878 140.13938,135.291 C133.363574,129.044225 129.726036,121.690878 126.231147,114.69449 C120.239908,102.593594 114.569628,91.242311 93.9925747,87.5299418 C92.8513863,87.3514625 92.3877786,87.2443749 92.2094679,87.2086791 L75.091642,84.1388353 C63.7867445,82.1398672 53.3734004,76.9639678 45.7060409,69.6106211 C37.8603707,62.1501867 33.5809142,52.9049595 33.5809142,43.5169489 C33.5809142,35.5567725 31.4055238,26.9183749 26.4484868,19.2080696 C31.1558889,26.4543288 33.6879006,34.9142471 33.6879006,43.481253 C33.6879006,52.9049595 38.0386814,62.1144909 45.9556758,69.5749252 C53.6586975,76.7497927 64.1433658,81.8186045 75.5909119,83.8889643 L92.4234407,86.8874163 C92.6730757,86.9231122 93.2436699,87.0658956 94.4205204,87.2443749 C114.783601,90.8853524 120.596529,102.236635 126.730417,114.266139 C130.332293,121.333919 134.041155,128.580178 140.852623,134.826954 C148.591307,141.930429 159.254286,146.642283 173.483479,149.212384 L195.451355,153.103233 C206.684928,155.137897 217.276583,158.707483 226.90536,163.740599 C236.106192,168.595235 244.272821,174.627835 251.119952,181.695615 C253.331004,184.015846 255.363746,186.407468 257.253839,188.834787 L257.253839,188.54922 C255.399408,186.157597 253.402328,183.837367 251.2626,181.624223 C244.41547,174.520748 236.24884,168.416756 226.976685,163.562119 C217.312245,158.529003 206.720591,154.959418 195.451355,152.924754 L173.483479,148.962513 C159.289948,146.463803 148.698293,141.787646 140.995272,134.755562 C134.219466,128.508787 130.510603,121.226832 126.908727,114.230444 C120.739178,102.165244 114.926249,90.742569 94.4205204,87.0658956 C93.1723456,86.8517205 92.6730757,86.7446329 92.4591028,86.708937 L75.5909119,83.710485 C64.2146901,81.6401252 53.7300218,76.6070092 46.0983244,69.4321418 C38.2169921,62.078795 33.9018734,52.8692637 33.9018734,43.481253 C33.9018734,34.5215927 31.1202267,25.6690199 26.0205411,18.1728897 C31.2272132,25.7047157 34.044522,34.5215927 34.044522,43.4455572 C34.044522,53.0120471 38.2883163,61.9360116 46.3479594,69.3250542 C54.0153189,76.3571382 64.5713115,81.3545583 76.0901818,83.3892222 L92.6730757,86.3876743 C92.7443999,86.3876743 92.8513863,86.3876743 92.9583728,86.459066 L94.848466,86.8160246 C115.211546,90.4213063 121.131461,101.808285 127.407997,113.766397 C131.081197,120.798481 134.897046,128.044741 141.744177,134.291516 C149.48286,141.359296 160.110177,145.999757 174.232384,148.534163 L196.414233,152.567795 C207.683468,154.531067 218.310785,158.136349 228.010887,163.205161 C237.318704,167.988406 245.520996,174.021006 252.475113,181.160177 C254.151233,182.837883 255.756029,184.622676 257.253839,186.443164 L257.253839,186.193293 C255.791692,184.4085 254.25822,182.695099 252.617761,181.017394 C245.663645,173.878222 237.425691,167.881318 228.117873,163.062377 C218.346447,157.95787 207.683468,154.388284 196.414233,152.389316 L174.232384,148.427076 C160.181501,145.821278 149.589847,141.216512 141.886825,134.148732 C135.075357,127.973349 131.259508,120.72709 127.586308,113.730702 C121.309772,101.701197 115.318533,90.3142187 94.848466,86.6375453 C93.4933048,86.3519785 92.9583728,86.2805867 92.7087378,86.209195 L76.0901818,83.210743 C64.6069736,81.1760791 54.1223053,76.2143548 46.4906079,69.2536625 C38.466627,61.9003157 34.2584948,52.9406554 34.2584948,43.481253 C34.2584948,34.9142471 31.6551588,26.4543288 26.8764324,19.100982 C31.976118,26.7755915 34.4011434,35.3425974 34.4011434,43.4098613 C34.4011434,52.9406554 38.6805998,61.828924 46.775905,69.1108791 C54.3719402,75.9287879 64.963595,80.8905122 76.5894518,82.9965678 L92.8513863,85.8879323 L92.8870485,85.8879323 C92.9940349,85.8879323 93.0653592,85.959324 93.2436699,85.9950199 L95.2764117,86.3162826 C115.568168,89.992956 121.666393,101.308543 128.085578,113.302351 C131.865765,120.298739 135.752937,127.544999 142.63573,133.756078 C150.410076,140.788162 160.966069,145.428623 174.981288,147.927333 L197.341449,151.92527 C208.646346,153.995629 219.380649,157.565215 229.152075,162.562635 C238.531217,167.417272 246.840495,173.485568 253.794612,180.517652 C255.007124,181.695615 256.148313,182.94497 257.253839,184.158629 L257.253839,183.98015 C256.183975,182.730795 255.078449,181.552832 253.93726,180.44626 C246.947481,173.342784 238.638203,167.274489 229.223399,162.455548 C219.416311,157.386736 208.682008,153.781454 197.341449,151.74679 L174.981288,147.748854 C161.037393,145.28584 150.4814,140.645378 142.742716,133.613294 C135.895586,127.473607 132.044075,120.191652 128.299551,113.23096 C121.809042,101.16576 115.710816,89.8144767 95.2764117,86.1378033 C93.814264,85.8879323 93.2080077,85.8165406 92.9940349,85.7808447 L76.5894518,82.8180885 C64.9992571,80.7477288 54.4432645,75.8217004 46.8828914,69.0394873 C38.8232484,61.7575323 34.5794541,52.9049595 34.5794541,43.4455572 C34.5794541,33.3793252 30.8349296,22.5634802 22.8466109,13.6395157 C23.0249216,13.8536909 23.1675701,13.9964743 23.3102187,14.2106495 C30.6922811,22.5634802 34.7577647,32.8795832 34.7577647,43.3384696 C34.7577647,52.9049595 39.0372212,61.7575323 47.1325264,68.8967039 C54.7285616,75.5718293 65.3915406,80.426466 77.0887217,82.5325217 L93.2436699,85.4238862 C93.3149941,85.459582 93.4219805,85.459582 93.5646291,85.459582 L95.7043573,85.8522364 C115.960451,89.493214 122.201325,100.808801 128.798821,112.802609 C132.650332,119.834693 136.608829,127.009561 143.491621,133.22064 C151.301629,140.181332 161.857622,144.786098 175.730193,147.320504 L198.304326,151.354136 C209.644886,153.3888 220.414851,156.958386 230.257601,161.991502 C239.708068,166.846138 248.08867,172.843042 255.149773,179.910822 C255.863016,180.624739 256.576259,181.302961 257.253839,182.052574 L257.253839,181.838399 C256.611921,181.160177 255.970002,180.481956 255.292422,179.803735 C248.231318,172.771651 239.815054,166.703355 230.328925,161.848718 C220.450513,156.815602 209.680548,153.21032 198.304326,151.211352 L175.730193,147.142025 C161.893284,144.67901 151.408616,140.038549 143.598608,133.077857 C136.751477,126.938169 132.79298,119.763302 128.977131,112.766913 C122.343974,100.737409 116.1031,89.3147347 95.7043573,85.6737572 C94.0995611,85.4238862 93.4933048,85.3167986 93.2436699,85.2811027 L93.2436699,85.2454069 L77.0887217,82.3183465 C65.4272028,80.2122909 54.835548,75.4290459 47.2751749,68.7539205 C39.2155319,61.6504447 34.9360754,52.9049595 34.9360754,43.4098613 C34.9360754,32.9866708 30.9062539,22.5991761 23.5598536,14.2106495 C31.0132403,22.5991761 35.1143861,32.9509749 35.1143861,43.3027737 C35.1143861,52.9049595 39.3938426,61.6147489 47.560472,68.6825288 C55.1208451,75.2148708 65.748162,79.926724 77.5879916,82.0327796 L93.528967,84.9241441 C93.6002912,84.9241441 93.7072776,84.95984 93.8499262,84.95984 L96.0966408,85.3524944 C116.352735,88.993472 122.736257,100.344755 129.476401,112.338563 C133.399236,119.26356 137.46472,126.474123 144.383175,132.649506 C152.228845,139.610199 162.713513,144.214964 176.479098,146.677978 L199.231542,150.783002 C210.643426,152.78197 221.449053,156.387252 231.39879,161.456064 C240.92058,166.239309 249.372507,172.236213 256.504934,179.303993 C256.754569,179.58956 257.004204,179.768039 257.253839,180.053606 L257.253839,179.803735 C257.039866,179.625255 256.825893,179.446776 256.647583,179.232601 C249.479493,172.164821 240.991905,166.167917 231.470114,161.31328 C221.520378,156.208773 210.643426,152.639187 199.231542,150.604523 L176.479098,146.499499 C162.784838,144.036485 152.300169,139.503111 144.490161,132.506723 C137.607369,126.402731 133.577547,119.26356 129.654712,112.302867 C122.878906,100.273363 116.459721,88.8863844 96.0966408,85.2454069 C94.4205204,84.9241441 93.7786019,84.7813607 93.528967,84.7456649 L77.5879916,81.8899962 C65.8194863,79.7839406 55.1921694,75.0363915 47.6674584,68.5754412 C39.5721533,61.6147489 35.2926968,52.9049595 35.2926968,43.3384696 C35.2926968,32.8081915 31.0845646,22.3493051 23.4528672,13.8536909 C23.2745565,13.6395157 23.131908,13.4967323 22.9179352,13.2825572 C23.0605837,13.4253406 23.2032323,13.5324282 23.3102187,13.7109075 C31.1558889,22.2422175 35.4353453,32.7724956 35.4353453,43.2670779 C35.4353453,52.8692637 39.7861261,61.579053 47.9527555,68.4326578 C55.5487908,74.8579122 65.997797,79.426982 78.0872615,81.6044293 L93.814264,84.4244021 C93.8499262,84.4244021 93.9925747,84.460098 94.1352233,84.4957938 L96.5602486,84.9241441 C116.745018,88.5651217 123.271189,99.8807086 130.189644,111.838821 C134.183803,118.763818 138.320611,125.974381 145.274728,132.078373 C153.15606,139.039065 163.605067,143.608135 177.228003,146.071149 L200.158757,150.140477 C222.304945,154.138413 242.525376,164.061861 257.253839,178.161725 L257.253839,177.911854 C242.489714,163.883382 222.269282,153.995629 200.158757,149.961997 L177.228003,145.89267 C163.640729,143.465351 153.227385,138.931977 145.381715,132.042677 C138.427598,125.902989 134.326452,118.728122 130.332293,111.803125 C123.413838,99.7379252 116.852005,88.4223382 96.5602486,84.7456649 C94.7414796,84.4244021 94.0282369,84.3173146 93.814264,84.2816187 L78.0872615,81.4973418 C66.0334591,79.2841986 55.6557772,74.7865205 48.0597419,68.361266 C39.9287746,61.4719654 35.6493182,52.8692637 35.6493182,43.3027737 C35.6493182,32.7724956 31.2985374,22.2065217 23.4528672,13.6395157 C22.7396245,12.8542069 22.0263817,12.1045938 21.2774769,11.3906767 C21.9907196,12.068898 22.6683002,12.7828151 23.3458808,13.4967323 C31.4055238,22.0994341 35.8276289,32.665408 35.8276289,43.2670779 C35.8276289,52.8335678 40.1427475,61.4362696 48.345039,68.2184826 C55.9410743,74.5009536 66.3544184,78.9629359 78.5865314,81.1403832 L94.063899,83.9246601 C94.1352233,83.9246601 94.2778718,83.960356 94.4561825,83.960356 L96.9525321,84.4244021 C117.137302,88.0653796 123.806121,99.3809666 130.902887,111.374775 C134.96837,118.299771 139.176503,125.438943 146.130619,131.542935 C154.047614,138.432235 164.460958,142.965609 177.976908,145.428623 L201.121635,149.605039 C222.661566,153.424496 242.489714,162.883898 257.253839,176.305541 L257.253839,176.091365 C242.454052,162.705419 222.661566,153.281712 201.121635,149.42656 L177.976908,145.28584 C164.49662,142.822826 154.118938,138.289452 146.273268,131.471543 C139.283489,125.367551 135.111019,118.22838 131.009873,111.303383 C123.94877,99.3095749 117.244288,87.9225962 96.9525321,84.2816187 C95.0267767,83.9246601 94.313534,83.8532684 94.063899,83.7461808 L78.5865314,80.9975998 C66.4257426,78.8201524 55.9767364,74.3581702 48.4520254,68.1470909 C40.285396,61.4005737 35.9702774,52.8335678 35.9702774,43.2670779 C35.9702774,32.665408 31.5125102,22.0280424 23.4528672,13.3896447 C22.4899895,12.318769 21.4557875,11.3549808 20.3502613,10.3554968 C21.4201254,11.2835891 22.4186652,12.2473773 23.3458808,13.2468613 C31.6194967,21.9923465 36.1485881,32.5940163 36.1485881,43.231382 C36.1485881,48.1574104 37.2897765,52.8335678 39.5364911,57.0813749 C41.6405572,61.079311 44.7431632,64.7916802 48.7373225,68.0400033 C56.2620335,74.1082992 66.7467019,78.4988897 79.0858014,80.7120329 L94.313534,83.3892222 C94.4205204,83.4249181 94.5631689,83.4249181 94.7414796,83.4963098 L97.4161399,83.960356 C117.529585,87.5656376 124.341054,98.9169205 131.580467,110.910729 C135.717275,117.764333 140.032394,124.903505 147.022173,130.971801 C154.939167,137.896797 165.316849,142.430171 178.725813,144.786098 L202.048851,148.962513 C223.089512,152.746274 242.489714,161.777326 257.253839,174.520748 L257.253839,174.342268 C242.454052,161.634543 223.053849,152.603491 202.048851,148.855426 L178.725813,144.67901 C165.352511,142.287388 155.010492,137.754014 147.129159,130.900409 C140.13938,124.832113 135.859924,117.728638 131.723116,110.910729 C124.483702,98.8455288 117.60091,87.4585501 97.4161399,83.8532684 C95.347736,83.460614 94.5988311,83.3178305 94.3491961,83.2464388 L79.0858014,80.5692495 C66.8180261,78.3561063 56.3333578,73.9655157 48.844309,67.9329157 C44.8501496,64.7202885 41.7832058,61.0436151 39.6791397,57.0813749 C37.432425,52.8335678 36.3268988,48.1574104 36.3268988,43.2670779 C36.3268988,32.5940163 31.7621452,21.9209548 23.4528672,13.1397737 C21.4201254,11.0337181 19.1734108,8.9990542 16.7483854,7.17856544 C19.1377486,8.96335834 21.313139,10.8909347 23.3458808,12.9969903 C31.8334695,21.8138672 36.5052095,32.4869288 36.5052095,43.1599903 C36.5052095,48.1574104 37.6463979,52.797872 39.8931125,57.0456791 C41.9971786,61.0079193 45.1354467,64.6132009 49.1652682,67.8258282 C56.6186549,73.6799489 67.1389854,77.9991477 79.6207334,80.2122909 L94.5988311,82.9251761 C94.6701553,82.9251761 94.8128039,82.9965678 95.0267767,82.9965678 L97.8084234,83.4963098 C117.921869,87.1015915 124.911648,98.4171785 132.29371,110.410987 C136.501842,117.300287 140.888285,124.403763 147.913726,130.436363 C155.866383,137.289968 166.208403,141.787646 179.474718,144.179268 L203.011728,148.427076 C223.517457,152.032357 242.525376,160.635059 257.253839,172.807347 L257.253839,172.628867 C242.489714,160.492276 223.481795,151.889574 203.011728,148.248596 L179.474718,144.000789 C166.244065,141.644862 155.937707,137.18288 148.020713,130.400667 C140.995272,124.368067 136.644491,117.228896 132.436359,110.410987 C125.018634,98.3457867 118.028855,86.9945039 97.8084234,83.3535264 C95.6686952,82.9965678 94.848466,82.8537844 94.5988311,82.8180885 L79.6207334,80.0695075 C67.1746475,77.8563643 56.654317,73.6085572 49.2365925,67.6830447 C45.2424331,64.5418092 42.1398272,60.9008317 40.0357611,57.0099832 C37.7890464,52.7621761 36.647858,48.1574104 36.647858,43.231382 C36.647858,32.4869288 31.976118,21.7424755 23.4528672,12.9612944 C20.3145991,9.6772755 16.7840476,6.85730272 12.9325367,4.35859266 C16.7127233,6.75021515 20.2432749,9.60588379 23.3458808,12.7828151 C32.0831044,21.6710838 36.8618308,32.4512329 36.8618308,43.1242944 C36.8618308,52.8692637 41.1056252,61.0436151 49.5575517,67.5759572 C56.9396141,73.2872944 67.5312689,77.4994057 80.1200033,79.7839406 L94.848466,82.4254341 C94.9554524,82.4611299 95.098101,82.4968258 95.3120738,82.5325217 L98.2720312,82.9965678 C118.314152,86.6375453 125.44658,97.9531323 133.006953,109.946941 C137.286409,116.836241 141.744177,123.868325 148.80528,129.900925 C156.793598,136.683138 167.064294,141.180816 180.223623,143.536743 L203.938944,147.78455 C223.945403,151.354136 242.561039,159.564183 257.253839,171.165337 L257.253839,171.022554 C242.561039,159.4214 223.909741,151.247048 203.938944,147.677462 L180.223623,143.39396 C167.099956,141.038033 156.864923,136.576051 148.876604,129.793838 C141.851163,123.796933 137.393396,116.729154 133.113939,109.875549 C125.553566,97.8817406 118.385477,86.4947619 98.2720312,82.9251761 C95.9539923,82.5325217 95.1337631,82.3540424 94.848466,82.3183465 L80.1200033,79.676853 C67.566931,77.3923181 57.0109384,73.2159027 49.628876,67.5045654 C41.2482737,61.0436151 37.0044794,52.8692637 37.0044794,43.1599903 C37.0044794,32.4512329 32.1900909,21.6353879 23.4528672,12.7471193 C20.9208555,10.1413217 18.1035466,7.74969917 15.1079271,5.67933941 C18.0678845,7.71400331 20.8495312,10.0342341 23.381543,12.56864 C32.2970773,21.4926045 37.2184522,32.3441453 37.2184522,43.1242944 C37.2184522,52.8692637 41.4979087,60.9722234 49.9498352,67.3260862 C57.2962355,72.89464 67.8878903,77.0710554 80.6192733,79.3555903 L95.1337631,81.9256921 C95.2407495,81.9613879 95.3833981,81.9613879 95.633033,81.9970838 L98.6643147,82.5682175 C118.706436,86.1378033 125.981512,97.524782 133.684534,109.51859 C138.070976,116.300803 142.600068,123.332887 149.661171,129.329791 C157.685152,136.1477 167.920185,140.573987 180.972528,142.894218 L204.901822,147.17772 C224.409011,150.675915 242.632363,158.529003 257.253839,169.594719 L257.253839,169.41624 C242.632363,158.38622 224.409011,150.568827 204.901822,147.034937 L180.972528,142.78713 C167.955847,140.431203 157.756476,136.004917 149.768157,129.222704 C142.707054,123.297191 138.177963,116.265107 133.827182,109.482894 C126.088498,97.4176944 118.77776,86.0307157 98.6643147,82.4611299 C96.2749515,81.9970838 95.4190602,81.8186045 95.1337631,81.8186045 L80.6192733,79.177111 C67.9235524,76.9639678 57.3318976,72.7875524 50.0211595,67.2903903 C41.6048951,60.9008317 37.3611008,52.8335678 37.3611008,43.1242944 C37.3611008,32.3441453 32.4397258,21.4569086 23.4528672,12.4615524 C20.6712205,9.6772755 17.5686146,7.17856544 14.1807115,4.92972639 C17.4972903,7.07147787 20.5998962,9.60588379 23.381543,12.2830731 C32.5467122,21.3141252 37.5750736,32.2727536 37.5750736,43.0885986 C37.5750736,52.8335678 41.8545301,60.9008317 50.3421187,67.1476069 C57.7241811,72.5733773 68.0662009,76.5356175 81.1185432,78.8558483 L95.3833981,81.4616459 C95.4903845,81.4616459 95.6686952,81.4973418 95.9183301,81.5330376 L99.0922604,82.1041714 C119.098719,85.6737572 126.516444,96.9893441 134.397776,109.018848 C138.855543,115.765365 143.455959,122.833145 150.552724,128.830049 C158.576705,135.540871 168.811739,139.967157 181.721432,142.287388 L205.829037,146.606587 C224.872618,149.997693 242.739349,157.493823 257.253839,168.059797 L257.253839,167.917014 C242.739349,157.386736 224.872618,149.926302 205.829037,146.463803 L181.721432,142.144604 C168.847401,139.824374 158.64803,135.469479 150.659711,128.722962 C143.562946,122.761754 138.96253,115.765365 134.504763,108.983152 C126.62343,96.9536483 119.134382,85.6023654 99.0922604,81.9613879 C96.5959108,81.5330376 95.6686952,81.3545583 95.3833981,81.3188625 L81.1185432,78.7130649 C68.1018631,76.3928341 57.7598433,72.5019856 50.413443,67.0405193 C41.9615165,60.82944 37.7177221,52.7621761 37.7177221,43.1242944 C37.7177221,32.2370578 32.6536986,21.2784293 23.4528672,12.2473773 C19.49437,8.3208329 14.8582921,4.92972639 9.86559293,2.18114533 L0.629099378,0.539135858 L0.629099378,0.896094438 Z" id="Fill-11" stroke="none" fill="#5788CE" fill-rule="evenodd" mask="url(#mask-7)"></path>
                        </g>
                    </g>
                    <g id="Group-43" mask="url(#mask-2)" fill="#5788CE">
                        <g transform="translate(-86.000000, -16.153846)">
                            <path d="M0.876331556,7.99875739 C11.2670779,12.0417287 18.8369688,17.7662898 23.4431759,25.0651053 C29.3705433,34.4390741 29.3705433,44.5286131 29.3705433,51.1834155 C29.3705433,60.4142703 33.6553872,70.7542588 41.0824499,79.6631071 C48.937997,89.037076 58.971673,95.2267577 69.3624194,97.1230186 L89.2155293,100.736648 C98.7493069,102.382459 105.355108,105.70986 109.961315,111.112415 C114.103331,115.906735 116.102925,121.738631 118.245347,127.856756 C120.780546,135.19135 123.387159,142.847951 129.850132,149.466974 C137.170074,156.980461 148.382082,161.953673 164.16459,164.851732 L183.66063,168.322248 C204.513536,172.078991 221.938568,181.989637 234.078959,197.123946 C236.007139,199.449549 237.756783,201.954044 239.3636,204.565875 L239.72067,204.601654 C238.078147,201.954044 236.292795,199.41377 234.328908,197.01661 C222.117103,181.846523 204.58495,171.828541 183.66063,168.03602 L164.16459,164.565504 C148.489203,161.739002 137.312902,156.730011 130.064374,149.32386 C123.672815,142.704837 121.066202,135.155572 118.531003,127.820978 C114.317573,115.656285 110.354092,104.242941 89.2155293,100.45042 L89.1441153,100.45042 L69.3624194,96.872569 C59.0787941,94.9763081 49.1165321,88.8581834 41.3323991,79.5199931 C33.9410434,70.7184803 29.6919066,60.4142703 29.6919066,51.219194 C29.6919066,49.0009265 29.6561995,46.3890955 29.4776644,43.4910364 C29.7276136,46.4606525 29.7276136,49.0724835 29.7276136,51.1476369 C29.7276136,60.3784918 33.9767504,70.6827018 41.4752272,79.4842146 C49.3307743,88.7150694 59.4001574,94.7974156 69.8623178,96.6936765 L89.4297715,100.19997 C89.4297715,100.19997 89.5011856,100.19997 89.6797207,100.235749 C99.1777913,101.953117 105.783592,105.24474 110.461214,110.611516 C114.603229,115.441614 116.709944,121.237732 118.92378,127.391636 C121.530394,134.72623 124.244128,142.311273 130.707101,148.85874 C138.062749,156.372226 149.239051,161.381217 164.914438,164.171941 L184.624719,167.749792 C205.54904,171.506535 223.1169,181.45296 235.435826,196.515711 C237.613955,199.163321 239.613549,201.989823 241.434608,204.92366 L241.755971,205.030996 C239.934912,201.989823 237.899612,199.127542 235.685776,196.372597 C223.295435,181.238289 205.656161,171.220307 184.624719,167.499342 L164.914438,163.95727 C149.346172,161.166546 138.205578,156.157555 130.921343,148.751404 C124.529784,142.203938 121.81605,134.690451 119.209436,127.391636 C114.853178,115.262722 110.74687,103.742042 89.6797207,99.9495206 C89.5011856,99.9137421 89.4654785,99.9137421 89.4654785,99.9137421 L69.8623178,96.3716699 C59.5072785,94.5469661 49.5093095,88.5003984 41.6894694,79.305322 C34.2981137,70.6111448 30.0132699,60.3784918 30.0132699,51.1834155 C30.0132699,49.2155976 30.0132699,46.7826591 29.7990277,43.956157 C30.0132699,46.424874 30.0846839,48.750477 30.0846839,51.1118584 C30.0846839,60.3069348 34.3695278,70.5753663 41.8680046,79.233765 C49.7235517,88.3215058 59.8286418,94.332295 70.3622163,96.2643344 L89.7154278,99.6990711 C89.7154278,99.6990711 89.7511348,99.6990711 90.0724981,99.7348496 C99.5705687,101.487996 106.212077,104.779619 110.925405,110.146395 C115.138835,114.940715 117.316964,120.736833 119.602214,126.926515 C122.315948,134.22533 125.101097,141.774595 131.599777,148.357841 C138.991132,155.79977 150.131726,160.737204 165.664285,163.527928 L185.588809,167.141557 C206.584544,170.934079 224.330939,180.844725 236.792694,195.943255 C239.256479,198.912871 241.470315,202.025601 243.434202,205.245667 L243.791272,205.353003 C241.791678,201.989823 239.506428,198.805536 237.006936,195.800141 C224.473767,180.665833 206.691665,170.683629 185.588809,166.855329 L165.664285,163.349035 C150.20314,160.522533 139.13396,155.620878 131.814019,148.214727 C125.351046,141.66726 122.565897,134.153773 119.88787,126.926515 C115.353077,114.761823 111.10394,103.276922 90.0724981,99.5201785 C89.7511348,99.412843 89.7154278,99.412843 89.7154278,99.412843 L70.3622163,95.9423278 C59.9357629,94.117624 49.8663798,88.0710563 42.1179538,79.1264295 C34.6551841,70.5395878 30.3703402,60.3069348 30.3703402,51.1476369 C30.3703402,48.6431414 30.2989261,45.9597534 30.0132699,43.2763654 C30.3346332,45.9239749 30.4060472,48.5715844 30.4060472,51.0403014 C30.4060472,60.2711563 34.7265981,70.5038093 42.2607819,78.9833155 C50.116329,87.8921637 60.2571262,93.8313959 70.8978218,95.7634353 L89.965377,99.198172 C89.965377,99.198172 90.001084,99.198172 90.5009825,99.269729 C99.9990531,100.951319 106.640561,104.27872 111.425303,109.681275 C115.67444,114.439816 117.923983,120.271713 120.280647,126.425616 C123.065796,133.724431 125.958065,141.237918 132.492452,147.785385 C139.883808,155.227314 150.988695,160.200527 166.414133,162.955472 L186.517192,166.533322 C207.655755,170.325844 225.509271,180.272269 238.149561,195.299242 C240.899002,198.590865 243.32708,202.06138 245.469502,205.639231 L245.826573,205.710788 C243.648444,202.06138 241.148952,198.483529 238.363803,195.156128 C225.687807,180.093377 207.762876,170.111173 186.517192,166.282873 L166.414133,162.669244 C151.060109,159.950077 140.026636,155.012643 132.670988,147.642271 C126.208015,141.130582 123.315745,133.617096 120.530597,126.425616 C115.888682,114.225145 111.496717,102.811801 90.5009825,99.0550579 C90.0724981,98.9835009 90.001084,98.9835009 90.001084,98.9835009 L70.8978218,95.5129857 C60.3642473,93.5809464 50.2948642,87.7132712 42.4750241,78.9117584 C35.0122544,70.3964738 30.7274105,60.2711563 30.7274105,51.1118584 C30.7274105,47.6055647 30.5488753,43.5983719 29.7633206,39.3765081 C30.6202894,43.7057075 30.7988246,47.7129003 30.7988246,51.0045229 C30.7988246,60.2711563 35.1193755,70.3964738 42.6892663,78.7686444 C50.5091064,87.4986002 60.7213176,93.4020538 71.3977202,95.2983147 L90.2510333,98.6972729 C90.2510333,98.6972729 90.2510333,98.6972729 90.9294669,98.8403869 C111.675253,102.525573 116.174339,113.903138 120.959081,125.960495 C123.815644,133.259311 126.815034,140.737019 133.349421,147.248707 C140.812191,154.619079 151.845664,159.592292 167.163981,162.27568 L187.445575,165.960866 C208.726966,169.753388 226.687603,179.735591 239.506428,194.691007 C242.541526,198.268858 245.219553,202.06138 247.504803,205.997016 L247.861874,206.104351 C245.505209,202.06138 242.791475,198.197301 239.72067,194.583672 C226.866139,179.556699 208.79838,169.538717 187.445575,165.746195 L167.163981,162.061009 C151.952785,159.306064 140.955019,154.404408 133.563663,147.069814 C127.029276,140.629683 124.065593,133.151975 121.20903,125.960495 C116.424288,113.831581 111.889495,102.310902 90.9294669,98.5541588 C90.3581544,98.4826018 90.2867403,98.4826018 90.2867403,98.4826018 L71.3977202,95.0478652 C60.7570246,93.1516043 50.6519345,87.3197076 42.8678015,78.6613089 C35.3693247,70.3249167 31.0487738,60.2711563 31.0487738,51.0403014 C31.0487738,48.0349068 30.9416527,44.3854991 30.2275121,40.4856418 C30.8345316,43.7772645 31.1201879,47.2477797 31.1201879,50.9687444 C31.1201879,60.2353777 35.4764458,70.2533597 43.0463366,78.5539734 C50.9018837,87.1765936 61.1140949,92.9011547 71.8619117,94.8331941 L90.5009825,98.1605953 C90.6438106,98.1963738 90.8937598,98.2679308 91.3579513,98.3394878 C112.06803,102.060453 116.709944,113.438018 121.637515,125.459596 C124.601198,132.722633 127.636296,140.200341 134.242097,146.712029 C141.704867,154.046623 152.73834,158.9125 167.913828,161.703224 L188.409665,165.352632 C209.76247,169.21671 227.901643,179.163135 240.863295,194.082773 C244.184049,197.911073 247.076319,202.097158 249.575811,206.426358 L249.861467,206.462136 C247.361975,202.097158 244.433998,197.875295 241.077537,194.011216 C228.044471,178.948464 209.833884,168.966261 188.409665,165.102182 L167.913828,161.452774 C152.809754,158.769386 141.847695,153.867731 134.420632,146.568915 C127.886245,140.093006 124.81544,132.651076 121.887464,125.423818 C116.924186,113.330682 112.246565,101.845781 91.3579513,98.1248168 C90.9651739,98.0174812 90.7509317,97.9817027 90.6438106,97.9817027 L90.5009825,97.9459242 L71.8619117,94.6543016 C61.221216,92.7222622 51.0447119,86.9619225 43.2605788,78.4108594 C35.726395,70.1818027 31.4058441,60.2353777 31.4058441,51.0045229 C31.4058441,46.28176 30.9416527,41.8810036 29.9775628,37.8738108 C30.9773597,41.8810036 31.4772582,46.28176 31.4772582,50.9687444 C31.4772582,70.5395878 50.2234501,90.3966592 72.3975171,94.3680735 L90.7866387,97.6954747 L90.9294669,97.6954747 C91.108002,97.7670317 91.3579513,97.7670317 91.7864356,97.8385887 C112.460807,101.595332 117.24555,112.972897 122.315948,124.994476 C125.351046,132.221734 128.493265,139.663663 135.099066,146.139573 C142.597543,153.474167 153.595308,158.375823 168.663676,161.023432 L189.338048,164.780175 C210.833681,168.608476 229.079975,178.519122 242.220162,193.510317 C245.826573,197.624845 248.968792,202.097158 251.611112,206.748364 L251.896768,206.784143 C249.254448,202.097158 246.076522,197.589066 242.398698,193.367203 C229.25851,178.34023 210.905095,168.393805 189.338048,164.529726 L168.663676,160.84454 C153.70243,158.125373 142.740371,153.295275 135.277601,145.996459 C128.707507,139.556328 125.600995,132.150177 122.565897,124.922919 C117.459792,112.794005 112.639342,101.416439 91.7864356,97.6596962 C91.2865372,97.5881392 91.072295,97.5165821 90.9294669,97.4808036 L72.3975171,94.1534025 C50.3662782,90.2535452 31.7629144,70.4322523 31.7629144,50.9687444 C31.7629144,44.5643916 30.7988246,38.732495 28.9063519,33.5088329 C30.8702386,38.732495 31.8343285,44.5643916 31.8343285,50.9329659 C31.8343285,60.3069348 36.1191724,69.9671317 43.8675984,78.1246313 C51.6874384,86.3894664 61.9710637,91.9709135 72.8974156,93.9387314 L91.072295,97.2303541 L91.072295,97.1587971 L91.072295,97.2303541 L91.2151231,97.2303541 C91.3579513,97.2661326 91.6793145,97.3019111 92.21492,97.4092466 C112.853585,101.094433 117.781155,112.471998 122.994382,124.565134 C126.136601,131.720835 129.350234,139.162764 135.991742,145.602896 C143.525925,152.901711 154.452277,157.73181 169.413524,160.379419 L190.266431,164.171941 C211.869185,168.000241 230.294014,177.982445 243.57703,192.902082 C247.469096,197.338617 250.861264,202.097158 253.646413,207.141928 L253.932069,207.141928 C251.146921,202.097158 247.719045,197.231281 243.755565,192.794747 C230.436842,177.803552 211.940599,167.821349 190.266431,163.95727 L169.413524,160.200527 C154.523691,157.517139 143.668753,152.68704 136.170277,145.459782 C129.564476,139.055429 126.350843,131.685056 123.244331,124.529355 C117.995397,112.364663 113.03212,100.91554 92.21492,97.1587971 C91.6079005,97.0872401 91.3222442,97.0514615 91.2151231,96.9799045 L72.8974156,93.7240604 C62.0424778,91.7562425 51.7945595,86.2105739 44.0461335,78.0530743 C36.3334146,69.8597962 32.1199848,60.2711563 32.1199848,50.9687444 C32.1199848,45.6019683 31.4058441,40.6645344 30.0489769,36.0848855 C31.6915004,41.415883 32.1913988,46.639545 32.1913988,50.8614089 C32.1913988,70.2891382 50.6876415,89.394861 73.397314,93.4378323 L91.4650724,96.729455 C91.6436075,96.729455 92.0006778,96.801012 92.6434044,96.944126 C113.246362,100.629312 118.316761,111.971099 123.672815,124.028456 C126.886448,131.184157 130.171495,138.626087 136.884417,145.03044 C144.454308,152.293477 155.344953,157.159353 170.163371,159.806963 L191.23052,163.527928 C212.904689,167.499342 231.472346,177.409988 244.89819,192.293847 C249.147327,197.01661 252.753737,202.097158 255.681714,207.499713 L255.96737,207.535491 C253.039393,202.097158 249.397276,196.909275 245.112432,192.150733 C238.578045,184.995032 230.793912,178.841129 221.902861,173.975252 C212.583326,168.930482 202.263993,165.352632 191.23052,163.349035 L170.163371,159.592292 C155.416367,156.908904 144.561429,152.150362 137.027245,144.923104 C130.421445,138.518751 127.100691,131.148379 123.922765,123.992677 C118.531003,111.899542 113.424897,100.45042 92.6434044,96.729455 C91.9649708,96.586341 91.6079005,96.5505624 91.4650724,96.5147839 L73.397314,93.2589398 C50.8304697,89.2159685 32.4413481,70.1818027 32.4413481,50.9329659 C32.4413481,45.4230758 31.6200863,38.3747099 28.5135745,31.2905655 C31.7272074,38.4820454 32.5484692,45.5661898 32.5484692,50.8256304 C32.5484692,60.2711563 36.8690201,69.7882391 44.6531531,77.7310677 C52.4372861,85.6023393 62.8280325,91.0048938 73.8972125,93.0442688 L91.7150216,96.2643344 L91.7150216,96.2285559 C91.9292638,96.2643344 92.3220411,96.3358914 93.0718888,96.4432269 C113.603432,100.128413 118.852366,111.541757 124.386956,123.527557 C127.672003,130.683258 131.028464,138.089409 137.741386,144.457983 C145.346984,151.72102 156.201922,156.51534 170.913219,159.127171 L192.158903,162.99125 C203.228083,164.92329 213.583123,168.536919 222.938365,173.617467 C231.865123,178.411787 239.72067,184.494133 246.255057,191.685613 C250.825557,196.658825 254.681917,202.097158 257.717014,207.857498 L257.824136,207.857498 L257.824136,207.535491 C254.753331,201.918266 250.968385,196.515711 246.433592,191.614056 C239.863498,184.386797 231.972244,178.268673 223.009779,173.438574 C213.654537,168.358026 203.26379,164.744397 192.158903,162.776579 L170.913219,158.9125 C156.273336,156.336448 145.489812,151.542128 137.919921,144.350648 C131.242706,138.017852 127.850538,130.611701 124.601198,123.491778 C119.030901,111.398643 113.781968,99.9495206 93.0718888,96.2643344 C92.2506271,96.1212204 91.8935567,96.0496633 91.7507286,96.0496633 L73.8972125,92.7938192 C62.8994466,90.8260013 52.5444072,85.4234467 44.8316882,77.5879537 C37.0832622,69.6809036 32.7984184,60.2353777 32.7984184,50.8614089 C32.7984184,45.2799618 31.8700355,37.7306968 28.1922112,30.1456533 C31.9771566,37.7306968 32.9055395,45.2441833 32.9055395,50.8256304 C32.9055395,70.0386887 51.1161259,88.3930628 74.3971109,92.5433697 L92.0006778,95.6918783 C92.21492,95.7634353 92.6434044,95.8707708 93.5003732,96.0138848 C114.031917,99.6990711 119.387972,111.076636 125.06539,123.098215 C128.421851,130.182359 131.885433,137.58851 138.634062,143.921306 C146.275367,151.148564 157.094598,155.907106 171.663067,158.554715 L193.122993,162.383016 C204.22788,164.386612 214.618627,167.964463 224.045283,173.009232 C233.043455,177.839331 240.970416,183.957455 247.611924,191.077378 C251.575405,195.335021 254.967573,199.950448 257.824136,204.708989 L257.824136,204.315426 C255.00328,199.628441 251.646819,195.120349 247.79046,190.970043 C241.113244,183.778563 233.186283,177.696217 224.152404,172.866118 C214.690041,167.78557 204.263587,164.171941 193.122993,162.204123 L171.663067,158.340044 C157.130305,155.763992 146.382488,150.969672 138.812597,143.81397 C132.099675,137.481175 128.636093,130.146581 125.279632,123.026658 C119.566507,110.933522 114.174745,99.5201785 93.5003732,95.7634353 C92.5719904,95.6560998 92.179213,95.5487642 92.0006778,95.5487642 L74.3971109,92.3644771 C51.258954,88.2141703 33.1554887,69.9671317 33.1554887,50.8256304 C33.1554887,45.9597534 32.4413481,39.6269577 29.6919066,32.9721553 C32.0128637,38.5178239 33.2626098,44.5643916 33.2626098,50.7898519 C33.2626098,60.1995992 37.5831607,69.5377896 45.4744148,77.2301686 C53.1871338,84.8152121 63.6492942,90.1104312 74.8970094,92.0782491 L92.2506271,95.1909792 C92.5005763,95.2267577 92.9647677,95.3340932 93.9288576,95.5487642 C114.388987,99.198172 119.923577,110.575737 125.743823,122.597316 C129.171698,129.717239 132.742402,137.051832 139.526738,143.384628 C147.168043,150.54033 157.951566,155.298871 172.412914,157.874924 L194.051376,161.774781 C205.19197,163.814156 215.65413,167.356228 225.152201,172.400997 C234.257494,177.266874 242.25587,183.349221 248.968792,190.433365 C252.289546,194.046994 255.253229,197.767959 257.824136,201.739373 L257.824136,201.381588 C255.288936,197.553288 252.396667,193.868102 249.11162,190.361808 C242.398698,183.206107 234.364615,177.087982 225.259322,172.257883 C215.725545,167.177335 205.227677,163.599485 194.051376,161.595888 L172.412914,157.73181 C158.02298,155.119979 147.275164,150.397216 139.669566,143.241514 C132.920937,136.944497 129.385941,129.609903 125.958065,122.561537 C120.102112,110.432623 114.567522,99.0550579 93.9288576,95.3340932 C92.8933536,95.1552007 92.4648693,95.0478652 92.2506271,95.0120866 L74.8970094,91.863578 C63.6850013,89.9315386 53.2942549,84.6720981 45.617243,77.1586116 C37.7974029,69.5020111 33.476852,60.1995992 33.476852,50.8256304 C33.476852,42.7039093 31.4058441,34.8684162 27.5137776,27.9989429 C31.4772582,34.8684162 33.6196801,42.7039093 33.6196801,50.7540734 C33.6196801,60.1280422 37.940231,69.4662326 45.8314851,77.0154976 C53.5799111,84.38587 64.0777786,89.6095321 75.3969078,91.6846855 L92.5362833,94.7258586 C92.7505255,94.7974156 93.286131,94.8331941 94.357342,95.0120866 C114.817471,98.6972729 120.459183,110.074838 126.422257,122.096417 C129.957253,129.216339 133.59937,136.515155 140.383707,142.847951 C148.096425,149.967874 158.844242,154.690636 173.162762,157.266689 L195.015466,161.202325 C206.191767,163.205921 216.725341,166.783772 226.294826,171.86432 C235.471533,176.694418 243.541323,182.740986 250.325659,189.896687 C253.0751,192.794747 255.574593,195.83592 257.824136,198.984428 L257.824136,198.626643 C255.6103,195.58547 253.182221,192.615854 250.468487,189.753573 C243.684151,182.633651 235.578654,176.551304 226.401947,171.685427 C216.796756,166.604879 206.227474,163.027029 195.015466,161.023432 L173.162762,157.087796 C158.879949,154.511744 148.203547,149.860538 140.526535,142.704837 C133.777906,136.443598 130.135788,129.109004 126.636499,122.096417 C120.637718,110.003281 114.9603,98.5541588 94.357342,94.8331941 C93.2147169,94.6543016 92.7148185,94.5827446 92.5362833,94.5469661 L75.3969078,91.4700144 C64.1134857,89.4306395 53.6870322,84.314313 46.0100203,76.9439406 C38.1544732,69.4304541 33.8339223,60.1280422 33.8339223,50.7898519 C33.8339223,42.7754663 31.6915004,34.1528461 26.7282229,26.3531315 C31.4058441,33.651947 33.9410434,42.0956746 33.9410434,50.6825164 C33.9410434,60.0922637 38.3330084,69.3946756 46.2599695,76.836605 C53.9369815,84.028085 64.470556,89.108633 75.9325133,91.1837864 L92.7862325,94.2249595 L92.7862325,94.189181 C93.0361818,94.2965165 93.5717873,94.3680735 94.7858264,94.6185231 C115.174542,98.2679308 120.959081,109.645496 127.136398,121.631296 C130.707101,128.71544 134.456339,136.014256 141.276382,142.311273 C149.024808,149.395417 159.665504,154.082402 173.948317,156.658454 L195.943849,160.558312 C207.191564,162.633465 217.760845,166.247094 227.401744,171.220307 C236.649865,176.086184 244.826776,182.16853 251.682526,189.288453 C253.896362,191.578277 255.931663,193.939659 257.824136,196.372597 L257.824136,196.122148 C255.96737,193.724988 253.967776,191.435163 251.825354,189.181117 C244.933897,182.025416 236.756987,175.94307 227.508865,171.112971 C217.832259,166.068202 207.227271,162.418794 195.943849,160.379419 L173.948317,156.479562 C159.736918,153.903509 149.096222,149.216525 141.41921,142.168159 C134.634874,135.90692 130.885636,128.643883 127.314933,121.595517 C121.137616,109.538161 115.31737,98.0890383 94.7858264,94.4396305 C93.5360802,94.1534025 93.0004747,94.0818455 92.7862325,94.046067 L92.7862325,94.0102884 L75.9325133,91.0048938 C64.506263,88.9297404 54.0441026,83.8849709 46.4027977,76.7292695 C38.5115435,69.3588971 34.1909926,60.0922637 34.1909926,50.7540734 C34.1909926,41.7021111 31.4058441,32.8290413 26.2997385,25.3155548 C31.5129652,32.8290413 34.3338208,41.7021111 34.3338208,50.6467378 C34.3338208,60.2353777 38.5829576,69.1800045 46.6527469,76.621934 C54.2940518,83.6702999 64.8990404,88.6792909 76.3967047,90.7544443 L93.0361818,93.7240604 C93.1075958,93.7240604 93.1790099,93.7598389 93.321838,93.7956174 L95.1786037,94.117624 C115.567319,97.7670317 121.530394,109.144597 127.814831,121.201954 C131.492655,128.178763 135.313308,135.477578 142.169058,141.703038 C149.917484,148.787183 160.55818,153.509946 174.698165,155.978663 L196.872232,159.985856 C208.155654,162.02523 218.832056,165.603081 228.544369,170.683629 C237.863905,175.513728 246.076522,181.524517 253.003686,188.680218 C254.717624,190.361808 256.32444,192.150733 257.824136,194.011216 L257.824136,193.724988 C256.360147,191.971841 254.824745,190.218694 253.182221,188.608661 C246.21935,181.45296 237.971026,175.334835 228.615783,170.504737 C218.867763,165.424189 208.191361,161.882116 196.872232,159.842742 L174.698165,155.835549 C160.593887,153.331053 149.988898,148.644069 142.311886,141.631481 C135.456136,135.370243 131.671191,128.142984 127.993366,121.094618 C121.673222,109.001483 115.710147,97.6596962 95.1786037,93.9387314 C93.8574435,93.6525034 93.286131,93.5809464 93.0718888,93.5451679 L76.3967047,90.5755518 C64.9347474,88.5361769 54.4011729,83.4914074 46.795575,76.47882 C38.7614928,69.144226 34.548063,60.2353777 34.548063,50.6825164 C34.548063,42.0956746 31.9414496,33.651947 27.1567073,26.317353 C32.2628129,33.9739535 34.6551841,42.5607952 34.6551841,50.6109593 C34.6551841,60.1995992 38.975735,69.1084475 47.0455242,76.3714844 C54.6868291,83.2767363 65.2918177,88.2141703 76.9323102,90.2893237 L93.2147169,93.2231613 L93.250424,93.2231613 C93.321838,93.2589398 93.4289591,93.2589398 93.6074943,93.2947183 L95.6427951,93.6167249 C115.960096,97.3019111 122.065999,108.643698 128.493265,120.701055 C132.27821,127.677864 136.170277,134.976679 143.026027,141.130582 C150.81016,148.250505 161.415149,152.865933 175.448012,155.406207 L197.836321,159.413399 C209.155451,161.452774 219.86756,165.030625 229.651287,170.111173 C239.077944,174.905493 247.361975,180.952061 254.360553,188.071984 C255.574593,189.288453 256.717218,190.504922 257.824136,191.75717 L257.824136,191.50672 C256.752925,190.254473 255.646007,189.10956 254.503382,187.92887 C247.469096,180.844725 239.149358,174.833936 229.722701,169.968059 C219.903267,164.851732 209.191158,161.273882 197.836321,159.234507 L175.448012,155.227314 C161.486563,152.722819 150.917281,148.107391 143.168855,141.059025 C136.313105,134.869344 132.456745,127.642085 128.6718,120.665276 C122.208827,108.572141 116.102925,97.1230186 95.6427951,93.4378323 C94.1788068,93.2231613 93.5717873,93.1158258 93.3575451,93.0800473 L76.9323102,90.1104312 C65.3275248,87.9994993 54.7582432,83.0978438 47.1883524,76.2999274 C39.1185631,69.0368905 34.8694263,60.1995992 34.8694263,50.6467378 C34.8694263,40.5571988 31.0844808,29.7163112 23.1218126,20.8074629 C23.2646408,20.9863555 23.4431759,21.1294695 23.5860041,21.3441405 C30.9416527,29.7163112 35.0122544,40.1278568 35.0122544,50.6109593 C35.0122544,60.1638207 39.3328053,69.001112 47.4383016,76.1568134 C55.0438995,82.8473942 65.6845951,87.6774927 77.4322087,89.8242031 L93.6074943,92.7580407 L93.9288576,92.7580407 L96.0712795,93.1516043 C116.352874,96.801012 122.601604,108.178577 129.207405,120.164377 C133.028058,127.176965 137.027245,134.440001 143.918703,140.629683 C151.738543,147.642271 162.307824,152.293477 176.19786,154.726415 L198.764704,158.805165 C210.155248,160.880318 220.903064,164.493947 230.793912,169.46716 C240.256276,174.333037 248.647428,180.379605 255.717421,187.42797 C256.431561,188.143541 257.109995,188.859111 257.824136,189.646238 L257.824136,189.36001 C257.181409,188.680218 256.502975,188.000427 255.860249,187.356413 C248.754549,180.236491 240.363397,174.189923 230.865326,169.359824 C220.974478,164.315055 210.190955,160.665647 198.764704,158.662051 L176.19786,154.583301 C162.343531,152.114584 151.845664,147.534935 144.025824,140.558126 C137.170074,134.332666 133.206593,127.141186 129.350234,120.128599 C122.744433,108.10702 116.495702,96.6936765 96.0712795,93.0442688 C94.4644631,92.7580407 93.8574435,92.5791482 93.6074943,92.5433697 L77.4322087,89.6453106 C65.7203021,87.5343787 55.1153135,82.7758372 47.5811297,76.0852564 C39.4756334,68.9653335 35.2264966,60.1280422 35.2264966,50.6109593 C35.2264966,40.1278568 31.1916019,29.7878682 23.8359533,21.4156975 C31.298723,29.8236467 35.4050317,40.1278568 35.4050317,50.5751808 C35.4050317,60.1280422 39.6898756,68.929555 47.866786,75.9779209 C55.4009698,82.4538307 66.0773724,87.2839291 77.9321071,89.394861 L93.8931505,92.2213631 C93.9645646,92.2213631 94.0716857,92.2571416 94.2145138,92.2571416 L96.4640569,92.7222622 C116.745651,96.3358914 123.13721,107.713457 129.885839,119.735035 C133.813613,126.676065 137.884214,133.903324 144.775671,140.057227 C152.666926,147.034036 163.164793,151.649463 176.947708,154.11818 L199.728794,158.232709 C211.119337,160.307862 221.974275,163.849934 231.90083,168.930482 C241.470315,173.796359 249.932881,179.77137 257.074288,186.855514 C257.324237,187.105964 257.574186,187.356413 257.824136,187.571084 L257.824136,187.392192 C257.609893,187.213299 257.395651,186.96285 257.181409,186.748179 C250.040003,179.699813 241.541729,173.653245 231.972244,168.787368 C222.009982,163.70682 211.155044,160.12897 199.728794,158.089595 L176.947708,154.010845 C163.2005,151.470571 152.73834,146.9267 144.9185,139.949892 C138.027042,133.795988 133.956441,126.640287 130.064374,119.663478 C123.244331,107.606121 116.852772,96.2285559 96.4640569,92.5433697 C94.7858264,92.2213631 94.1430998,92.0782491 93.8931505,92.0424706 L77.9321071,89.2159685 C66.1130795,87.1050366 55.5080909,82.3822736 47.9739071,75.8348068 C39.8684108,68.8222194 35.5478599,60.0922637 35.5478599,50.6109593 C35.5478599,40.0205212 31.3701371,29.5016402 23.7288322,21.022134 C23.550297,20.8074629 23.3717619,20.5927919 23.1932267,20.4138993 C23.3360548,20.5570134 23.478883,20.7359059 23.5860041,20.8790199 C31.4415512,29.4300831 35.726395,39.9847427 35.726395,50.5036238 C35.726395,60.0922637 40.0469459,68.7864409 48.2595633,75.7274713 C55.8651612,82.2033811 66.2916146,86.7472515 78.4320056,88.8939619 L94.1430998,91.720464 C94.2145138,91.7562425 94.3216349,91.7562425 94.5001701,91.792021 L96.9282483,92.2213631 C117.138429,95.8707708 123.672815,107.212558 130.59998,119.269914 C134.599167,126.175166 138.741183,133.402425 145.668347,139.520549 C153.559601,146.497358 164.057469,151.077007 177.697555,153.509946 L200.657177,157.588696 C222.795537,161.595888 243.041424,171.542313 257.824136,185.674824 L257.824136,185.495931 C243.041424,171.363421 222.795537,161.452774 200.657177,157.48136 L177.697555,153.331053 C164.093176,150.898115 153.666723,146.354244 145.775468,139.413214 C138.848304,133.295089 134.741995,126.103609 130.742808,119.198357 C123.815644,107.105222 117.24555,95.7276568 96.9282483,92.0424706 C95.0714826,91.7562425 94.393049,91.648907 94.1430998,91.57735 L78.4320056,88.7508479 C66.3630287,86.6041375 55.9365753,82.0602671 48.3666844,75.6201358 C40.2254811,68.7506624 35.9049302,60.0564852 35.9049302,50.5751808 C35.9049302,39.9847427 31.5843793,29.3585261 23.7288322,20.7716844 C23.0146915,20.0203358 22.3005509,19.2332086 21.5507032,18.5176385 C22.2648439,19.1974301 22.9432775,19.9130002 23.6217111,20.5927919 C31.6557933,29.2869691 36.0834653,39.8774072 36.0834653,50.4678453 C36.0834653,60.0564852 40.4397233,68.7506624 48.6523407,75.4770218 C56.2222315,81.774039 66.684392,86.2463524 78.931904,88.4646198 L94.393049,91.2195649 C94.5001701,91.2553434 94.6072912,91.2911219 94.8215334,91.3269004 L97.3210256,91.7562425 C117.531206,95.3698717 124.208421,106.711658 131.31412,118.733237 C135.349015,125.710046 139.562445,132.865747 146.561023,138.983872 C154.452277,145.889124 164.914438,150.432994 178.447403,152.865933 L201.621267,157.052018 C223.188314,160.880318 243.041424,170.361623 257.824136,183.814341 L257.824136,183.59967 C243.005717,170.218509 223.152607,160.737204 201.621267,156.873125 L178.447403,152.722819 C164.950145,150.325659 154.559398,145.781788 146.668144,138.876536 C139.705273,132.758412 135.491843,125.638489 131.421241,118.733237 C124.351249,106.67588 117.638327,95.2267577 97.3210256,91.648907 C95.3928459,91.2911219 94.6787053,91.1480079 94.393049,91.1122294 L78.931904,88.3215058 C66.720099,86.1032384 56.2936456,81.6667035 48.7594618,75.4054648 C40.5825514,68.6433269 36.2620005,60.0564852 36.2620005,50.5036238 C36.2620005,39.8416287 31.7986215,29.2511906 23.7288322,20.5570134 C22.7647423,19.5194367 21.7292384,18.48186 20.6223204,17.4442833 C21.6578243,18.4460815 22.6576212,19.3763226 23.6217111,20.4138993 C31.8700355,29.1796336 36.4405357,39.7700717 36.4405357,50.4678453 C36.4405357,55.3695008 37.5831607,60.0564852 39.8327037,64.3141276 C41.9394186,68.3928774 45.0459304,72.0780636 49.0451181,75.2981292 C56.5793019,81.3446969 67.0771693,85.7812318 79.4318025,87.9994993 L94.6787053,90.7544443 C94.7858264,90.7544443 94.8929474,90.7902228 95.1071896,90.7902228 L97.74951,91.2911219 C117.923983,94.8689726 124.744026,106.246538 131.992554,118.268116 C136.13457,125.209147 140.419414,132.32907 147.453699,138.411416 C155.38066,145.316668 165.771406,149.860538 179.197251,152.257698 L202.54965,156.443783 C223.616799,160.200527 243.041424,169.288267 257.824136,182.025416 L257.824136,181.846523 C243.005717,169.073596 223.581092,160.057413 202.54965,156.300669 L179.197251,152.114584 C165.807113,149.717424 155.452074,145.209332 147.56082,138.30408 C140.562242,132.221734 136.277398,125.101811 132.135382,118.268116 C124.851147,106.174981 117.995397,94.7974156 97.74951,91.1480079 C95.7142092,90.7902228 94.9286545,90.6471088 94.6787053,90.6113303 L79.4318025,87.8563852 C67.1128764,85.6381178 56.6507159,81.2731399 49.1522391,75.2265722 C45.1530515,71.9707281 42.0822468,68.2855418 39.9755319,64.278349 C37.7259888,60.0564852 36.6190708,55.4052793 36.6190708,50.4678453 C36.6190708,39.7700717 32.0485707,29.1080766 23.7288322,20.3065638 C21.6935314,18.1598534 19.4439883,16.156257 17.0159101,14.2957746 C19.3725743,16.0847 21.5864103,18.0882964 23.6217111,20.1992283 C32.1199848,28.9649625 36.797606,39.6985147 36.797606,50.4320668 C36.797606,55.3695008 37.940231,60.0564852 40.1897741,64.2425705 C42.296489,68.2497633 45.4030008,71.8991711 49.4378954,75.0834582 C56.9363722,81.0226904 67.4699467,85.2803327 79.9317009,87.4986002 L94.9286545,90.2535452 C95.0357756,90.2893237 95.1786037,90.2893237 95.3928459,90.2893237 L98.1779944,90.7902228 C118.316761,94.4396305 125.315339,105.781417 132.706695,117.838774 C136.920124,124.672469 141.312089,131.82817 148.346375,137.874738 C156.309043,144.744212 166.628375,149.216525 179.947098,151.577906 L203.51374,155.835549 C224.009576,159.520735 243.077131,168.143355 257.824136,180.308048 L257.824136,180.129155 C243.041424,168.000241 224.009576,159.413399 203.51374,155.728213 L179.947098,151.470571 C166.664082,149.109189 156.380457,144.601097 148.453496,137.803181 C141.41921,131.720835 137.062953,124.636691 132.849523,117.767217 C125.42246,105.674082 118.388175,94.2965165 98.1779944,90.6471088 C95.9998654,90.2893237 95.2143107,90.1462097 94.9286545,90.1104312 L79.9317009,87.4270431 C67.5056537,85.2087757 56.9720792,80.8795763 49.5450165,74.9761227 C45.5458289,71.7918355 42.4393171,68.2139848 40.3326022,64.2425705 C38.0830592,60.0564852 36.9404341,55.3695008 36.9404341,50.4320668 C36.9404341,39.6627362 32.2628129,28.9649625 23.7288322,20.0918928 C20.5866134,16.8718271 17.0516172,13.9379896 13.1595506,11.4692726 C16.9802031,13.9379896 20.5151993,16.7287131 23.6217111,19.9130002 C32.369934,28.8218485 37.1546763,39.6269577 37.1546763,50.3962883 C37.1546763,60.0922637 41.4038132,68.3213203 49.8306728,74.8687871 C57.2577355,80.5933483 67.827017,84.8152121 80.4315994,87.1050366 L95.2143107,89.7526461 C95.3214318,89.7526461 95.46426,89.7884246 95.6785022,89.8242031 L98.6064788,90.3251022 C118.709538,93.9387314 125.850944,105.316297 133.385128,117.337875 C137.705679,124.207348 142.169058,131.291493 149.239051,137.302282 C157.201719,144.135977 167.521051,148.60829 180.696946,150.969672 L204.442122,155.263093 C224.43806,158.840943 243.112838,167.07 257.824136,178.698015 L257.824136,178.483344 C243.112838,166.926886 224.43806,158.733608 204.442122,155.119979 L180.696946,150.898115 C167.556758,148.465176 157.273133,144.028641 149.310465,137.266504 C142.276179,131.184157 137.8128,124.17157 133.527956,117.302097 C125.922358,105.24474 118.780952,93.8313959 98.6064788,90.2535452 C96.3212287,89.7884246 95.499967,89.6453106 95.2143107,89.6095321 L80.4315994,86.9619225 C67.862724,84.7078766 57.3291495,80.4860128 49.9377939,74.7614516 C41.5466413,68.2855418 37.2975044,60.0922637 37.2975044,50.3962883 C37.2975044,39.6269577 32.4770551,28.78607 23.7288322,19.8772217 C21.1936329,17.2653907 18.3727774,14.8682307 15.3733866,12.7930773 C18.3370703,14.8324522 21.1222188,17.1580552 23.6217111,19.6983292 C32.5841762,28.642956 37.5117466,39.5196221 37.5117466,50.3247313 C37.5117466,60.0564852 41.7965905,68.2497633 50.2591571,74.6183376 C57.5790988,80.1640062 68.1840873,84.3500915 80.9314978,86.6041375 L95.499967,89.251747 C95.6070881,89.251747 95.7499162,89.251747 95.9998654,89.323304 L99.0349632,89.8957601 C119.066608,93.4378323 126.38655,104.815398 134.099269,116.872754 C138.491234,123.670671 143.026027,130.754815 150.096019,136.765604 C158.130102,143.563521 168.37802,148.000056 181.446794,150.361437 L205.370505,154.619079 C224.902252,158.161152 243.184252,166.032423 257.824136,177.087982 L257.824136,176.944868 C243.184252,165.925088 224.902252,158.053816 205.370505,154.547522 L181.446794,150.218323 C168.413727,147.928499 158.165809,143.456185 150.20314,136.694047 C143.133148,130.64748 138.598355,123.634892 134.20639,116.836976 C126.457964,104.779619 119.173729,93.3662753 99.0349632,89.7526461 C96.606885,89.2875255 95.7499162,89.18019 95.499967,89.108633 L80.9314978,86.496802 C68.2197944,84.242756 57.6505128,80.0924492 50.2948642,74.5825591 C41.9037116,68.2139848 37.6545748,60.0564852 37.6545748,50.3247313 C37.6545748,39.5196221 32.6912973,28.6071775 23.7288322,19.6267722 C20.9436837,16.8002701 17.8014648,14.2957746 14.4450038,12.0417287 C17.7657578,14.2599961 20.8722696,16.7287131 23.6574181,19.4836582 C32.7984184,28.4640634 37.868817,39.4480651 37.868817,50.2889528 C37.868817,60.0564852 42.1536608,68.1424278 50.6519345,74.4036666 C58.0075831,79.8777781 68.3983295,83.8134139 81.4671033,86.1390169 L95.7499162,88.7508479 C95.8570373,88.7508479 96.0355725,88.7866264 96.2855217,88.8224049 L99.4634476,89.394861 C119.495093,93.0084902 126.922155,104.386056 134.813409,116.371855 C139.276789,123.169772 143.882996,130.253916 150.988695,136.228927 C159.022777,142.991065 169.234989,147.391821 182.196641,149.717424 L206.334595,154.046623 C225.366443,157.48136 243.291373,164.994847 257.824136,175.549506 L257.824136,175.370614 C243.291373,164.851732 225.366443,157.409803 206.334595,153.939288 L182.196641,149.645867 C169.270696,147.284486 159.094191,142.847951 151.060109,136.121591 C143.990117,130.182359 139.38391,123.133993 134.920531,116.336077 C126.993569,104.27872 119.5308,92.9011547 99.4634476,89.2875255 C96.9282483,88.8224049 96.0355725,88.7150694 95.7499162,88.6435124 L95.7499162,88.6077339 L81.4671033,86.0674599 C68.3983295,83.7060784 58.0789972,79.8062211 50.7233486,74.3321095 C42.2607819,68.0708708 37.9759381,60.0564852 37.9759381,50.2889528 C37.9759381,39.4480651 32.9412465,28.4640634 23.7288322,19.3763226 C19.7296446,15.4764654 15.0877304,12.0417287 10.1244529,9.28678364 L0.876331556,7.64097231 L0.876331556,7.99875739 Z" id="Fill-28"></path>
                            <path d="M220.867984,142.616759 L195.740122,138.101378 C189.127527,136.918778 183.337038,135.162796 178.011218,132.833433 C173.293042,130.719088 169.111023,128.13887 165.179209,124.985271 C157.95897,119.108108 152.954844,112.191691 148.093693,105.454456 C139.407959,93.4492759 131.151151,82.0891504 111.313366,78.4696783 L107.488783,77.7529511 C107.131346,77.7171148 106.916883,77.6812784 106.809652,77.6812784 L93.655949,75.3160788 C79.3941895,72.735861 69.4216809,69.3672434 62.2729293,64.7443532 C58.1266533,62.02079 54.9097151,58.7596815 52.7650896,55.1402093 C50.4417453,51.1623736 49.2979451,46.6111561 49.2979451,41.5223933 C49.2979451,23.7117235 35.7510607,9.09048945 21.2033511,0.883963494 L21.4178137,0.919799852 C35.9297795,9.16216216 49.3694326,23.7833962 49.3694326,41.5223933 C49.3694326,46.6111561 50.5489766,51.1623736 52.8365771,55.1402093 C54.9812026,58.6880087 58.1981408,61.9491173 62.3444168,64.6368441 C69.4574247,69.331407 79.3941895,72.6641883 93.655949,75.2444061 L106.809652,77.5737693 C107.131346,77.6454421 108.167915,77.7887875 111.313366,78.3980056 C131.222639,81.9816414 139.443703,93.3417668 148.16518,105.418619 C153.026331,112.120018 158.030458,119.072272 165.250697,124.913598 C169.146766,128.103034 173.328786,130.611579 178.046962,132.725924 C183.337038,135.12696 189.127527,136.847105 195.740122,137.993869 L220.867984,142.50925 C232.842143,144.731104 244.423121,148.31474 255.289224,153.367666 C259.614218,155.374502 263.760494,157.56052 267.692308,159.961556 L267.692308,159.997392 C263.760494,157.668029 259.578475,155.446175 255.25348,153.475175 C244.423121,148.422249 232.842143,144.76694 220.867984,142.616759" id="Fill-9"></path>
                            <path d="M221.773137,141.548342 L196.433485,137.011934 C189.848039,135.868901 184.049983,134.154353 178.788784,131.76113 C174.064442,129.653665 169.876957,127.153282 165.940006,124.009944 C158.674541,118.187625 153.592294,111.293713 148.689,104.649839 C139.777173,92.6480031 131.402204,81.2891224 111.538494,77.7171473 C108.281561,77.1456313 107.207847,76.9313128 106.885733,76.895593 L106.849942,76.895593 L106.778361,76.895593 L93.9653736,74.5738092 C79.4702338,72.0377069 69.4489026,68.7514899 62.4339708,64.2508013 C53.6295156,58.7142399 49.3704498,51.1773725 49.3704498,41.3187213 C49.3704498,35.2820834 47.7956692,29.3168851 44.6818984,23.5660052 C41.8902419,18.5295204 37.9890808,13.707354 33.0499962,9.31382467 C29.5067398,6.1704866 25.4624169,3.34862629 21.2033511,0.883963494 L21.4180939,0.919683245 C25.5697883,3.34862629 29.5425303,6.13476685 33.0857866,9.27810492 C38.0606618,13.6716343 41.9976133,18.4938006 44.7534794,23.5660052 C47.8672501,29.3168851 49.4420308,35.2820834 49.4420308,41.3187213 C49.4420308,51.1773725 53.7010965,58.6785202 62.4697613,64.2508013 C69.4846931,68.6443306 79.4702338,71.9305477 93.9653736,74.5023697 L106.885733,76.8241535 C107.207847,76.895593 108.281561,77.0741918 111.538494,77.6457078 C131.437994,81.2176829 139.812964,92.6122834 148.72479,104.649839 C153.663875,111.257993 158.746122,118.151905 166.011587,123.938505 C169.948538,127.081843 174.100233,129.617945 178.788784,131.72541 C184.085773,134.047194 189.848039,135.761742 196.433485,136.940494 L221.773137,141.476902 C233.798734,143.620087 245.466427,147.263502 256.41831,152.299987 C260.319471,154.085974 264.113261,156.014841 267.692308,158.122306 L267.692308,158.229465 C264.07747,156.122 260.319471,154.193134 256.38252,152.335707 C245.430636,147.299222 233.762944,143.727247 221.773137,141.548342" id="Fill-14"></path>
                            <path d="M222.799754,141.417152 L197.299926,136.856014 C190.79997,135.680095 185.085723,133.969668 179.835758,131.689099 C175.157219,129.5867 170.978675,127.056693 167.05013,123.956545 C159.764465,118.183854 154.621643,111.306513 149.621677,104.714243 C140.586024,92.7412547 132.050367,81.374043 112.3005,77.9175554 C110.121944,77.5255826 108.907666,77.2405115 108.193385,77.1692437 L107.514818,77.0267081 L107.407676,77.0267081 L107.371962,76.9910742 L94.8363326,74.7817729 C79.9435761,72.1448648 70.229356,69.0447162 63.2651173,64.6973813 C54.4437483,59.2810296 50.158063,51.7979122 50.158063,41.9629578 C50.158063,35.8695622 48.550931,29.8830682 45.372381,24.1460115 C42.5509715,19.0503649 38.5509986,14.2397894 33.5153183,9.89245449 C30.08677,6.89920752 26.1939392,4.1197639 22.0868241,1.76792699 L22.2653943,1.83919477 C26.3367954,4.1197639 30.1581981,6.89920752 33.5867464,9.8568206 C38.6224266,14.2397894 42.6223996,18.9790971 45.4438091,24.1103776 C48.6223591,29.8830682 50.2294911,35.8695622 50.2294911,41.9629578 C50.2294911,51.7979122 54.5151764,59.2453957 63.3008314,64.6973813 C70.26507,68.9378145 79.9792901,72.0379631 94.8363326,74.6748712 L107.479104,76.9198064 C107.800531,77.0267081 108.907666,77.2048776 112.3005,77.8106537 C132.086081,81.374043 140.621738,92.7056208 149.693105,104.714243 C154.657357,111.306513 159.835893,118.14822 167.085845,123.885277 C171.014389,127.021059 175.192933,129.551066 179.835758,131.582198 C185.085723,133.934035 190.79997,135.644461 197.299926,136.784746 L222.799754,141.345884 C234.835387,143.519552 246.549593,147.154209 257.549519,152.178588 C261.049495,153.782113 264.44233,155.49254 267.692308,157.2386 L267.692308,157.345502 C264.44233,155.528173 261.013781,153.817747 257.513805,152.214221 C246.513879,147.189843 234.835387,143.555186 222.799754,141.417152" id="Fill-16"></path>
                            <path d="M194.834572,138.440006 C182.297597,136.238482 172.268017,131.906449 164.065253,125.337383 C156.829627,119.513995 151.886477,112.625353 147.122427,105.949762 C138.561464,94.0189175 130.46616,82.7272258 110.550279,79.2118878 L106.825007,78.537227 C106.502627,78.5017185 106.287708,78.4662101 106.180248,78.4307016 L92.7835945,76.0516345 C78.8496421,73.566042 68.6051424,70.050704 61.4411566,65.3280783 C57.2860449,62.558418 54.0622512,59.2916393 51.9488754,55.6342675 C49.62058,51.7283364 48.4743423,47.1832529 48.4743423,42.1055425 C48.4743423,36.2466459 46.9699053,30.4942747 44.0326711,24.9194458 C41.3461765,19.8062269 37.5850839,15.0480927 32.8210334,10.71606 C29.0599408,7.30724743 24.7615493,4.28902796 20.3198781,1.76792699 L20.5706176,1.83894392 C24.940649,4.32453642 29.1674006,7.30724743 32.8926732,10.6805516 C37.6567238,15.0125842 41.4536362,19.7707184 44.104311,24.8484288 C47.0773651,30.4942747 48.5459822,36.2466459 48.5459822,42.141051 C48.5459822,47.1832529 49.7280398,51.6928279 52.0205153,55.6342675 C54.169711,59.2916393 57.3576847,62.5229096 61.4769765,65.2215529 C68.6409623,70.0151956 78.885462,73.4950251 92.7835945,75.9451091 L106.180248,78.3596847 C106.502627,78.3951931 107.505585,78.537227 110.550279,79.1053624 C130.5378,82.6917173 138.633104,93.983409 147.194067,105.914253 C151.993937,112.554336 156.901267,119.442978 164.136893,125.301875 C172.303837,131.870941 182.333417,136.131956 194.834572,138.36899 L219.801063,142.807548 C231.764919,144.938055 243.334756,148.52441 254.116555,153.566612 C258.880605,155.69712 263.393916,158.147204 267.692308,160.774831 L267.692308,160.881356 C253.650896,152.217291 237.137908,145.967801 219.801063,142.878564 L194.834572,138.440006 Z" id="Fill-18"></path>
                            <path d="M194.199414,139.412051 C181.575088,137.170174 171.489932,132.828762 163.371739,126.209887 C156.14762,120.338305 151.283856,113.399162 146.598908,106.709117 C138.230374,94.7168546 130.290996,83.4718848 110.371024,79.91335 L106.794728,79.2728138 C106.472861,79.2372284 106.294046,79.1660577 106.186757,79.1304724 L92.5610676,76.6750834 C78.828089,74.2552798 68.635644,70.6611597 61.3757621,65.7503817 C57.2272581,62.9391393 54.0443542,59.629702 51.8985763,55.8576551 C49.6097466,51.9076816 48.4295687,47.3171718 48.4295687,42.2996378 C48.4295687,36.4992261 46.9990501,30.7699852 44.1380129,25.218671 C41.5630794,20.1299663 37.843731,15.3615297 33.1945456,11.0201173 C29.3321453,7.46158258 24.9333006,4.33007201 20.3198781,1.76792699 L20.6059819,1.80351234 C25.1478784,4.36565735 29.4751972,7.46158258 33.2660715,10.984532 C37.9510199,15.3615297 41.6346053,20.0943809 44.2453018,25.1830856 C47.106339,30.7699852 48.5368576,36.4992261 48.5368576,42.2996378 C48.5368576,47.3171718 49.7170354,51.8720962 52.0058652,55.8576551 C54.1158802,59.5585313 57.298784,62.8323833 61.447288,65.6792111 C68.6714069,70.589989 78.828089,74.1841091 92.5610676,76.6394981 L106.186757,79.0593017 C106.472861,79.0948871 107.474224,79.3083991 110.371024,79.7710087 C130.362522,83.4007141 138.3019,94.6812692 146.670434,106.673531 C151.391145,113.363577 156.219145,120.302719 163.407501,126.174302 C171.525695,132.757591 181.610851,137.099003 194.199414,139.34088 L218.947386,143.717878 C236.650054,146.884974 253.494411,153.468263 267.692308,162.506942 L267.692308,162.649283 C253.494411,153.503849 236.685817,146.99173 218.947386,143.824634 L194.199414,139.412051 Z" id="Fill-20"></path>
                            <path d="M192.902806,139.526073 C180.099071,137.240516 169.934547,132.847963 161.874257,126.098429 C154.741257,120.170267 150.033478,113.170751 145.504023,106.385506 C137.479398,94.3506231 129.882754,83.0299768 109.946019,79.458795 L106.629174,78.9231177 C106.343855,78.8159822 106.16553,78.7802704 106.058535,78.7802704 L92.0421901,76.2804432 C78.8461407,73.8877514 68.4319611,70.0665868 61.1563014,64.7812378 C52.6323668,58.6030933 48.316902,50.6036461 48.316902,40.8900316 C48.316902,29.9622153 43.1811422,18.9629753 33.8012476,9.89217358 C29.8067677,6.07100905 25.2059829,2.71409817 20.3198781,0 L20.6408631,0.107135454 C25.4556379,2.74980998 29.9494277,6.07100905 33.9082426,9.85646176 C43.2881372,18.9272635 48.459562,29.9622153 48.459562,40.9257434 C48.459562,50.5679342 52.7393618,58.5673815 61.2276314,64.6741023 C68.5032911,69.9237396 78.8461407,73.7806159 92.0421901,76.1733077 L106.0942,78.673135 C106.37952,78.7445586 107.306809,78.9231177 109.946019,79.3516595 C129.954084,82.9585531 137.550728,94.3149112 145.611018,106.314082 C150.140473,113.135039 154.848252,120.134556 161.945587,126.062717 C169.970212,132.740827 180.099071,137.169093 192.902806,139.418937 L217.19067,143.775779 C235.772134,147.13269 253.283648,154.275054 267.692308,164.274363 L267.692308,164.41721 C253.283648,154.417901 235.772134,147.204114 217.19067,143.882915 L192.902806,139.526073 Z" id="Fill-22"></path>
                            <path d="M193.555573,139.467427 C180.842337,137.221284 170.700317,132.835957 162.593844,126.133181 C155.451576,120.250425 150.666257,113.298078 146.059495,106.559648 C137.845887,94.5802185 130.096527,83.2781969 110.169601,79.6415843 L106.705602,79.0711352 C106.419911,78.9998291 106.241354,78.964176 106.13422,78.964176 L92.313933,76.4684615 C78.9578931,74.0797061 68.4944714,70.3004812 61.2807814,65.237746 C57.1739777,62.3855008 53.9956687,58.9628065 51.8529885,55.2548877 C49.5674629,51.1904383 48.4247002,46.5911929 48.4247002,41.5641108 C48.4247002,35.8239673 46.9962467,30.190783 44.2464738,24.6289048 C41.7109688,19.5661696 38.0684125,14.7886589 33.4973614,10.474638 C29.640537,6.8023723 25.1409086,3.52229031 20.3198781,0.883963494 L20.6412802,0.919616559 C25.3551766,3.52229031 29.7833824,6.8023723 33.6044954,10.3676788 C38.1755465,14.7173527 41.7823915,19.5661696 44.3536078,24.6289048 C47.1033807,30.1551299 48.4961228,35.8952734 48.4961228,41.6354169 C48.4961228,46.626846 49.6745969,51.1904383 51.9601225,55.2192347 C54.0670914,58.9271535 57.2454003,62.2785416 61.3164927,65.1664398 C68.5658941,70.2648282 78.9578931,74.0084 92.313933,76.3615023 L106.13422,78.8928699 C106.455622,78.928523 107.384117,79.1067883 110.169601,79.5702781 C130.16795,83.1355846 137.91731,94.4732593 146.166629,106.488342 C150.773391,113.226772 155.55871,120.179119 162.700978,126.097528 C170.77174,132.764651 180.878048,137.114325 193.555573,139.360468 L218.089261,143.745795 C236.23062,146.990224 253.372062,153.79996 267.692308,163.390634 L267.692308,163.533246 C253.372062,153.942572 236.23062,147.132836 218.089261,143.852754 L193.555573,139.467427 Z" id="Fill-24"></path>
                            <path d="M211.047923,151.102052 L185.94588,146.558182 C179.304372,145.377491 173.519832,143.660123 168.235192,141.298741 C163.521863,139.187809 159.344141,136.611757 155.416367,133.463248 C148.203547,127.631352 143.204562,120.690321 138.348406,114.035519 C129.63589,101.978162 121.423272,90.6363752 101.60587,87.022746 L97.74951,86.3787329 C97.3924397,86.2713974 97.2139045,86.2713974 97.1067834,86.2713974 L83.9665956,83.8742374 C69.7194897,81.3339634 59.7572277,77.9350052 52.6158213,73.3195778 C48.4738055,70.5646327 45.2601726,67.3803456 43.1177507,63.7667164 C40.7967936,59.7595236 39.6184615,55.1798747 39.6184615,50.1351052 C39.6184615,32.3531872 26.1212034,17.7555563 11.5884412,9.59805665 L11.8026834,9.59805665 C26.2997385,17.8271133 39.7255826,32.4605227 39.7255826,50.1351052 C39.7255826,55.2156532 40.8682077,59.7595236 43.1891648,63.7309379 C45.3315867,67.3445671 48.5095126,70.5288542 52.6515283,73.2480208 C59.7929348,77.8634482 69.7194897,81.2266279 83.9665956,83.8026804 L97.1067834,86.1640618 C97.3924397,86.2713974 98.4636507,86.4145114 101.60587,86.951189 C121.494686,90.5290397 129.707304,101.942383 138.41982,113.99974 C143.275976,120.654543 148.239254,127.559795 155.487781,133.42747 C159.379848,136.575978 163.55757,139.080474 168.235192,141.227184 C173.555539,143.552787 179.340079,145.305934 185.94588,146.522403 L211.047923,151.030495 C223.009779,153.177206 234.578858,156.790835 245.433795,161.871383 C249.754346,163.803422 253.896362,166.057468 257.824136,168.383071 L257.824136,168.490407 C253.860655,166.129025 249.718639,163.874979 245.398088,161.94294 C234.543151,156.862392 222.974072,153.248763 211.047923,151.102052" id="Fill-26"></path>
                            <path d="M211.987018,150.508129 L186.706439,145.964259 C180.136346,144.783568 174.387513,143.0662 169.102873,140.740597 C164.389544,138.629665 160.211822,136.089391 156.319755,132.940882 C149.03552,127.108985 143.965122,120.167955 139.073258,113.513153 C130.182207,101.491574 121.826762,90.1497875 102.009359,86.6077153 C98.760019,85.9637022 97.6888081,85.7848097 97.3674448,85.7490312 L97.3317378,85.7490312 L97.2603237,85.7132526 L84.4772061,83.4592067 C70.0158581,80.8473757 60.0178891,77.555753 53.0193107,73.1192182 C44.2353808,67.537771 39.986244,60.0242846 39.986244,50.0778596 C39.986244,44.0312919 38.4151346,38.0562812 35.3086227,32.3317201 C32.5591813,27.2511721 28.6314077,22.4568521 23.7038373,18.0203172 C20.1688411,14.9433656 16.1339464,12.0453065 11.8848096,9.61236806 L12.0990518,9.68392507 C16.2410675,12.0453065 20.2045481,14.8360301 23.7395443,17.9845387 C28.7028218,22.3852951 32.6305953,27.2153935 35.3800368,32.2959416 C38.4865486,38.0562812 40.057658,44.0312919 40.057658,50.1136381 C40.057658,59.988506 44.3067949,67.466214 53.0550178,73.0118826 C60.0535961,77.5199745 70.0158581,80.7758187 84.4772061,83.3518712 L97.3674448,85.6774741 C97.6888081,85.7132526 98.760019,85.8921452 102.009359,86.5003798 C121.862469,90.114009 130.253621,101.455796 139.108965,113.513153 C144.036536,120.132176 149.106935,127.037428 156.355462,132.869325 C160.283236,136.017834 164.425251,138.522329 169.13858,140.633261 C174.387513,142.994643 180.136346,144.676232 186.706439,145.856923 L211.987018,150.400793 C223.984581,152.619061 235.625074,156.196912 246.551425,161.241681 C250.443492,163.066385 254.228437,164.998424 257.799141,167.109356 L257.799141,167.180913 C254.19273,165.069981 250.443492,163.137942 246.515718,161.349017 C235.589367,156.304247 223.984581,152.654839 211.987018,150.508129" id="Fill-31"></path>
                            <path d="M212.929684,149.878427 L187.47057,145.298778 C180.936183,144.153866 175.223058,142.472276 169.974124,140.110895 C165.33221,137.999963 161.11878,135.531246 157.191007,132.382737 C149.906772,126.586619 144.764959,119.681367 139.765975,113.062343 C130.732096,101.004987 122.198115,89.6274213 102.452126,86.1211276 C100.273997,85.7275641 99.0599581,85.512893 98.3815245,85.369779 L97.6673839,85.226665 C97.6316768,85.226665 97.5959698,85.226665 97.5959698,85.1908864 L97.5245557,85.1908864 L84.9913874,82.972619 C70.101555,80.3250095 60.3892422,77.1765009 53.4263709,72.88308 C44.6067339,67.4089684 40.3575971,59.9312604 40.3575971,50.0563925 C40.3575971,43.9382678 38.7150736,37.8917001 35.5371478,32.0955819 C32.7162922,27.0150339 28.7528116,22.220714 23.7181201,17.8199576 C20.254538,14.8503415 16.3624714,12.0238394 12.2561627,9.69823647 L12.4346979,9.73401498 C16.5052996,12.0238394 20.3616591,14.814563 23.7538271,17.7841791 C28.7885187,22.1849354 32.7877063,27.0150339 35.6085618,32.0955819 C38.7864877,37.8917001 40.3933041,43.9382678 40.3933041,50.092171 C40.3933041,59.9312604 44.678148,67.3731899 53.4620779,72.8473015 C60.4249492,77.1407223 70.137262,80.2534525 84.9913874,82.9368405 L97.6316768,85.1908864 C97.9530401,85.226665 99.0956651,85.4055575 102.452126,86.0495706 C122.233822,89.5916428 130.80351,100.969208 139.837389,113.026565 C144.836373,119.645589 149.978186,126.515062 157.226714,132.346959 C161.154487,135.42391 165.33221,137.964184 170.009831,140.075116 C175.258765,142.364941 180.97189,144.118088 187.47057,145.263 L212.929684,149.842649 C224.962954,151.989359 236.67486,155.638767 247.672626,160.683536 C251.171915,162.293569 254.564084,164.046716 257.813423,165.799863 L257.813423,165.907198 C254.564084,164.046716 251.136208,162.329348 247.636919,160.719315 C236.639153,155.674545 224.962954,152.096695 212.929684,149.878427" id="Fill-33"></path>
                            <path d="M185.206744,147.223662 C172.709283,144.969616 162.675607,140.640417 154.534403,133.985614 C147.321583,128.153718 142.394012,121.176909 137.60927,114.45055 C129.110996,102.46475 121.041207,91.1229629 101.15239,87.5093337 L97.4388588,86.8653206 C97.1532026,86.8295421 96.9389604,86.7937636 96.8318393,86.7579851 L83.4774092,84.3608251 C69.5873737,81.8563296 59.3751625,78.2784789 52.233756,73.5199374 C48.0917403,70.7292139 44.8781074,67.4733697 42.7356855,63.7881835 C40.4504354,59.8525477 39.2721033,55.2371203 39.2721033,50.1565723 C39.2721033,44.2888971 37.808115,38.421222 34.8801384,32.8039964 C32.2021109,27.7234483 28.4528726,22.8575714 23.7038373,18.4925935 C19.9188919,15.0578568 15.669755,12.0524622 11.206376,9.51218824 L11.4563252,9.54796674 C15.8482902,12.0524622 20.06172,15.0578568 23.7395443,18.456815 C28.5242866,22.8575714 32.273525,27.6876698 34.9515524,32.8039964 C37.8795291,38.3854435 39.3792244,44.2888971 39.3792244,50.1565723 C39.3792244,55.2371203 40.5218495,59.8525477 42.8428065,63.752405 C44.9495215,67.4375912 48.1631544,70.6934354 52.2694631,73.4841589 C59.4108695,78.2069219 69.5873737,81.7489941 83.4774092,84.2177111 L96.8318393,86.6506495 C97.1532026,86.7579851 98.1529995,86.9010991 101.15239,87.4377767 C121.076914,91.0156274 129.182411,102.393193 137.716391,114.414771 C142.465427,121.14113 147.392997,128.082161 154.605817,133.985614 C162.747021,140.56886 172.74499,144.933838 185.206744,147.116327 L210.094546,151.58864 C222.020694,153.73535 233.518359,157.384758 244.301882,162.429528 C249.050918,164.612016 253.550004,167.080733 257.799141,169.728343 L257.799141,169.7999 C243.801984,161.069944 227.376749,154.772927 210.094546,151.660197 L185.206744,147.223662 Z" id="Fill-35"></path>
                            <path d="M184.456896,147.817585 C171.852314,145.563539 161.782931,141.23434 153.641728,134.543759 C146.464614,128.676084 141.608458,121.735054 136.895129,114.937137 C128.539684,102.915559 120.64843,91.5737721 100.759613,87.9959214 L97.1889096,87.3519083 C96.8318393,87.3161298 96.6890112,87.2803513 96.546183,87.2803513 L82.9775108,84.8116343 C69.2303034,82.3429173 59.0537992,78.7292881 51.8409787,73.7560756 C47.6989629,70.9295735 44.5210371,67.6021724 42.3786151,63.8812076 C40.0933651,59.8740148 38.915033,55.2585874 38.915033,50.2138179 C38.915033,44.3461427 37.4867517,38.5858031 34.6301891,33.004356 C32.0235758,27.8880295 28.3457515,23.1652665 23.6681302,18.7645102 C19.8474778,15.1866595 15.4555128,12.0381508 10.8493057,9.42631982 L11.0992549,9.49787683 C15.634048,12.0381508 19.9903059,15.1866595 23.7395443,18.6929532 C28.4171655,23.057931 32.1306969,27.8880295 34.7373102,33.004356 C37.5938728,38.5858031 39.0221541,44.3461427 39.0221541,50.2138179 C39.0221541,55.2943659 40.1647791,59.8740148 42.4857362,63.8454291 C44.5924511,67.5663938 47.770377,70.893795 51.8766857,73.6845186 C59.0895062,78.6219525 69.2660104,82.2713603 82.9775108,84.7042987 L96.5818901,87.1730157 C96.8675463,87.2087942 97.8673432,87.3876868 100.759613,87.8885859 C120.684137,91.5022151 128.646805,102.87978 137.002251,114.901359 C141.679872,121.663497 146.536028,128.604527 153.713142,134.472202 C161.818638,141.127004 171.852314,145.527761 184.456896,147.746028 L209.166163,152.182563 C226.841144,155.36685 243.659156,161.950096 257.799141,171.073615 L257.799141,171.18095 C243.659156,162.021653 226.841144,155.438407 209.166163,152.289899 L184.456896,147.817585 Z" id="Fill-37"></path>
                            <path d="M182.939348,149.112767 C170.120523,146.787164 159.944019,142.422186 151.874229,135.695827 C144.732823,129.720816 140.019495,122.67245 135.484702,115.910313 C127.450619,103.888734 119.845022,92.5469475 99.8847906,88.8975398 L96.5997436,88.3608622 C96.3140873,88.3250837 96.1355522,88.2535267 95.992724,88.2177481 L81.9598604,85.7490312 C68.7482584,83.3160927 58.3575121,79.4877924 51.0375704,74.1925734 C42.5035897,68.0744487 38.2187459,60.0242846 38.2187459,50.2567521 C38.2187459,39.3085289 33.0412262,28.2887488 23.6502767,19.201008 C19.6510891,15.3369292 15.080589,12.009528 10.1887256,9.36191851 L10.4743818,9.39769701 C15.2948312,12.0453065 19.7939172,15.3369292 23.7573978,19.1652295 C33.1483473,28.2529703 38.325867,39.3085289 38.325867,50.2567521 C38.325867,60.0242846 42.6107108,68.0028916 51.1089845,74.0852378 C58.3932191,79.4162354 68.7839655,83.2445357 81.9598604,85.6059171 L96.0284311,88.1461911 C96.3140873,88.2177481 97.2424702,88.3608622 99.8847906,88.8259828 C119.916436,92.4038335 127.557741,103.781399 135.591823,115.838756 C140.126616,122.636672 144.839944,129.649259 151.945644,135.588492 C159.979726,142.350629 170.15623,146.715607 182.939348,149.005432 L207.255837,153.334631 C225.8592,156.697811 243.391353,163.853512 257.816994,173.943051 L257.816994,174.014608 C243.391353,163.996626 225.8592,156.840925 207.255837,153.477745 L182.939348,149.112767 Z" id="Fill-39"></path>
                            <path d="M183.707049,148.447287 C170.995345,146.22902 160.854548,141.792485 152.749052,135.137682 C145.607645,129.19845 140.822903,122.221641 136.216696,115.423725 C128.004078,103.366368 120.255652,92.0603598 100.331128,88.4825091 L96.8675463,87.8742745 C96.5818901,87.8027175 96.4033549,87.8027175 96.2962338,87.7311604 L82.4776123,85.226665 C69.0874752,82.829505 58.6610218,79.1085402 51.4124943,73.9922137 C47.3061856,71.0941546 44.1282597,67.6951965 42.0215448,63.9384532 C39.7362947,59.8954819 38.5579627,55.2800545 38.5579627,50.2710635 C38.5579627,44.5107239 37.1653884,38.7503842 34.4159469,33.2047156 C31.8807477,28.1241676 28.2386304,23.3656262 23.6681302,19.0006483 C19.8117708,15.3154621 15.2769777,12.0238394 10.4922353,9.37622991 L10.8135986,9.41200842 C15.5269269,12.0238394 19.9545989,15.3154621 23.7395443,18.9648698 C28.3457515,23.3298477 31.9521617,28.1241676 34.523068,33.2047156 C37.2725095,38.7503842 38.6650838,44.5107239 38.6650838,50.2710635 C38.6650838,55.2800545 39.8434158,59.8954819 42.1286659,63.9026747 C44.2353808,67.6236395 47.4133067,71.0225976 51.4839084,73.8848782 C58.6967289,78.9654262 69.1231823,82.757948 82.4776123,85.1551079 L96.2962338,87.6596034 C96.5818901,87.6953819 97.5459799,87.8742745 100.331128,88.3393951 C120.327067,91.9888028 128.075493,103.33059 136.28811,115.387946 C140.930024,122.150084 145.679059,129.126893 152.820466,135.030347 C160.925962,141.720928 171.031052,146.085906 183.707049,148.339951 L208.23778,152.776486 C226.341245,156.03233 243.516328,162.901804 257.799141,172.490444 L257.799141,172.597779 C243.516328,162.973361 226.341245,156.139666 208.23778,152.848043 L183.707049,148.447287 Z" id="Fill-41"></path>
                        </g>
                    </g>
                </g>
            </g>
        </g>
    </g>
</svg>